<svg baseProfile="full" height="900" version="1.1" viewBox="0,0,1600,900" width="1600" xmlns="http://www.w3.org/2000/svg" xmlns:ev="http://www.w3.org/2001/xml-events" xmlns:xlink="http://www.w3.org/1999/xlink"><defs /><rect fill="#05080C" height="900" width="1600" x="0" y="0" /><rect fill="none" height="836" stroke="#24303A" stroke-width="1.5" width="1536" x="32" y="32" /><line stroke="#1A242D" stroke-width="1" x1="32" x2="1568" y1="96" y2="96" /><line stroke="#1A242D" stroke-width="1" x1="32" x2="1568" y1="804" y2="804" /><text fill="#9AA8B5" font-family="DejaVu Sans Mono" font-size="18" font-weight="400" letter-spacing="2px" x="72" y="70">BLACKPAPER RESEARCH</text><text fill="#9DDFFF" font-family="DejaVu Sans Mono" font-size="18" font-weight="400" letter-spacing="2px" text-anchor="end" x="1528" y="70">OFFER PANEL</text><text fill="#EEF2F5" font-family="DejaVu Sans" font-size="40" font-weight="700" x="72" y="150">Defensibility Packet</text><text fill="#9AA8B5" font-family="DejaVu Sans" font-size="20" x="72" y="185">artifact plate / deliverable preview</text><rect fill="#0A0F14" height="560" rx="14" ry="14" stroke="#24303A" stroke-width="1.6" width="620" x="72" y="230" /><line opacity="0.1" stroke="#1A242D" stroke-width="1" x1="80" x2="80" y1="238" y2="782" /><line opacity="0.1" stroke="#1A242D" stroke-width="1" x1="104" x2="104" y1="238" y2="782" /><line opacity="0.1" stroke="#1A242D" stroke-width="1" x1="128" x2="128" y1="238" y2="782" /><line opacity="0.1" stroke="#1A242D" stroke-width="1" x1="152" x2="152" y1="238" y2="782" /><line opacity="0.1" stroke="#1A242D" stroke-width="1" x1="176" x2="176" y1="238" y2="782" /><line opacity="0.1" stroke="#1A242D" stroke-width="1" x1="200" x2="200" y1="238" y2="782" /><line opacity="0.1" stroke="#1A242D" stroke-width="1" x1="224" x2="224" y1="238" y2="782" /><line opacity="0.1" stroke="#1A242D" stroke-width="1" x1="248" x2="248" y1="238" y2="782" /><line opacity="0.1" stroke="#1A242D" stroke-width="1" x1="272" x2="272" y1="238" y2="782" /><line opacity="0.1" stroke="#1A242D" stroke-width="1" x1="296" x2="296" y1="238" y2="782" /><line opacity="0.1" stroke="#1A242D" stroke-width="1" x1="320" x2="320" y1="238" y2="782" /><line opacity="0.1" stroke="#1A242D" stroke-width="1" x1="344" x2="344" y1="238" y2="782" /><line opacity="0.1" stroke="#1A242D" stroke-width="1" x1="368" x2="368" y1="238" y2="782" /><line opacity="0.1" stroke="#1A242D" stroke-width="1" x1="392" x2="392" y1="238" y2="782" /><line opacity="0.1" stroke="#1A242D" stroke-width="1" x1="416" x2="416" y1="238" y2="782" /><line opacity="0.1" stroke="#1A242D" stroke-width="1" x1="440" x2="440" y1="238" y2="782" /><line opacity="0.1" stroke="#1A242D" stroke-width="1" x1="464" x2="464" y1="238" y2="782" /><line opacity="0.1" stroke="#1A242D" stroke-width="1" x1="488" x2="488" y1="238" y2="782" /><line opacity="0.1" stroke="#1A242D" stroke-width="1" x1="512" x2="512" y1="238" y2="782" /><line opacity="0.1" stroke="#1A242D" stroke-width="1" x1="536" x2="536" y1="238" y2="782" /><line opacity="0.1" stroke="#1A242D" stroke-width="1" x1="560" x2="560" y1="238" y2="782" /><line opacity="0.1" stroke="#1A242D" stroke-width="1" x1="584" x2="584" y1="238" y2="782" /><line opacity="0.1" stroke="#1A242D" stroke-width="1" x1="608" x2="608" y1="238" y2="782" /><line opacity="0.1" stroke="#1A242D" stroke-width="1" x1="632" x2="632" y1="238" y2="782" /><line opacity="0.1" stroke="#1A242D" stroke-width="1" x1="656" x2="656" y1="238" y2="782" /><line opacity="0.1" stroke="#1A242D" stroke-width="1" x1="680" x2="680" y1="238" y2="782" /><line opacity="0.1" stroke="#1A242D" stroke-width="1" x1="72" x2="692" y1="246" y2="246" /><line opacity="0.1" stroke="#1A242D" stroke-width="1" x1="72" x2="692" y1="270" y2="270" /><line opacity="0.1" stroke="#1A242D" stroke-width="1" x1="72" x2="692" y1="294" y2="294" /><line opacity="0.1" stroke="#1A242D" stroke-width="1" x1="72" x2="692" y1="318" y2="318" /><line opacity="0.1" stroke="#1A242D" stroke-width="1" x1="72" x2="692" y1="342" y2="342" /><line opacity="0.1" stroke="#1A242D" stroke-width="1" x1="72" x2="692" y1="366" y2="366" /><line opacity="0.1" stroke="#1A242D" stroke-width="1" x1="72" x2="692" y1="390" y2="390" /><line opacity="0.1" stroke="#1A242D" stroke-width="1" x1="72" x2="692" y1="414" y2="414" /><line opacity="0.1" stroke="#1A242D" stroke-width="1" x1="72" x2="692" y1="438" y2="438" /><line opacity="0.1" stroke="#1A242D" stroke-width="1" x1="72" x2="692" y1="462" y2="462" /><line opacity="0.1" stroke="#1A242D" stroke-width="1" x1="72" x2="692" y1="486" y2="486" /><line opacity="0.1" stroke="#1A242D" stroke-width="1" x1="72" x2="692" y1="510" y2="510" /><line opacity="0.1" stroke="#1A242D" stroke-width="1" x1="72" x2="692" y1="534" y2="534" /><line opacity="0.1" stroke="#1A242D" stroke-width="1" x1="72" x2="692" y1="558" y2="558" /><line opacity="0.1" stroke="#1A242D" stroke-width="1" x1="72" x2="692" y1="582" y2="582" /><line opacity="0.1" stroke="#1A242D" stroke-width="1" x1="72" x2="692" y1="606" y2="606" /><line opacity="0.1" stroke="#1A242D" stroke-width="1" x1="72" x2="692" y1="630" y2="630" /><line opacity="0.1" stroke="#1A242D" stroke-width="1" x1="72" x2="692" y1="654" y2="654" /><line opacity="0.1" stroke="#1A242D" stroke-width="1" x1="72" x2="692" y1="678" y2="678" /><line opacity="0.1" stroke="#1A242D" stroke-width="1" x1="72" x2="692" y1="702" y2="702" /><line opacity="0.1" stroke="#1A242D" stroke-width="1" x1="72" x2="692" y1="726" y2="726" /><line opacity="0.1" stroke="#1A242D" stroke-width="1" x1="72" x2="692" y1="750" y2="750" /><rect fill="#0F161D" height="26" rx="13" ry="13" stroke="#24303A" stroke-width="1" width="260" x="90" y="242" /><text fill="#D2F1FF" font-family="DejaVu Sans Mono" font-size="14" letter-spacing="1.4px" x="102" y="260">WHAT GETS EXAMINED</text><text fill="#EEF2F5" font-family="DejaVu Sans" font-size="38" font-weight="700" x="96" y="312">Defensibility Packet</text><text fill="#9AA8B5" font-family="DejaVu Sans" font-size="22" x="96" y="362">evidence handoff for stakeholders,</text><text fill="#9AA8B5" font-family="DejaVu Sans" font-size="22" x="96" y="390">reviewers, and partners</text><circle cx="96" cy="457" fill="#9DDFFF" r="3.5" /><text fill="#EEF2F5" font-family="DejaVu Sans" font-size="26" x="112" y="463">top risk registry</text><circle cx="96" cy="527" fill="#9DDFFF" r="3.5" /><text fill="#EEF2F5" font-family="DejaVu Sans" font-size="26" x="112" y="533">boundary violations</text><circle cx="96" cy="597" fill="#9DDFFF" r="3.5" /><text fill="#EEF2F5" font-family="DejaVu Sans" font-size="26" x="112" y="603">failure mode classification</text><circle cx="96" cy="667" fill="#9DDFFF" r="3.5" /><text fill="#EEF2F5" font-family="DejaVu Sans" font-size="26" x="112" y="673">mitigation priority roadmap</text><rect fill="#0A0F14" height="276" rx="14" ry="14" stroke="#24303A" stroke-width="1.6" width="390" x="736" y="230" /><line opacity="0.1" stroke="#1A242D" stroke-width="1" x1="744" x2="744" y1="238" y2="498" /><line opacity="0.1" stroke="#1A242D" stroke-width="1" x1="768" x2="768" y1="238" y2="498" /><line opacity="0.1" stroke="#1A242D" stroke-width="1" x1="792" x2="792" y1="238" y2="498" /><line opacity="0.1" stroke="#1A242D" stroke-width="1" x1="816" x2="816" y1="238" y2="498" /><line opacity="0.1" stroke="#1A242D" stroke-width="1" x1="840" x2="840" y1="238" y2="498" /><line opacity="0.1" stroke="#1A242D" stroke-width="1" x1="864" x2="864" y1="238" y2="498" /><line opacity="0.1" stroke="#1A242D" stroke-width="1" x1="888" x2="888" y1="238" y2="498" /><line opacity="0.1" stroke="#1A242D" stroke-width="1" x1="912" x2="912" y1="238" y2="498" /><line opacity="0.1" stroke="#1A242D" stroke-width="1" x1="936" x2="936" y1="238" y2="498" /><line opacity="0.1" stroke="#1A242D" stroke-width="1" x1="960" x2="960" y1="238" y2="498" /><line opacity="0.1" stroke="#1A242D" stroke-width="1" x1="984" x2="984" y1="238" y2="498" /><line opacity="0.1" stroke="#1A242D" stroke-width="1" x1="1008" x2="1008" y1="238" y2="498" /><line opacity="0.1" stroke="#1A242D" stroke-width="1" x1="1032" x2="1032" y1="238" y2="498" /><line opacity="0.1" stroke="#1A242D" stroke-width="1" x1="1056" x2="1056" y1="238" y2="498" /><line opacity="0.1" stroke="#1A242D" stroke-width="1" x1="1080" x2="1080" y1="238" y2="498" /><line opacity="0.1" stroke="#1A242D" stroke-width="1" x1="1104" x2="1104" y1="238" y2="498" /><line opacity="0.1" stroke="#1A242D" stroke-width="1" x1="736" x2="1126" y1="246" y2="246" /><line opacity="0.1" stroke="#1A242D" stroke-width="1" x1="736" x2="1126" y1="270" y2="270" /><line opacity="0.1" stroke="#1A242D" stroke-width="1" x1="736" x2="1126" y1="294" y2="294" /><line opacity="0.1" stroke="#1A242D" stroke-width="1" x1="736" x2="1126" y1="318" y2="318" /><line opacity="0.1" stroke="#1A242D" stroke-width="1" x1="736" x2="1126" y1="342" y2="342" /><line opacity="0.1" stroke="#1A242D" stroke-width="1" x1="736" x2="1126" y1="366" y2="366" /><line opacity="0.1" stroke="#1A242D" stroke-width="1" x1="736" x2="1126" y1="390" y2="390" /><line opacity="0.1" stroke="#1A242D" stroke-width="1" x1="736" x2="1126" y1="414" y2="414" /><line opacity="0.1" stroke="#1A242D" stroke-width="1" x1="736" x2="1126" y1="438" y2="438" /><line opacity="0.1" stroke="#1A242D" stroke-width="1" x1="736" x2="1126" y1="462" y2="462" /><line opacity="0.1" stroke="#1A242D" stroke-width="1" x1="736" x2="1126" y1="486" y2="486" /><rect fill="#0F161D" height="26" rx="13" ry="13" stroke="#24303A" stroke-width="1" width="190" x="748" y="240" /><text fill="#FF9D9D" font-family="DejaVu Sans Mono" font-size="14" letter-spacing="1.4px" x="760" y="258">RISK REGISTRY</text><text fill="#9AA8B5" font-family="DejaVu Sans Mono" font-size="11" font-weight="700" letter-spacing="0.5px" x="750" y="276">#</text><text fill="#9AA8B5" font-family="DejaVu Sans Mono" font-size="11" font-weight="700" letter-spacing="0.5px" x="770" y="276">RISK ITEM</text><text fill="#9AA8B5" font-family="DejaVu Sans Mono" font-size="11" font-weight="700" letter-spacing="0.5px" x="1076" y="276">SEV</text><line stroke="#24303A" stroke-width="1" x1="744" x2="1118" y1="282" y2="282" /><text fill="#9AA8B5" font-family="DejaVu Sans Mono" font-size="11" font-weight="400" letter-spacing="0.4px" x="750" y="294">01</text><text fill="#EEF2F5" font-family="DejaVu Sans Mono" font-size="11" font-weight="400" letter-spacing="0.3px" x="770" y="294">auth bypass via state reset</text><text fill="#FF6B6B" font-family="DejaVu Sans Mono" font-size="11" font-weight="700" letter-spacing="0.5px" x="1078" y="294">CR</text><text fill="#9AA8B5" font-family="DejaVu Sans Mono" font-size="11" font-weight="400" letter-spacing="0.4px" x="750" y="313">02</text><text fill="#EEF2F5" font-family="DejaVu Sans Mono" font-size="11" font-weight="400" letter-spacing="0.3px" x="770" y="313">unencrypted local cache</text><text fill="#FFB347" font-family="DejaVu Sans Mono" font-size="11" font-weight="700" letter-spacing="0.5px" x="1078" y="313">HI</text><text fill="#9AA8B5" font-family="DejaVu Sans Mono" font-size="11" font-weight="400" letter-spacing="0.4px" x="750" y="332">03</text><text fill="#EEF2F5" font-family="DejaVu Sans Mono" font-size="11" font-weight="400" letter-spacing="0.3px" x="770" y="332">missing rate limit — login</text><text fill="#FFB347" font-family="DejaVu Sans Mono" font-size="11" font-weight="700" letter-spacing="0.5px" x="1078" y="332">HI</text><text fill="#9AA8B5" font-family="DejaVu Sans Mono" font-size="11" font-weight="400" letter-spacing="0.4px" x="750" y="351">04</text><text fill="#EEF2F5" font-family="DejaVu Sans Mono" font-size="11" font-weight="400" letter-spacing="0.3px" x="770" y="351">session leak on crash exit</text><text fill="#9DDFFF" font-family="DejaVu Sans Mono" font-size="11" font-weight="700" letter-spacing="0.5px" x="1078" y="351">ME</text><text fill="#9AA8B5" font-family="DejaVu Sans Mono" font-size="11" font-weight="400" letter-spacing="0.4px" x="750" y="370">05</text><rect fill="#24303A" height="13" rx="2" ry="2" width="180" x="770" y="360" /><text fill="#FF6B6B" font-family="DejaVu Sans Mono" font-size="10" font-weight="400" letter-spacing="0.5px" x="956" y="370">[REDACTED]</text><text fill="#FFB347" font-family="DejaVu Sans Mono" font-size="11" font-weight="700" letter-spacing="0.5px" x="1078" y="370">HI</text><text fill="#9AA8B5" font-family="DejaVu Sans Mono" font-size="11" font-weight="400" letter-spacing="0.4px" x="750" y="389">06</text><text fill="#EEF2F5" font-family="DejaVu Sans Mono" font-size="11" font-weight="400" letter-spacing="0.3px" x="770" y="389">log poisoning via user input</text><text fill="#9DDFFF" font-family="DejaVu Sans Mono" font-size="11" font-weight="700" letter-spacing="0.5px" x="1078" y="389">ME</text><text fill="#9AA8B5" font-family="DejaVu Sans Mono" font-size="11" font-weight="400" letter-spacing="0.4px" x="750" y="408">07</text><text fill="#EEF2F5" font-family="DejaVu Sans Mono" font-size="11" font-weight="400" letter-spacing="0.3px" x="770" y="408">CORS misconfiguration</text><text fill="#9AA8B5" font-family="DejaVu Sans Mono" font-size="11" font-weight="700" letter-spacing="0.5px" x="1078" y="408">LO</text><text fill="#9AA8B5" font-family="DejaVu Sans Mono" font-size="11" font-weight="400" letter-spacing="0.4px" x="750" y="427">08</text><rect fill="#24303A" height="13" rx="2" ry="2" width="180" x="770" y="417" /><text fill="#FF6B6B" font-family="DejaVu Sans Mono" font-size="10" font-weight="400" letter-spacing="0.5px" x="956" y="427">[REDACTED]</text><text fill="#FF6B6B" font-family="DejaVu Sans Mono" font-size="11" font-weight="700" letter-spacing="0.5px" x="1078" y="427">CR</text><text fill="#9AA8B5" font-family="DejaVu Sans Mono" font-size="11" font-weight="400" letter-spacing="0.4px" x="750" y="446">09</text><text fill="#EEF2F5" font-family="DejaVu Sans Mono" font-size="11" font-weight="400" letter-spacing="0.3px" x="770" y="446">improper key derivation</text><text fill="#FFB347" font-family="DejaVu Sans Mono" font-size="11" font-weight="700" letter-spacing="0.5px" x="1078" y="446">HI</text><text fill="#9AA8B5" font-family="DejaVu Sans Mono" font-size="11" font-weight="400" letter-spacing="0.4px" x="750" y="465">10</text><text fill="#EEF2F5" font-family="DejaVu Sans Mono" font-size="11" font-weight="400" letter-spacing="0.3px" x="770" y="465">missing CSP headers</text><text fill="#9DDFFF" font-family="DejaVu Sans Mono" font-size="11" font-weight="700" letter-spacing="0.5px" x="1078" y="465">ME</text><rect fill="#0A0F14" height="276" rx="14" ry="14" stroke="#24303A" stroke-width="1.6" width="410" x="1134" y="230" /><line opacity="0.1" stroke="#1A242D" stroke-width="1" x1="1142" x2="1142" y1="238" y2="498" /><line opacity="0.1" stroke="#1A242D" stroke-width="1" x1="1166" x2="1166" y1="238" y2="498" /><line opacity="0.1" stroke="#1A242D" stroke-width="1" x1="1190" x2="1190" y1="238" y2="498" /><line opacity="0.1" stroke="#1A242D" stroke-width="1" x1="1214" x2="1214" y1="238" y2="498" /><line opacity="0.1" stroke="#1A242D" stroke-width="1" x1="1238" x2="1238" y1="238" y2="498" /><line opacity="0.1" stroke="#1A242D" stroke-width="1" x1="1262" x2="1262" y1="238" y2="498" /><line opacity="0.1" stroke="#1A242D" stroke-width="1" x1="1286" x2="1286" y1="238" y2="498" /><line opacity="0.1" stroke="#1A242D" stroke-width="1" x1="1310" x2="1310" y1="238" y2="498" /><line opacity="0.1" stroke="#1A242D" stroke-width="1" x1="1334" x2="1334" y1="238" y2="498" /><line opacity="0.1" stroke="#1A242D" stroke-width="1" x1="1358" x2="1358" y1="238" y2="498" /><line opacity="0.1" stroke="#1A242D" stroke-width="1" x1="1382" x2="1382" y1="238" y2="498" /><line opacity="0.1" stroke="#1A242D" stroke-width="1" x1="1406" x2="1406" y1="238" y2="498" /><line opacity="0.1" stroke="#1A242D" stroke-width="1" x1="1430" x2="1430" y1="238" y2="498" /><line opacity="0.1" stroke="#1A242D" stroke-width="1" x1="1454" x2="1454" y1="238" y2="498" /><line opacity="0.1" stroke="#1A242D" stroke-width="1" x1="1478" x2="1478" y1="238" y2="498" /><line opacity="0.1" stroke="#1A242D" stroke-width="1" x1="1502" x2="1502" y1="238" y2="498" /><line opacity="0.1" stroke="#1A242D" stroke-width="1" x1="1526" x2="1526" y1="238" y2="498" /><line opacity="0.1" stroke="#1A242D" stroke-width="1" x1="1134" x2="1544" y1="246" y2="246" /><line opacity="0.1" stroke="#1A242D" stroke-width="1" x1="1134" x2="1544" y1="270" y2="270" /><line opacity="0.1" stroke="#1A242D" stroke-width="1" x1="1134" x2="1544" y1="294" y2="294" /><line opacity="0.1" stroke="#1A242D" stroke-width="1" x1="1134" x2="1544" y1="318" y2="318" /><line opacity="0.1" stroke="#1A242D" stroke-width="1" x1="1134" x2="1544" y1="342" y2="342" /><line opacity="0.1" stroke="#1A242D" stroke-width="1" x1="1134" x2="1544" y1="366" y2="366" /><line opacity="0.1" stroke="#1A242D" stroke-width="1" x1="1134" x2="1544" y1="390" y2="390" /><line opacity="0.1" stroke="#1A242D" stroke-width="1" x1="1134" x2="1544" y1="414" y2="414" /><line opacity="0.1" stroke="#1A242D" stroke-width="1" x1="1134" x2="1544" y1="438" y2="438" /><line opacity="0.1" stroke="#1A242D" stroke-width="1" x1="1134" x2="1544" y1="462" y2="462" /><line opacity="0.1" stroke="#1A242D" stroke-width="1" x1="1134" x2="1544" y1="486" y2="486" /><rect fill="#0F161D" height="26" rx="13" ry="13" stroke="#24303A" stroke-width="1" width="272" x="1146" y="240" /><text fill="#FFB347" font-family="DejaVu Sans Mono" font-size="14" letter-spacing="1.4px" x="1158" y="258">BOUNDARY VIOLATIONS</text><text fill="#9DDFFF" font-family="DejaVu Sans Mono" font-size="11" font-weight="700" letter-spacing="0.5px" x="1148" y="282">BV-001</text><text fill="#EEF2F5" font-family="DejaVu Sans Mono" font-size="11" font-weight="400" letter-spacing="0.3px" x="1224" y="282">cloud sync active by default</text><text fill="#9DDFFF" font-family="DejaVu Sans Mono" font-size="11" font-weight="700" letter-spacing="0.5px" x="1148" y="308">BV-002</text><text fill="#EEF2F5" font-family="DejaVu Sans Mono" font-size="11" font-weight="400" letter-spacing="0.3px" x="1224" y="308">telemetry without consent gate</text><text fill="#9DDFFF" font-family="DejaVu Sans Mono" font-size="11" font-weight="700" letter-spacing="0.5px" x="1148" y="334">BV-003</text><rect fill="#24303A" height="13" rx="2" ry="2" width="200" x="1224" y="324" /><text fill="#FFB347" font-family="DejaVu Sans Mono" font-size="10" font-weight="400" letter-spacing="0.4px" x="1430" y="334">[SCOPE-LOCKED]</text><text fill="#9DDFFF" font-family="DejaVu Sans Mono" font-size="11" font-weight="700" letter-spacing="0.5px" x="1148" y="360">BV-004</text><text fill="#EEF2F5" font-family="DejaVu Sans Mono" font-size="11" font-weight="400" letter-spacing="0.3px" x="1224" y="360">external API call at start</text><text fill="#9DDFFF" font-family="DejaVu Sans Mono" font-size="11" font-weight="700" letter-spacing="0.5px" x="1148" y="386">BV-005</text><text fill="#EEF2F5" font-family="DejaVu Sans Mono" font-size="11" font-weight="400" letter-spacing="0.3px" x="1224" y="386">auth token exposed in URL param</text><text fill="#9DDFFF" font-family="DejaVu Sans Mono" font-size="11" font-weight="700" letter-spacing="0.5px" x="1148" y="412">BV-006</text><rect fill="#24303A" height="13" rx="2" ry="2" width="200" x="1224" y="402" /><text fill="#FFB347" font-family="DejaVu Sans Mono" font-size="10" font-weight="400" letter-spacing="0.4px" x="1430" y="412">[SCOPE-LOCKED]</text><text fill="#9DDFFF" font-family="DejaVu Sans Mono" font-size="11" font-weight="700" letter-spacing="0.5px" x="1148" y="438">BV-007</text><text fill="#EEF2F5" font-family="DejaVu Sans Mono" font-size="11" font-weight="400" letter-spacing="0.3px" x="1224" y="438">third-party lib phoning home</text><text fill="#9DDFFF" font-family="DejaVu Sans Mono" font-size="11" font-weight="700" letter-spacing="0.5px" x="1148" y="464">BV-008</text><text fill="#EEF2F5" font-family="DejaVu Sans Mono" font-size="11" font-weight="400" letter-spacing="0.3px" x="1224" y="464">no data-at-rest classification</text><rect fill="#0A0F14" height="276" rx="14" ry="14" stroke="#24303A" stroke-width="1.6" width="390" x="736" y="514" /><line opacity="0.1" stroke="#1A242D" stroke-width="1" x1="744" x2="744" y1="522" y2="782" /><line opacity="0.1" stroke="#1A242D" stroke-width="1" x1="768" x2="768" y1="522" y2="782" /><line opacity="0.1" stroke="#1A242D" stroke-width="1" x1="792" x2="792" y1="522" y2="782" /><line opacity="0.1" stroke="#1A242D" stroke-width="1" x1="816" x2="816" y1="522" y2="782" /><line opacity="0.1" stroke="#1A242D" stroke-width="1" x1="840" x2="840" y1="522" y2="782" /><line opacity="0.1" stroke="#1A242D" stroke-width="1" x1="864" x2="864" y1="522" y2="782" /><line opacity="0.1" stroke="#1A242D" stroke-width="1" x1="888" x2="888" y1="522" y2="782" /><line opacity="0.1" stroke="#1A242D" stroke-width="1" x1="912" x2="912" y1="522" y2="782" /><line opacity="0.1" stroke="#1A242D" stroke-width="1" x1="936" x2="936" y1="522" y2="782" /><line opacity="0.1" stroke="#1A242D" stroke-width="1" x1="960" x2="960" y1="522" y2="782" /><line opacity="0.1" stroke="#1A242D" stroke-width="1" x1="984" x2="984" y1="522" y2="782" /><line opacity="0.1" stroke="#1A242D" stroke-width="1" x1="1008" x2="1008" y1="522" y2="782" /><line opacity="0.1" stroke="#1A242D" stroke-width="1" x1="1032" x2="1032" y1="522" y2="782" /><line opacity="0.1" stroke="#1A242D" stroke-width="1" x1="1056" x2="1056" y1="522" y2="782" /><line opacity="0.1" stroke="#1A242D" stroke-width="1" x1="1080" x2="1080" y1="522" y2="782" /><line opacity="0.1" stroke="#1A242D" stroke-width="1" x1="1104" x2="1104" y1="522" y2="782" /><line opacity="0.1" stroke="#1A242D" stroke-width="1" x1="736" x2="1126" y1="530" y2="530" /><line opacity="0.1" stroke="#1A242D" stroke-width="1" x1="736" x2="1126" y1="554" y2="554" /><line opacity="0.1" stroke="#1A242D" stroke-width="1" x1="736" x2="1126" y1="578" y2="578" /><line opacity="0.1" stroke="#1A242D" stroke-width="1" x1="736" x2="1126" y1="602" y2="602" /><line opacity="0.1" stroke="#1A242D" stroke-width="1" x1="736" x2="1126" y1="626" y2="626" /><line opacity="0.1" stroke="#1A242D" stroke-width="1" x1="736" x2="1126" y1="650" y2="650" /><line opacity="0.1" stroke="#1A242D" stroke-width="1" x1="736" x2="1126" y1="674" y2="674" /><line opacity="0.1" stroke="#1A242D" stroke-width="1" x1="736" x2="1126" y1="698" y2="698" /><line opacity="0.1" stroke="#1A242D" stroke-width="1" x1="736" x2="1126" y1="722" y2="722" /><line opacity="0.1" stroke="#1A242D" stroke-width="1" x1="736" x2="1126" y1="746" y2="746" /><line opacity="0.1" stroke="#1A242D" stroke-width="1" x1="736" x2="1126" y1="770" y2="770" /><rect fill="#0F161D" height="26" rx="13" ry="13" stroke="#24303A" stroke-width="1" width="186" x="748" y="524" /><text fill="#D2F1FF" font-family="DejaVu Sans Mono" font-size="14" letter-spacing="1.4px" x="760" y="542">FAILURE MODES</text><text fill="#FF6B6B" font-family="DejaVu Sans Mono" font-size="12" font-weight="700" letter-spacing="0.8px" x="750" y="560">CLASS A: DATA LOSS</text><text fill="#9AA8B5" font-family="DejaVu Sans Mono" font-size="11" font-weight="400" letter-spacing="0.3px" x="760" y="576">· crash-on-write pattern</text><text fill="#9AA8B5" font-family="DejaVu Sans Mono" font-size="11" font-weight="400" letter-spacing="0.3px" x="760" y="592">· no write confirmation</text><text fill="#9AA8B5" font-family="DejaVu Sans Mono" font-size="11" font-weight="400" letter-spacing="0.3px" x="760" y="608">· partial-flush edge case</text><text fill="#FFB347" font-family="DejaVu Sans Mono" font-size="12" font-weight="700" letter-spacing="0.8px" x="750" y="630">CLASS B: TRUST VIOLATION</text><text fill="#9AA8B5" font-family="DejaVu Sans Mono" font-size="11" font-weight="400" letter-spacing="0.3px" x="760" y="646">· undisclosed dependency</text><text fill="#9AA8B5" font-family="DejaVu Sans Mono" font-size="11" font-weight="400" letter-spacing="0.3px" x="760" y="662">· silent data export</text><rect fill="#24303A" height="12" rx="2" ry="2" width="120" x="760" y="669" /><text fill="#9DDFFF" font-family="DejaVu Sans Mono" font-size="12" font-weight="700" letter-spacing="0.8px" x="750" y="700">CLASS C: RECOVERY FAILURE</text><text fill="#9AA8B5" font-family="DejaVu Sans Mono" font-size="11" font-weight="400" letter-spacing="0.3px" x="760" y="716">· no offline fallback</text><text fill="#9AA8B5" font-family="DejaVu Sans Mono" font-size="11" font-weight="400" letter-spacing="0.3px" x="760" y="732">· stale-state reboot</text><rect fill="#24303A" height="12" rx="2" ry="2" width="120" x="760" y="739" /><rect fill="#0A0F14" height="276" rx="14" ry="14" stroke="#24303A" stroke-width="1.6" width="410" x="1134" y="514" /><line opacity="0.1" stroke="#1A242D" stroke-width="1" x1="1142" x2="1142" y1="522" y2="782" /><line opacity="0.1" stroke="#1A242D" stroke-width="1" x1="1166" x2="1166" y1="522" y2="782" /><line opacity="0.1" stroke="#1A242D" stroke-width="1" x1="1190" x2="1190" y1="522" y2="782" /><line opacity="0.1" stroke="#1A242D" stroke-width="1" x1="1214" x2="1214" y1="522" y2="782" /><line opacity="0.1" stroke="#1A242D" stroke-width="1" x1="1238" x2="1238" y1="522" y2="782" /><line opacity="0.1" stroke="#1A242D" stroke-width="1" x1="1262" x2="1262" y1="522" y2="782" /><line opacity="0.1" stroke="#1A242D" stroke-width="1" x1="1286" x2="1286" y1="522" y2="782" /><line opacity="0.1" stroke="#1A242D" stroke-width="1" x1="1310" x2="1310" y1="522" y2="782" /><line opacity="0.1" stroke="#1A242D" stroke-width="1" x1="1334" x2="1334" y1="522" y2="782" /><line opacity="0.1" stroke="#1A242D" stroke-width="1" x1="1358" x2="1358" y1="522" y2="782" /><line opacity="0.1" stroke="#1A242D" stroke-width="1" x1="1382" x2="1382" y1="522" y2="782" /><line opacity="0.1" stroke="#1A242D" stroke-width="1" x1="1406" x2="1406" y1="522" y2="782" /><line opacity="0.1" stroke="#1A242D" stroke-width="1" x1="1430" x2="1430" y1="522" y2="782" /><line opacity="0.1" stroke="#1A242D" stroke-width="1" x1="1454" x2="1454" y1="522" y2="782" /><line opacity="0.1" stroke="#1A242D" stroke-width="1" x1="1478" x2="1478" y1="522" y2="782" /><line opacity="0.1" stroke="#1A242D" stroke-width="1" x1="1502" x2="1502" y1="522" y2="782" /><line opacity="0.1" stroke="#1A242D" stroke-width="1" x1="1526" x2="1526" y1="522" y2="782" /><line opacity="0.1" stroke="#1A242D" stroke-width="1" x1="1134" x2="1544" y1="530" y2="530" /><line opacity="0.1" stroke="#1A242D" stroke-width="1" x1="1134" x2="1544" y1="554" y2="554" /><line opacity="0.1" stroke="#1A242D" stroke-width="1" x1="1134" x2="1544" y1="578" y2="578" /><line opacity="0.1" stroke="#1A242D" stroke-width="1" x1="1134" x2="1544" y1="602" y2="602" /><line opacity="0.1" stroke="#1A242D" stroke-width="1" x1="1134" x2="1544" y1="626" y2="626" /><line opacity="0.1" stroke="#1A242D" stroke-width="1" x1="1134" x2="1544" y1="650" y2="650" /><line opacity="0.1" stroke="#1A242D" stroke-width="1" x1="1134" x2="1544" y1="674" y2="674" /><line opacity="0.1" stroke="#1A242D" stroke-width="1" x1="1134" x2="1544" y1="698" y2="698" /><line opacity="0.1" stroke="#1A242D" stroke-width="1" x1="1134" x2="1544" y1="722" y2="722" /><line opacity="0.1" stroke="#1A242D" stroke-width="1" x1="1134" x2="1544" y1="746" y2="746" /><line opacity="0.1" stroke="#1A242D" stroke-width="1" x1="1134" x2="1544" y1="770" y2="770" /><rect fill="#0F161D" height="26" rx="13" ry="13" stroke="#24303A" stroke-width="1" width="268" x="1146" y="524" /><text fill="#9DDFFF" font-family="DejaVu Sans Mono" font-size="14" letter-spacing="1.4px" x="1158" y="542">MITIGATION PRIORITY</text><text fill="#FF6B6B" font-family="DejaVu Sans Mono" font-size="13" font-weight="700" letter-spacing="1.2px" x="1148" y="562">NOW</text><line stroke="#FF6B6B" stroke-width="1.2" opacity="0.6" x1="1148" x2="1270" y1="568" y2="568" /><text fill="#FFB347" font-family="DejaVu Sans Mono" font-size="13" font-weight="700" letter-spacing="1.2px" x="1276" y="562">NEXT</text><line stroke="#FFB347" stroke-width="1.2" opacity="0.6" x1="1276" x2="1398" y1="568" y2="568" /><text fill="#9DDFFF" font-family="DejaVu Sans Mono" font-size="13" font-weight="700" letter-spacing="1.2px" x="1404" y="562">LATER</text><line stroke="#9DDFFF" stroke-width="1.2" opacity="0.6" x1="1404" x2="1526" y1="568" y2="568" /><rect fill="#0C1218" height="26" rx="4" ry="4" stroke="#24303A" stroke-width="1" width="122" x="1148" y="570" /><text fill="#EEF2F5" font-family="DejaVu Sans Mono" font-size="11" letter-spacing="0.3px" x="1154" y="587">auth fix</text><rect fill="#0C1218" height="26" rx="4" ry="4" stroke="#24303A" stroke-width="1" width="122" x="1276" y="570" /><text fill="#EEF2F5" font-family="DejaVu Sans Mono" font-size="11" letter-spacing="0.3px" x="1282" y="587">cache encrypt</text><rect fill="#0C1218" height="26" rx="4" ry="4" stroke="#24303A" stroke-width="1" width="122" x="1404" y="570" /><text fill="#EEF2F5" font-family="DejaVu Sans Mono" font-size="11" letter-spacing="0.3px" x="1410" y="587">CSP headers</text><rect fill="#0C1218" height="26" rx="4" ry="4" stroke="#24303A" stroke-width="1" width="122" x="1148" y="606" /><text fill="#EEF2F5" font-family="DejaVu Sans Mono" font-size="11" letter-spacing="0.3px" x="1154" y="623">rate limiter</text><rect fill="#0C1218" height="26" rx="4" ry="4" stroke="#24303A" stroke-width="1" width="122" x="1276" y="606" /><text fill="#EEF2F5" font-family="DejaVu Sans Mono" font-size="11" letter-spacing="0.3px" x="1282" y="623">CORS review</text><rect fill="#0C1218" height="26" rx="4" ry="4" stroke="#24303A" stroke-width="1" width="122" x="1404" y="606" /><text fill="#EEF2F5" font-family="DejaVu Sans Mono" font-size="11" letter-spacing="0.3px" x="1410" y="623">dep audit</text><rect fill="#0C1218" height="26" rx="4" ry="4" stroke="#24303A" stroke-width="1" width="122" x="1148" y="642" /><text fill="#EEF2F5" font-family="DejaVu Sans Mono" font-size="11" letter-spacing="0.3px" x="1154" y="659">key hardening</text><rect fill="#0C1218" height="26" rx="4" ry="4" stroke="#24303A" stroke-width="1" width="122" x="1276" y="642" /><text fill="#EEF2F5" font-family="DejaVu Sans Mono" font-size="11" letter-spacing="0.3px" x="1282" y="659">log sanitize</text><rect fill="#0C1218" height="26" rx="4" ry="4" stroke="#24303A" stroke-width="1" width="122" x="1404" y="642" /><text fill="#EEF2F5" font-family="DejaVu Sans Mono" font-size="11" letter-spacing="0.3px" x="1410" y="659">scope review</text><rect fill="#24303A" height="13" rx="2" ry="2" width="90" x="1148" y="682" /><rect fill="#0C1218" height="26" rx="4" ry="4" stroke="#24303A" stroke-width="1" width="122" x="1276" y="678" /><text fill="#EEF2F5" font-family="DejaVu Sans Mono" font-size="11" letter-spacing="0.3px" x="1282" y="695">TLS pinning</text><rect fill="#0C1218" height="26" rx="4" ry="4" stroke="#24303A" stroke-width="1" width="122" x="1404" y="678" /><text fill="#9AA8B5" font-family="DejaVu Sans Mono" font-size="11" letter-spacing="0.3px" x="1410" y="695">[3 deferred]</text><rect fill="#0C1218" height="26" rx="4" ry="4" stroke="#24303A" stroke-width="1" width="122" x="1148" y="714" /><text fill="#EEF2F5" font-family="DejaVu Sans Mono" font-size="11" letter-spacing="0.3px" x="1154" y="731">crash guard</text><rect fill="#24303A" height="13" rx="2" ry="2" width="90" x="1276" y="718" /><rect fill="#0C1218" height="26" rx="4" ry="4" stroke="#24303A" stroke-width="1" width="122" x="1404" y="714" /><text fill="#EEF2F5" font-family="DejaVu Sans Mono" font-size="11" letter-spacing="0.3px" x="1410" y="731">policy docs</text><text fill="#9AA8B5" font-family="DejaVu Sans Mono" font-size="16" font-weight="400" letter-spacing="1.5px" x="72" y="846">CRISISCORE-SYSTEMS / PROTECTIVE COMPUTING</text><text fill="#9AA8B5" font-family="DejaVu Sans Mono" font-size="16" font-weight="400" letter-spacing="1.5px" text-anchor="end" x="1528" y="846">field brief, not agency tile</text></svg>