<svg baseProfile="full" height="900" version="1.1" viewBox="0,0,1600,900" width="1600" xmlns="http://www.w3.org/2000/svg" xmlns:ev="http://www.w3.org/2001/xml-events" xmlns:xlink="http://www.w3.org/1999/xlink"><defs /><rect fill="#05080C" height="900" width="1600" x="0" y="0" /><rect fill="none" height="836" stroke="#24303A" stroke-width="1.5" width="1536" x="32" y="32" /><line stroke="#1A242D" stroke-width="1" x1="32" x2="1568" y1="96" y2="96" /><line stroke="#1A242D" stroke-width="1" x1="32" x2="1568" y1="804" y2="804" /><text fill="#9AA8B5" font-family="DejaVu Sans Mono" font-size="18" font-weight="400" letter-spacing="2px" x="72" y="70">BLACKPAPER RESEARCH</text><text fill="#9DDFFF" font-family="DejaVu Sans Mono" font-size="18" font-weight="400" letter-spacing="2px" text-anchor="end" x="1528" y="70">OFFER PANEL</text><text fill="#EEF2F5" font-family="DejaVu Sans" font-size="40" font-weight="700" x="72" y="150">Trust Hardening Review</text><text fill="#9AA8B5" font-family="DejaVu Sans" font-size="20" x="72" y="185">process diagram / offer panel</text><rect fill="#0A0F14" height="560" rx="14" ry="14" stroke="#24303A" stroke-width="1.6" width="620" x="72" y="230" /><line opacity="0.1" stroke="#1A242D" stroke-width="1" x1="80" x2="80" y1="238" y2="782" /><line opacity="0.1" stroke="#1A242D" stroke-width="1" x1="104" x2="104" y1="238" y2="782" /><line opacity="0.1" stroke="#1A242D" stroke-width="1" x1="128" x2="128" y1="238" y2="782" /><line opacity="0.1" stroke="#1A242D" stroke-width="1" x1="152" x2="152" y1="238" y2="782" /><line opacity="0.1" stroke="#1A242D" stroke-width="1" x1="176" x2="176" y1="238" y2="782" /><line opacity="0.1" stroke="#1A242D" stroke-width="1" x1="200" x2="200" y1="238" y2="782" /><line opacity="0.1" stroke="#1A242D" stroke-width="1" x1="224" x2="224" y1="238" y2="782" /><line opacity="0.1" stroke="#1A242D" stroke-width="1" x1="248" x2="248" y1="238" y2="782" /><line opacity="0.1" stroke="#1A242D" stroke-width="1" x1="272" x2="272" y1="238" y2="782" /><line opacity="0.1" stroke="#1A242D" stroke-width="1" x1="296" x2="296" y1="238" y2="782" /><line opacity="0.1" stroke="#1A242D" stroke-width="1" x1="320" x2="320" y1="238" y2="782" /><line opacity="0.1" stroke="#1A242D" stroke-width="1" x1="344" x2="344" y1="238" y2="782" /><line opacity="0.1" stroke="#1A242D" stroke-width="1" x1="368" x2="368" y1="238" y2="782" /><line opacity="0.1" stroke="#1A242D" stroke-width="1" x1="392" x2="392" y1="238" y2="782" /><line opacity="0.1" stroke="#1A242D" stroke-width="1" x1="416" x2="416" y1="238" y2="782" /><line opacity="0.1" stroke="#1A242D" stroke-width="1" x1="440" x2="440" y1="238" y2="782" /><line opacity="0.1" stroke="#1A242D" stroke-width="1" x1="464" x2="464" y1="238" y2="782" /><line opacity="0.1" stroke="#1A242D" stroke-width="1" x1="488" x2="488" y1="238" y2="782" /><line opacity="0.1" stroke="#1A242D" stroke-width="1" x1="512" x2="512" y1="238" y2="782" /><line opacity="0.1" stroke="#1A242D" stroke-width="1" x1="536" x2="536" y1="238" y2="782" /><line opacity="0.1" stroke="#1A242D" stroke-width="1" x1="560" x2="560" y1="238" y2="782" /><line opacity="0.1" stroke="#1A242D" stroke-width="1" x1="584" x2="584" y1="238" y2="782" /><line opacity="0.1" stroke="#1A242D" stroke-width="1" x1="608" x2="608" y1="238" y2="782" /><line opacity="0.1" stroke="#1A242D" stroke-width="1" x1="632" x2="632" y1="238" y2="782" /><line opacity="0.1" stroke="#1A242D" stroke-width="1" x1="656" x2="656" y1="238" y2="782" /><line opacity="0.1" stroke="#1A242D" stroke-width="1" x1="680" x2="680" y1="238" y2="782" /><line opacity="0.1" stroke="#1A242D" stroke-width="1" x1="72" x2="692" y1="246" y2="246" /><line opacity="0.1" stroke="#1A242D" stroke-width="1" x1="72" x2="692" y1="270" y2="270" /><line opacity="0.1" stroke="#1A242D" stroke-width="1" x1="72" x2="692" y1="294" y2="294" /><line opacity="0.1" stroke="#1A242D" stroke-width="1" x1="72" x2="692" y1="318" y2="318" /><line opacity="0.1" stroke="#1A242D" stroke-width="1" x1="72" x2="692" y1="342" y2="342" /><line opacity="0.1" stroke="#1A242D" stroke-width="1" x1="72" x2="692" y1="366" y2="366" /><line opacity="0.1" stroke="#1A242D" stroke-width="1" x1="72" x2="692" y1="390" y2="390" /><line opacity="0.1" stroke="#1A242D" stroke-width="1" x1="72" x2="692" y1="414" y2="414" /><line opacity="0.1" stroke="#1A242D" stroke-width="1" x1="72" x2="692" y1="438" y2="438" /><line opacity="0.1" stroke="#1A242D" stroke-width="1" x1="72" x2="692" y1="462" y2="462" /><line opacity="0.1" stroke="#1A242D" stroke-width="1" x1="72" x2="692" y1="486" y2="486" /><line opacity="0.1" stroke="#1A242D" stroke-width="1" x1="72" x2="692" y1="510" y2="510" /><line opacity="0.1" stroke="#1A242D" stroke-width="1" x1="72" x2="692" y1="534" y2="534" /><line opacity="0.1" stroke="#1A242D" stroke-width="1" x1="72" x2="692" y1="558" y2="558" /><line opacity="0.1" stroke="#1A242D" stroke-width="1" x1="72" x2="692" y1="582" y2="582" /><line opacity="0.1" stroke="#1A242D" stroke-width="1" x1="72" x2="692" y1="606" y2="606" /><line opacity="0.1" stroke="#1A242D" stroke-width="1" x1="72" x2="692" y1="630" y2="630" /><line opacity="0.1" stroke="#1A242D" stroke-width="1" x1="72" x2="692" y1="654" y2="654" /><line opacity="0.1" stroke="#1A242D" stroke-width="1" x1="72" x2="692" y1="678" y2="678" /><line opacity="0.1" stroke="#1A242D" stroke-width="1" x1="72" x2="692" y1="702" y2="702" /><line opacity="0.1" stroke="#1A242D" stroke-width="1" x1="72" x2="692" y1="726" y2="726" /><line opacity="0.1" stroke="#1A242D" stroke-width="1" x1="72" x2="692" y1="750" y2="750" /><rect fill="#0F161D" height="26" rx="13" ry="13" stroke="#24303A" stroke-width="1" width="220" x="90" y="242" /><text fill="#D2F1FF" font-family="DejaVu Sans Mono" font-size="14" letter-spacing="1.4px" x="102" y="260">WHAT YOU BRING</text><text fill="#EEF2F5" font-family="DejaVu Sans" font-size="38" font-weight="700" x="96" y="312">Trust Hardening Review</text><text fill="#9AA8B5" font-family="DejaVu Sans" font-size="22" x="96" y="362">fixed-scope diagnostic for teams</text><text fill="#9AA8B5" font-family="DejaVu Sans" font-size="22" x="96" y="390">that cannot afford trust failure</text><circle cx="96" cy="457" fill="#9DDFFF" r="3.5" /><text fill="#EEF2F5" font-family="DejaVu Sans" font-size="26" x="112" y="463">codebase + constraints</text><circle cx="96" cy="527" fill="#9DDFFF" r="3.5" /><text fill="#EEF2F5" font-family="DejaVu Sans" font-size="26" x="112" y="533">trust surface map</text><circle cx="96" cy="597" fill="#9DDFFF" r="3.5" /><text fill="#EEF2F5" font-family="DejaVu Sans" font-size="26" x="112" y="603">known failure assumptions</text><circle cx="96" cy="667" fill="#9DDFFF" r="3.5" /><text fill="#EEF2F5" font-family="DejaVu Sans" font-size="26" x="112" y="673">abuse cases + edge conditions</text><rect fill="#0A0F14" height="138" rx="14" ry="14" stroke="#24303A" stroke-width="1.6" width="820" x="740" y="238" /><line opacity="0.1" stroke="#1A242D" stroke-width="1" x1="748" x2="748" y1="246" y2="368" /><line opacity="0.1" stroke="#1A242D" stroke-width="1" x1="772" x2="772" y1="246" y2="368" /><line opacity="0.1" stroke="#1A242D" stroke-width="1" x1="796" x2="796" y1="246" y2="368" /><line opacity="0.1" stroke="#1A242D" stroke-width="1" x1="820" x2="820" y1="246" y2="368" /><line opacity="0.1" stroke="#1A242D" stroke-width="1" x1="844" x2="844" y1="246" y2="368" /><line opacity="0.1" stroke="#1A242D" stroke-width="1" x1="868" x2="868" y1="246" y2="368" /><line opacity="0.1" stroke="#1A242D" stroke-width="1" x1="892" x2="892" y1="246" y2="368" /><line opacity="0.1" stroke="#1A242D" stroke-width="1" x1="916" x2="916" y1="246" y2="368" /><line opacity="0.1" stroke="#1A242D" stroke-width="1" x1="940" x2="940" y1="246" y2="368" /><line opacity="0.1" stroke="#1A242D" stroke-width="1" x1="964" x2="964" y1="246" y2="368" /><line opacity="0.1" stroke="#1A242D" stroke-width="1" x1="988" x2="988" y1="246" y2="368" /><line opacity="0.1" stroke="#1A242D" stroke-width="1" x1="1012" x2="1012" y1="246" y2="368" /><line opacity="0.1" stroke="#1A242D" stroke-width="1" x1="1036" x2="1036" y1="246" y2="368" /><line opacity="0.1" stroke="#1A242D" stroke-width="1" x1="1060" x2="1060" y1="246" y2="368" /><line opacity="0.1" stroke="#1A242D" stroke-width="1" x1="1084" x2="1084" y1="246" y2="368" /><line opacity="0.1" stroke="#1A242D" stroke-width="1" x1="1108" x2="1108" y1="246" y2="368" /><line opacity="0.1" stroke="#1A242D" stroke-width="1" x1="1132" x2="1132" y1="246" y2="368" /><line opacity="0.1" stroke="#1A242D" stroke-width="1" x1="1156" x2="1156" y1="246" y2="368" /><line opacity="0.1" stroke="#1A242D" stroke-width="1" x1="1180" x2="1180" y1="246" y2="368" /><line opacity="0.1" stroke="#1A242D" stroke-width="1" x1="1204" x2="1204" y1="246" y2="368" /><line opacity="0.1" stroke="#1A242D" stroke-width="1" x1="1228" x2="1228" y1="246" y2="368" /><line opacity="0.1" stroke="#1A242D" stroke-width="1" x1="1252" x2="1252" y1="246" y2="368" /><line opacity="0.1" stroke="#1A242D" stroke-width="1" x1="1276" x2="1276" y1="246" y2="368" /><line opacity="0.1" stroke="#1A242D" stroke-width="1" x1="1300" x2="1300" y1="246" y2="368" /><line opacity="0.1" stroke="#1A242D" stroke-width="1" x1="1324" x2="1324" y1="246" y2="368" /><line opacity="0.1" stroke="#1A242D" stroke-width="1" x1="1348" x2="1348" y1="246" y2="368" /><line opacity="0.1" stroke="#1A242D" stroke-width="1" x1="1372" x2="1372" y1="246" y2="368" /><line opacity="0.1" stroke="#1A242D" stroke-width="1" x1="1396" x2="1396" y1="246" y2="368" /><line opacity="0.1" stroke="#1A242D" stroke-width="1" x1="1420" x2="1420" y1="246" y2="368" /><line opacity="0.1" stroke="#1A242D" stroke-width="1" x1="1444" x2="1444" y1="246" y2="368" /><line opacity="0.1" stroke="#1A242D" stroke-width="1" x1="1468" x2="1468" y1="246" y2="368" /><line opacity="0.1" stroke="#1A242D" stroke-width="1" x1="1492" x2="1492" y1="246" y2="368" /><line opacity="0.1" stroke="#1A242D" stroke-width="1" x1="1516" x2="1516" y1="246" y2="368" /><line opacity="0.1" stroke="#1A242D" stroke-width="1" x1="1540" x2="1540" y1="246" y2="368" /><line opacity="0.1" stroke="#1A242D" stroke-width="1" x1="740" x2="1560" y1="254" y2="254" /><line opacity="0.1" stroke="#1A242D" stroke-width="1" x1="740" x2="1560" y1="278" y2="278" /><line opacity="0.1" stroke="#1A242D" stroke-width="1" x1="740" x2="1560" y1="302" y2="302" /><line opacity="0.1" stroke="#1A242D" stroke-width="1" x1="740" x2="1560" y1="326" y2="326" /><line opacity="0.1" stroke="#1A242D" stroke-width="1" x1="740" x2="1560" y1="350" y2="350" /><rect fill="#0F161D" height="26" rx="13" ry="13" stroke="#24303A" stroke-width="1" width="90" x="758" y="250" /><text fill="#9DDFFF" font-family="DejaVu Sans Mono" font-size="14" letter-spacing="1.4px" x="770" y="268">INPUT</text><rect fill="#0C1218" height="22" rx="11" ry="11" stroke="#9DDFFF" stroke-width="1" width="108" x="760" y="290" /><text fill="#9DDFFF" font-family="DejaVu Sans Mono" font-size="12" letter-spacing="1px" x="770" y="305">codebase</text><rect fill="#0C1218" height="22" rx="11" ry="11" stroke="#9DDFFF" stroke-width="1" width="138" x="884" y="290" /><text fill="#9DDFFF" font-family="DejaVu Sans Mono" font-size="12" letter-spacing="1px" x="894" y="305">constraints</text><rect fill="#0C1218" height="22" rx="11" ry="11" stroke="#D2F1FF" stroke-width="1" width="178" x="1038" y="290" /><text fill="#D2F1FF" font-family="DejaVu Sans Mono" font-size="12" letter-spacing="1px" x="1048" y="305">user conditions</text><rect fill="#0C1218" height="22" rx="11" ry="11" stroke="#24303A" stroke-width="1" width="168" x="760" y="320" /><text fill="#9AA8B5" font-family="DejaVu Sans Mono" font-size="12" letter-spacing="1px" x="770" y="335">threat surface</text><rect fill="#0C1218" height="22" rx="11" ry="11" stroke="#24303A" stroke-width="1" width="188" x="944" y="320" /><text fill="#9AA8B5" font-family="DejaVu Sans Mono" font-size="12" letter-spacing="1px" x="954" y="335">trust boundaries</text><rect fill="#0C1218" height="22" rx="11" ry="11" stroke="#24303A" stroke-width="1" width="178" x="1148" y="320" /><text fill="#9AA8B5" font-family="DejaVu Sans Mono" font-size="12" letter-spacing="1px" x="1158" y="335">edge conditions</text><line stroke="#9DDFFF" stroke-width="1.6" x1="1150" x2="1150" y1="376" y2="404" /><polygon fill="#9DDFFF" points="1150,418 1142,406 1158,406" /><rect fill="#0A0F14" height="238" rx="14" ry="14" stroke="#24303A" stroke-width="1.6" width="820" x="740" y="420" /><line opacity="0.1" stroke="#1A242D" stroke-width="1" x1="748" x2="748" y1="428" y2="650" /><line opacity="0.1" stroke="#1A242D" stroke-width="1" x1="772" x2="772" y1="428" y2="650" /><line opacity="0.1" stroke="#1A242D" stroke-width="1" x1="796" x2="796" y1="428" y2="650" /><line opacity="0.1" stroke="#1A242D" stroke-width="1" x1="820" x2="820" y1="428" y2="650" /><line opacity="0.1" stroke="#1A242D" stroke-width="1" x1="844" x2="844" y1="428" y2="650" /><line opacity="0.1" stroke="#1A242D" stroke-width="1" x1="868" x2="868" y1="428" y2="650" /><line opacity="0.1" stroke="#1A242D" stroke-width="1" x1="892" x2="892" y1="428" y2="650" /><line opacity="0.1" stroke="#1A242D" stroke-width="1" x1="916" x2="916" y1="428" y2="650" /><line opacity="0.1" stroke="#1A242D" stroke-width="1" x1="940" x2="940" y1="428" y2="650" /><line opacity="0.1" stroke="#1A242D" stroke-width="1" x1="964" x2="964" y1="428" y2="650" /><line opacity="0.1" stroke="#1A242D" stroke-width="1" x1="988" x2="988" y1="428" y2="650" /><line opacity="0.1" stroke="#1A242D" stroke-width="1" x1="1012" x2="1012" y1="428" y2="650" /><line opacity="0.1" stroke="#1A242D" stroke-width="1" x1="1036" x2="1036" y1="428" y2="650" /><line opacity="0.1" stroke="#1A242D" stroke-width="1" x1="1060" x2="1060" y1="428" y2="650" /><line opacity="0.1" stroke="#1A242D" stroke-width="1" x1="1084" x2="1084" y1="428" y2="650" /><line opacity="0.1" stroke="#1A242D" stroke-width="1" x1="1108" x2="1108" y1="428" y2="650" /><line opacity="0.1" stroke="#1A242D" stroke-width="1" x1="1132" x2="1132" y1="428" y2="650" /><line opacity="0.1" stroke="#1A242D" stroke-width="1" x1="1156" x2="1156" y1="428" y2="650" /><line opacity="0.1" stroke="#1A242D" stroke-width="1" x1="1180" x2="1180" y1="428" y2="650" /><line opacity="0.1" stroke="#1A242D" stroke-width="1" x1="1204" x2="1204" y1="428" y2="650" /><line opacity="0.1" stroke="#1A242D" stroke-width="1" x1="1228" x2="1228" y1="428" y2="650" /><line opacity="0.1" stroke="#1A242D" stroke-width="1" x1="1252" x2="1252" y1="428" y2="650" /><line opacity="0.1" stroke="#1A242D" stroke-width="1" x1="1276" x2="1276" y1="428" y2="650" /><line opacity="0.1" stroke="#1A242D" stroke-width="1" x1="1300" x2="1300" y1="428" y2="650" /><line opacity="0.1" stroke="#1A242D" stroke-width="1" x1="1324" x2="1324" y1="428" y2="650" /><line opacity="0.1" stroke="#1A242D" stroke-width="1" x1="1348" x2="1348" y1="428" y2="650" /><line opacity="0.1" stroke="#1A242D" stroke-width="1" x1="1372" x2="1372" y1="428" y2="650" /><line opacity="0.1" stroke="#1A242D" stroke-width="1" x1="1396" x2="1396" y1="428" y2="650" /><line opacity="0.1" stroke="#1A242D" stroke-width="1" x1="1420" x2="1420" y1="428" y2="650" /><line opacity="0.1" stroke="#1A242D" stroke-width="1" x1="1444" x2="1444" y1="428" y2="650" /><line opacity="0.1" stroke="#1A242D" stroke-width="1" x1="1468" x2="1468" y1="428" y2="650" /><line opacity="0.1" stroke="#1A242D" stroke-width="1" x1="1492" x2="1492" y1="428" y2="650" /><line opacity="0.1" stroke="#1A242D" stroke-width="1" x1="1516" x2="1516" y1="428" y2="650" /><line opacity="0.1" stroke="#1A242D" stroke-width="1" x1="1540" x2="1540" y1="428" y2="650" /><line opacity="0.1" stroke="#1A242D" stroke-width="1" x1="740" x2="1560" y1="436" y2="436" /><line opacity="0.1" stroke="#1A242D" stroke-width="1" x1="740" x2="1560" y1="460" y2="460" /><line opacity="0.1" stroke="#1A242D" stroke-width="1" x1="740" x2="1560" y1="484" y2="484" /><line opacity="0.1" stroke="#1A242D" stroke-width="1" x1="740" x2="1560" y1="508" y2="508" /><line opacity="0.1" stroke="#1A242D" stroke-width="1" x1="740" x2="1560" y1="532" y2="532" /><line opacity="0.1" stroke="#1A242D" stroke-width="1" x1="740" x2="1560" y1="556" y2="556" /><line opacity="0.1" stroke="#1A242D" stroke-width="1" x1="740" x2="1560" y1="580" y2="580" /><line opacity="0.1" stroke="#1A242D" stroke-width="1" x1="740" x2="1560" y1="604" y2="604" /><line opacity="0.1" stroke="#1A242D" stroke-width="1" x1="740" x2="1560" y1="628" y2="628" /><rect fill="#0F161D" height="26" rx="13" ry="13" stroke="#24303A" stroke-width="1" width="218" x="758" y="432" /><text fill="#D2F1FF" font-family="DejaVu Sans Mono" font-size="14" letter-spacing="1.4px" x="770" y="450">ANALYSIS LAYERS</text><rect fill="#0C1218" height="72" rx="8" ry="8" stroke="#24303A" stroke-width="1.6" width="392" x="758" y="468" /><text fill="#D2F1FF" font-family="DejaVu Sans Mono" font-size="13" font-weight="700" letter-spacing="1px" x="770" y="492">THREAT MODEL</text><text fill="#9AA8B5" font-family="DejaVu Sans Mono" font-size="11" font-weight="400" letter-spacing="0.4px" x="770" y="512">boundary enumeration · attack surface · entry points</text><rect fill="#0C1218" height="72" rx="8" ry="8" stroke="#24303A" stroke-width="1.6" width="392" x="1156" y="468" /><text fill="#D2F1FF" font-family="DejaVu Sans Mono" font-size="13" font-weight="700" letter-spacing="1px" x="1168" y="492">BOUNDARY MAPPING</text><text fill="#9AA8B5" font-family="DejaVu Sans Mono" font-size="11" font-weight="400" letter-spacing="0.4px" x="1168" y="512">trust zone definition · scope limits · data flows</text><rect fill="#0C1218" height="72" rx="8" ry="8" stroke="#24303A" stroke-width="1.6" width="392" x="758" y="548" /><text fill="#D2F1FF" font-family="DejaVu Sans Mono" font-size="13" font-weight="700" letter-spacing="1px" x="770" y="572">FAILURE PATHS</text><text fill="#9AA8B5" font-family="DejaVu Sans Mono" font-size="11" font-weight="400" letter-spacing="0.4px" x="770" y="592">crash conditions · degraded states · recovery gaps</text><rect fill="#0C1218" height="72" rx="8" ry="8" stroke="#24303A" stroke-width="1.6" width="392" x="1156" y="548" /><text fill="#D2F1FF" font-family="DejaVu Sans Mono" font-size="13" font-weight="700" letter-spacing="1px" x="1168" y="572">ABUSE CASES</text><text fill="#9AA8B5" font-family="DejaVu Sans Mono" font-size="11" font-weight="400" letter-spacing="0.4px" x="1168" y="592">adversarial inputs · coercion vectors · misuse flows</text><text fill="#9AA8B5" font-family="DejaVu Sans Mono" font-size="12" font-weight="400" letter-spacing="0.6px" x="758" y="644">each layer feeds findings into the next</text><line stroke="#9DDFFF" stroke-width="1.6" x1="1150" x2="1150" y1="658" y2="686" /><polygon fill="#9DDFFF" points="1150,700 1142,688 1158,688" /><rect fill="#0A0F14" height="124" rx="14" ry="14" stroke="#24303A" stroke-width="1.6" width="820" x="740" y="702" /><line opacity="0.1" stroke="#1A242D" stroke-width="1" x1="748" x2="748" y1="710" y2="818" /><line opacity="0.1" stroke="#1A242D" stroke-width="1" x1="772" x2="772" y1="710" y2="818" /><line opacity="0.1" stroke="#1A242D" stroke-width="1" x1="796" x2="796" y1="710" y2="818" /><line opacity="0.1" stroke="#1A242D" stroke-width="1" x1="820" x2="820" y1="710" y2="818" /><line opacity="0.1" stroke="#1A242D" stroke-width="1" x1="844" x2="844" y1="710" y2="818" /><line opacity="0.1" stroke="#1A242D" stroke-width="1" x1="868" x2="868" y1="710" y2="818" /><line opacity="0.1" stroke="#1A242D" stroke-width="1" x1="892" x2="892" y1="710" y2="818" /><line opacity="0.1" stroke="#1A242D" stroke-width="1" x1="916" x2="916" y1="710" y2="818" /><line opacity="0.1" stroke="#1A242D" stroke-width="1" x1="940" x2="940" y1="710" y2="818" /><line opacity="0.1" stroke="#1A242D" stroke-width="1" x1="964" x2="964" y1="710" y2="818" /><line opacity="0.1" stroke="#1A242D" stroke-width="1" x1="988" x2="988" y1="710" y2="818" /><line opacity="0.1" stroke="#1A242D" stroke-width="1" x1="1012" x2="1012" y1="710" y2="818" /><line opacity="0.1" stroke="#1A242D" stroke-width="1" x1="1036" x2="1036" y1="710" y2="818" /><line opacity="0.1" stroke="#1A242D" stroke-width="1" x1="1060" x2="1060" y1="710" y2="818" /><line opacity="0.1" stroke="#1A242D" stroke-width="1" x1="1084" x2="1084" y1="710" y2="818" /><line opacity="0.1" stroke="#1A242D" stroke-width="1" x1="1108" x2="1108" y1="710" y2="818" /><line opacity="0.1" stroke="#1A242D" stroke-width="1" x1="1132" x2="1132" y1="710" y2="818" /><line opacity="0.1" stroke="#1A242D" stroke-width="1" x1="1156" x2="1156" y1="710" y2="818" /><line opacity="0.1" stroke="#1A242D" stroke-width="1" x1="1180" x2="1180" y1="710" y2="818" /><line opacity="0.1" stroke="#1A242D" stroke-width="1" x1="1204" x2="1204" y1="710" y2="818" /><line opacity="0.1" stroke="#1A242D" stroke-width="1" x1="1228" x2="1228" y1="710" y2="818" /><line opacity="0.1" stroke="#1A242D" stroke-width="1" x1="1252" x2="1252" y1="710" y2="818" /><line opacity="0.1" stroke="#1A242D" stroke-width="1" x1="1276" x2="1276" y1="710" y2="818" /><line opacity="0.1" stroke="#1A242D" stroke-width="1" x1="1300" x2="1300" y1="710" y2="818" /><line opacity="0.1" stroke="#1A242D" stroke-width="1" x1="1324" x2="1324" y1="710" y2="818" /><line opacity="0.1" stroke="#1A242D" stroke-width="1" x1="1348" x2="1348" y1="710" y2="818" /><line opacity="0.1" stroke="#1A242D" stroke-width="1" x1="1372" x2="1372" y1="710" y2="818" /><line opacity="0.1" stroke="#1A242D" stroke-width="1" x1="1396" x2="1396" y1="710" y2="818" /><line opacity="0.1" stroke="#1A242D" stroke-width="1" x1="1420" x2="1420" y1="710" y2="818" /><line opacity="0.1" stroke="#1A242D" stroke-width="1" x1="1444" x2="1444" y1="710" y2="818" /><line opacity="0.1" stroke="#1A242D" stroke-width="1" x1="1468" x2="1468" y1="710" y2="818" /><line opacity="0.1" stroke="#1A242D" stroke-width="1" x1="1492" x2="1492" y1="710" y2="818" /><line opacity="0.1" stroke="#1A242D" stroke-width="1" x1="1516" x2="1516" y1="710" y2="818" /><line opacity="0.1" stroke="#1A242D" stroke-width="1" x1="1540" x2="1540" y1="710" y2="818" /><line opacity="0.1" stroke="#1A242D" stroke-width="1" x1="740" x2="1560" y1="718" y2="718" /><line opacity="0.1" stroke="#1A242D" stroke-width="1" x1="740" x2="1560" y1="742" y2="742" /><line opacity="0.1" stroke="#1A242D" stroke-width="1" x1="740" x2="1560" y1="766" y2="766" /><line opacity="0.1" stroke="#1A242D" stroke-width="1" x1="740" x2="1560" y1="790" y2="790" /><rect fill="#0F161D" height="26" rx="13" ry="13" stroke="#24303A" stroke-width="1" width="100" x="758" y="714" /><text fill="#9DDFFF" font-family="DejaVu Sans Mono" font-size="14" letter-spacing="1.4px" x="770" y="732">OUTPUT</text><rect fill="#0C1218" height="36" rx="18" ry="18" stroke="#9DDFFF" stroke-width="1.6" width="232" x="760" y="754" /><text fill="#9DDFFF" font-family="DejaVu Sans Mono" font-size="13" letter-spacing="0.8px" x="776" y="777">defensibility packet</text><rect fill="#0C1218" height="36" rx="18" ry="18" stroke="#9DDFFF" stroke-width="1.6" width="222" x="1006" y="754" /><text fill="#9DDFFF" font-family="DejaVu Sans Mono" font-size="13" letter-spacing="0.8px" x="1022" y="777">prioritized roadmap</text><rect fill="#0C1218" height="36" rx="18" ry="18" stroke="#9DDFFF" stroke-width="1.6" width="232" x="1242" y="754" /><text fill="#9DDFFF" font-family="DejaVu Sans Mono" font-size="13" letter-spacing="0.8px" x="1258" y="777">decision-grade notes</text><text fill="#9AA8B5" font-family="DejaVu Sans Mono" font-size="16" font-weight="400" letter-spacing="1.5px" x="72" y="846">CRISISCORE-SYSTEMS / PROTECTIVE COMPUTING</text><text fill="#9AA8B5" font-family="DejaVu Sans Mono" font-size="16" font-weight="400" letter-spacing="1.5px" text-anchor="end" x="1528" y="846">field brief, not agency tile</text></svg>