<svg xmlns="http://www.w3.org/2000/svg" width="1200" height="750" viewBox="0 0 1200 750">
  <rect width="1200" height="750" fill="#000"/>
  <rect x="60" y="60" width="1080" height="630" rx="40" fill="#ffffff" fill-opacity="0.05" stroke="#ffffff" stroke-opacity="0.12"/>

  <text x="110" y="130" fill="#fff" fill-opacity="0.9" font-family="ui-sans-serif, system-ui" font-size="26" font-weight="700">Interface sketch (representative)</text>
  <text x="110" y="162" fill="#fff" fill-opacity="0.65" font-family="ui-sans-serif, system-ui" font-size="15">Fast logging + minimal cognitive load</text>

  <rect x="110" y="210" width="520" height="420" rx="28" fill="#ffffff" fill-opacity="0.04" stroke="#ffffff" stroke-opacity="0.10"/>
  <rect x="680" y="210" width="410" height="190" rx="28" fill="#ffffff" fill-opacity="0.04" stroke="#ffffff" stroke-opacity="0.10"/>
  <rect x="680" y="440" width="410" height="190" rx="28" fill="#ffffff" fill-opacity="0.04" stroke="#ffffff" stroke-opacity="0.10"/>

  <!-- Left panel rows -->
  <g fill="#fff" fill-opacity="0.20">
    <rect x="150" y="260" width="440" height="46" rx="16"/>
    <rect x="150" y="322" width="440" height="46" rx="16"/>
    <rect x="150" y="384" width="440" height="46" rx="16"/>
    <rect x="150" y="446" width="440" height="46" rx="16"/>
    <rect x="150" y="508" width="280" height="46" rx="16"/>
  </g>

  <g font-family="ui-sans-serif, system-ui" fill="#fff">
    <text x="720" y="270" font-size="14" fill-opacity="0.65">Today</text>
    <text x="720" y="300" font-size="18" font-weight="700" fill-opacity="0.9">Log entry</text>

    <text x="720" y="500" font-size="14" fill-opacity="0.65">Summary</text>
    <text x="720" y="530" font-size="18" font-weight="700" fill-opacity="0.9">Trends (local)</text>
  </g>
</svg>
