<svg baseProfile="full" height="900" version="1.1" viewBox="0,0,1600,900" width="1600" xmlns="http://www.w3.org/2000/svg" xmlns:ev="http://www.w3.org/2001/xml-events" xmlns:xlink="http://www.w3.org/1999/xlink"><defs /><rect fill="#05080C" height="900" width="1600" x="0" y="0" /><rect fill="none" height="836" stroke="#24303A" stroke-width="1.5" width="1536" x="32" y="32" /><line stroke="#1A242D" stroke-width="1" x1="32" x2="1568" y1="96" y2="96" /><line stroke="#1A242D" stroke-width="1" x1="32" x2="1568" y1="804" y2="804" /><text fill="#9AA8B5" font-family="DejaVu Sans Mono" font-size="18" letter-spacing="2px" x="72" y="70">BLACKPAPER RESEARCH</text><text fill="#9DDFFF" font-family="DejaVu Sans Mono" font-size="18" letter-spacing="2px" text-anchor="end" x="1528" y="70">DIAGRAM 04</text><text fill="#EEF2F5" font-family="DejaVu Sans" font-size="40" font-weight="700" x="72" y="150">Local Authority vs Cloud Dependence</text><text fill="#9AA8B5" font-family="DejaVu Sans" font-size="20" x="72" y="185">Not a moral binary. A structural contrast about what remains authoritative when conditions degrade.</text><rect fill="#0A0F14" height="540" rx="14" ry="14" stroke="#24303A" stroke-width="1.6" width="690" x="72" y="240" /><rect fill="#0F161D" height="28" rx="14" ry="14" stroke="#24303A" stroke-width="1" width="376" x="90" y="252" /><text fill="#D2F1FF" font-family="DejaVu Sans Mono" font-size="15" letter-spacing="1.4px" x="103" y="271">AUTHORITY STAYS CLOSEST TO THE USER</text><text fill="#EEF2F5" font-family="DejaVu Sans" font-size="24" font-weight="700" x="90" y="302">Model A / Local Authority</text><rect fill="#0A0F14" height="540" rx="14" ry="14" stroke="#24303A" stroke-width="1.6" width="690" x="838" y="240" /><rect fill="#0F161D" height="28" rx="14" ry="14" stroke="#24303A" stroke-width="1" width="396" x="856" y="252" /><text fill="#D2F1FF" font-family="DejaVu Sans Mono" font-size="15" letter-spacing="1.4px" x="869" y="271">SERVICE REMAINS STRUCTURALLY UPSTREAM</text><text fill="#EEF2F5" font-family="DejaVu Sans" font-size="24" font-weight="700" x="856" y="302">Model B / Cloud Dependence</text><text fill="#9AA8B5" font-family="DejaVu Sans Mono" font-size="16" x="104" y="335">CONTROL SURFACE</text><text fill="#EEF2F5" font-family="DejaVu Sans" font-size="28" font-weight="700" x="104" y="369">user / device</text><line stroke="#1A242D" stroke-width="1" x1="104" x2="624" y1="391" y2="391" /><text fill="#9AA8B5" font-family="DejaVu Sans Mono" font-size="16" x="104" y="411">DEFAULT EXPOSURE</text><text fill="#EEF2F5" font-family="DejaVu Sans" font-size="28" font-weight="700" x="104" y="445">minimal</text><line stroke="#1A242D" stroke-width="1" x1="104" x2="624" y1="467" y2="467" /><text fill="#9AA8B5" font-family="DejaVu Sans Mono" font-size="16" x="104" y="487">OFFLINE UTILITY</text><text fill="#EEF2F5" font-family="DejaVu Sans" font-size="28" font-weight="700" x="104" y="521">high</text><line stroke="#1A242D" stroke-width="1" x1="104" x2="624" y1="543" y2="543" /><text fill="#9AA8B5" font-family="DejaVu Sans Mono" font-size="16" x="104" y="563">RECOVERY PATH</text><text fill="#EEF2F5" font-family="DejaVu Sans" font-size="28" font-weight="700" x="104" y="597">direct + reversible</text><line stroke="#1A242D" stroke-width="1" x1="104" x2="624" y1="619" y2="619" /><text fill="#9AA8B5" font-family="DejaVu Sans Mono" font-size="16" x="104" y="639">COERCION RESISTANCE</text><text fill="#EEF2F5" font-family="DejaVu Sans" font-size="28" font-weight="700" x="104" y="673">stronger</text><line stroke="#1A242D" stroke-width="1" x1="104" x2="624" y1="695" y2="695" /><text fill="#9AA8B5" font-family="DejaVu Sans Mono" font-size="16" x="104" y="715">FAILURE BLAST RADIUS</text><text fill="#EEF2F5" font-family="DejaVu Sans" font-size="28" font-weight="700" x="104" y="749">contained</text><line stroke="#1A242D" stroke-width="1" x1="104" x2="624" y1="771" y2="771" /><text fill="#9AA8B5" font-family="DejaVu Sans Mono" font-size="16" x="870" y="335">CONTROL SURFACE</text><text fill="#EEF2F5" font-family="DejaVu Sans" font-size="28" font-weight="700" x="870" y="369">service / account</text><line stroke="#1A242D" stroke-width="1" x1="870" x2="1390" y1="391" y2="391" /><text fill="#9AA8B5" font-family="DejaVu Sans Mono" font-size="16" x="870" y="411">DEFAULT EXPOSURE</text><text fill="#EEF2F5" font-family="DejaVu Sans" font-size="28" font-weight="700" x="870" y="445">persistent</text><line stroke="#1A242D" stroke-width="1" x1="870" x2="1390" y1="467" y2="467" /><text fill="#9AA8B5" font-family="DejaVu Sans Mono" font-size="16" x="870" y="487">OFFLINE UTILITY</text><text fill="#EEF2F5" font-family="DejaVu Sans" font-size="28" font-weight="700" x="870" y="521">partial or broken</text><line stroke="#1A242D" stroke-width="1" x1="870" x2="1390" y1="543" y2="543" /><text fill="#9AA8B5" font-family="DejaVu Sans Mono" font-size="16" x="870" y="563">RECOVERY PATH</text><text fill="#EEF2F5" font-family="DejaVu Sans" font-size="28" font-weight="700" x="870" y="597">policy-mediated</text><line stroke="#1A242D" stroke-width="1" x1="870" x2="1390" y1="619" y2="619" /><text fill="#9AA8B5" font-family="DejaVu Sans Mono" font-size="16" x="870" y="639">COERCION RESISTANCE</text><text fill="#EEF2F5" font-family="DejaVu Sans" font-size="28" font-weight="700" x="870" y="673">weaker</text><line stroke="#1A242D" stroke-width="1" x1="870" x2="1390" y1="695" y2="695" /><text fill="#9AA8B5" font-family="DejaVu Sans Mono" font-size="16" x="870" y="715">FAILURE BLAST RADIUS</text><text fill="#EEF2F5" font-family="DejaVu Sans" font-size="28" font-weight="700" x="870" y="749">distributed</text><line stroke="#1A242D" stroke-width="1" x1="870" x2="1390" y1="771" y2="771" /><line stroke="#24303A" stroke-dasharray="7,8" stroke-width="1.5" x1="800" x2="800" y1="240" y2="780" /><text fill="#D2F1FF" font-family="DejaVu Sans Mono" font-size="16" letter-spacing="1.6px" text-anchor="middle" x="800" y="210">AUTHORITY AXIS</text><text fill="#9AA8B5" font-family="DejaVu Sans Mono" font-size="16" letter-spacing="1.5px" x="72" y="846">CRISISCORE-SYSTEMS / PROTECTIVE COMPUTING</text><text fill="#9AA8B5" font-family="DejaVu Sans Mono" font-size="16" letter-spacing="1.5px" text-anchor="end" x="1528" y="846">comparative systems plate</text></svg>