<svg baseProfile="full" height="900" version="1.1" viewBox="0,0,1600,900" width="1600" xmlns="http://www.w3.org/2000/svg" xmlns:ev="http://www.w3.org/2001/xml-events" xmlns:xlink="http://www.w3.org/1999/xlink"><defs /><rect fill="#05080C" height="900" width="1600" x="0" y="0" /><rect fill="none" height="836" stroke="#24303A" stroke-width="1.5" width="1536" x="32" y="32" /><line stroke="#1A242D" stroke-width="1" x1="32" x2="1568" y1="96" y2="96" /><line stroke="#1A242D" stroke-width="1" x1="32" x2="1568" y1="804" y2="804" /><text fill="#9AA8B5" font-family="DejaVu Sans Mono" font-size="18" letter-spacing="2px" x="72" y="70">BLACKPAPER RESEARCH</text><text fill="#9DDFFF" font-family="DejaVu Sans Mono" font-size="18" letter-spacing="2px" text-anchor="end" x="1528" y="70">DIAGRAM 02</text><text fill="#EEF2F5" font-family="DejaVu Sans" font-size="40" font-weight="700" x="72" y="150">Protective Computing Lifecycle</text><text fill="#9AA8B5" font-family="DejaVu Sans" font-size="20" x="72" y="185">From real-world instability intake to evidence-backed iteration.</text><rect fill="#0A0F14" height="220" rx="14" ry="14" stroke="#24303A" stroke-width="1.6" width="320" x="640" y="320" /><line opacity="0.1" stroke="#1A242D" stroke-width="1" x1="648" x2="648" y1="328" y2="532" /><line opacity="0.1" stroke="#1A242D" stroke-width="1" x1="672" x2="672" y1="328" y2="532" /><line opacity="0.1" stroke="#1A242D" stroke-width="1" x1="696" x2="696" y1="328" y2="532" /><line opacity="0.1" stroke="#1A242D" stroke-width="1" x1="720" x2="720" y1="328" y2="532" /><line opacity="0.1" stroke="#1A242D" stroke-width="1" x1="744" x2="744" y1="328" y2="532" /><line opacity="0.1" stroke="#1A242D" stroke-width="1" x1="768" x2="768" y1="328" y2="532" /><line opacity="0.1" stroke="#1A242D" stroke-width="1" x1="792" x2="792" y1="328" y2="532" /><line opacity="0.1" stroke="#1A242D" stroke-width="1" x1="816" x2="816" y1="328" y2="532" /><line opacity="0.1" stroke="#1A242D" stroke-width="1" x1="840" x2="840" y1="328" y2="532" /><line opacity="0.1" stroke="#1A242D" stroke-width="1" x1="864" x2="864" y1="328" y2="532" /><line opacity="0.1" stroke="#1A242D" stroke-width="1" x1="888" x2="888" y1="328" y2="532" /><line opacity="0.1" stroke="#1A242D" stroke-width="1" x1="912" x2="912" y1="328" y2="532" /><line opacity="0.1" stroke="#1A242D" stroke-width="1" x1="936" x2="936" y1="328" y2="532" /><line opacity="0.1" stroke="#1A242D" stroke-width="1" x1="648" x2="952" y1="328" y2="328" /><line opacity="0.1" stroke="#1A242D" stroke-width="1" x1="648" x2="952" y1="352" y2="352" /><line opacity="0.1" stroke="#1A242D" stroke-width="1" x1="648" x2="952" y1="376" y2="376" /><line opacity="0.1" stroke="#1A242D" stroke-width="1" x1="648" x2="952" y1="400" y2="400" /><line opacity="0.1" stroke="#1A242D" stroke-width="1" x1="648" x2="952" y1="424" y2="424" /><line opacity="0.1" stroke="#1A242D" stroke-width="1" x1="648" x2="952" y1="448" y2="448" /><line opacity="0.1" stroke="#1A242D" stroke-width="1" x1="648" x2="952" y1="472" y2="472" /><line opacity="0.1" stroke="#1A242D" stroke-width="1" x1="648" x2="952" y1="496" y2="496" /><line opacity="0.1" stroke="#1A242D" stroke-width="1" x1="648" x2="952" y1="520" y2="520" /><rect fill="#0F161D" height="28" rx="14" ry="14" stroke="#24303A" stroke-width="1" width="176" x="658" y="332" /><text fill="#D2F1FF" font-family="DejaVu Sans Mono" font-size="15" letter-spacing="1.4px" x="671" y="351">DISCIPLINE CORE</text><text fill="#EEF2F5" font-family="DejaVu Sans" font-size="24" font-weight="700" x="658" y="382">Protective Computing</text><text fill="#9AA8B5" font-family="DejaVu Sans" font-size="24" font-weight="400" x="670" y="418">Design for instability,</text><text fill="#9AA8B5" font-family="DejaVu Sans" font-size="24" font-weight="400" x="670" y="450">coercion risk, degraded</text><text fill="#9AA8B5" font-family="DejaVu Sans" font-size="24" font-weight="400" x="670" y="482">conditions, and explicit</text><text fill="#9AA8B5" font-family="DejaVu Sans" font-size="24" font-weight="400" x="670" y="514">evidence.</text><rect fill="#0A0F14" height="180" rx="14" ry="14" stroke="#24303A" stroke-width="1.6" width="390" x="170" y="230" /><rect fill="#0F161D" height="28" rx="14" ry="14" stroke="#24303A" stroke-width="1" width="100" x="188" y="242" /><text fill="#D2F1FF" font-family="DejaVu Sans Mono" font-size="15" letter-spacing="1.4px" x="201" y="261">STAGE</text><text fill="#EEF2F5" font-family="DejaVu Sans" font-size="24" font-weight="700" x="188" y="292">Reality Intake</text><circle cx="194" cy="319" fill="#9DDFFF" r="3.5" /><text fill="#EEF2F5" font-family="DejaVu Sans" font-size="20" x="210" y="326">stress signals</text><circle cx="194" cy="349" fill="#9DDFFF" r="3.5" /><text fill="#EEF2F5" font-family="DejaVu Sans" font-size="20" x="210" y="356">device context</text><circle cx="194" cy="379" fill="#9DDFFF" r="3.5" /><text fill="#EEF2F5" font-family="DejaVu Sans" font-size="20" x="210" y="386">institutional delay</text><rect fill="#0A0F14" height="180" rx="14" ry="14" stroke="#24303A" stroke-width="1.6" width="390" x="1040" y="230" /><rect fill="#0F161D" height="28" rx="14" ry="14" stroke="#24303A" stroke-width="1" width="100" x="1058" y="242" /><text fill="#D2F1FF" font-family="DejaVu Sans Mono" font-size="15" letter-spacing="1.4px" x="1071" y="261">STAGE</text><text fill="#EEF2F5" font-family="DejaVu Sans" font-size="24" font-weight="700" x="1058" y="292">Boundary Mapping</text><circle cx="1064" cy="319" fill="#9DDFFF" r="3.5" /><text fill="#EEF2F5" font-family="DejaVu Sans" font-size="20" x="1080" y="326">data crossings</text><circle cx="1064" cy="349" fill="#9DDFFF" r="3.5" /><text fill="#EEF2F5" font-family="DejaVu Sans" font-size="20" x="1080" y="356">authority layers</text><circle cx="1064" cy="379" fill="#9DDFFF" r="3.5" /><text fill="#EEF2F5" font-family="DejaVu Sans" font-size="20" x="1080" y="386">support surfaces</text><rect fill="#0A0F14" height="180" rx="14" ry="14" stroke="#24303A" stroke-width="1.6" width="390" x="170" y="580" /><rect fill="#0F161D" height="28" rx="14" ry="14" stroke="#24303A" stroke-width="1" width="100" x="188" y="592" /><text fill="#D2F1FF" font-family="DejaVu Sans Mono" font-size="15" letter-spacing="1.4px" x="201" y="611">STAGE</text><text fill="#EEF2F5" font-family="DejaVu Sans" font-size="24" font-weight="700" x="188" y="642">Local Authority</text><circle cx="194" cy="669" fill="#9DDFFF" r="3.5" /><text fill="#EEF2F5" font-family="DejaVu Sans" font-size="20" x="210" y="676">on-device control</text><circle cx="194" cy="699" fill="#9DDFFF" r="3.5" /><text fill="#EEF2F5" font-family="DejaVu Sans" font-size="20" x="210" y="706">minimal exposure</text><circle cx="194" cy="729" fill="#9DDFFF" r="3.5" /><text fill="#EEF2F5" font-family="DejaVu Sans" font-size="20" x="210" y="736">reversible action</text><rect fill="#0A0F14" height="180" rx="14" ry="14" stroke="#24303A" stroke-width="1.6" width="390" x="1040" y="580" /><rect fill="#0F161D" height="28" rx="14" ry="14" stroke="#24303A" stroke-width="1" width="100" x="1058" y="592" /><text fill="#D2F1FF" font-family="DejaVu Sans Mono" font-size="15" letter-spacing="1.4px" x="1071" y="611">STAGE</text><text fill="#EEF2F5" font-family="DejaVu Sans" font-size="24" font-weight="700" x="1058" y="642">Degradation Testing</text><circle cx="1064" cy="669" fill="#9DDFFF" r="3.5" /><text fill="#EEF2F5" font-family="DejaVu Sans" font-size="20" x="1080" y="676">offline</text><circle cx="1064" cy="699" fill="#9DDFFF" r="3.5" /><text fill="#EEF2F5" font-family="DejaVu Sans" font-size="20" x="1080" y="706">interruption</text><circle cx="1064" cy="729" fill="#9DDFFF" r="3.5" /><text fill="#EEF2F5" font-family="DejaVu Sans" font-size="20" x="1080" y="736">fatigue</text><circle cx="1064" cy="759" fill="#9DDFFF" r="3.5" /><text fill="#EEF2F5" font-family="DejaVu Sans" font-size="20" x="1080" y="766">low battery</text><rect fill="#0A0F14" height="130" rx="14" ry="14" stroke="#24303A" stroke-width="1.6" width="660" x="470" y="620" /><rect fill="#0F161D" height="28" rx="14" ry="14" stroke="#24303A" stroke-width="1" width="186" x="488" y="632" /><text fill="#D2F1FF" font-family="DejaVu Sans Mono" font-size="15" letter-spacing="1.4px" x="501" y="651">RELEASE EVIDENCE</text><text fill="#EEF2F5" font-family="DejaVu Sans" font-size="24" font-weight="700" x="488" y="682">Disclosure + Review Loop</text><text fill="#9AA8B5" font-family="DejaVu Sans" font-size="21" font-weight="400" x="494" y="695">Publish tradeoffs, conformance claims, packet artifacts, and known</text><text fill="#9AA8B5" font-family="DejaVu Sans" font-size="21" font-weight="400" x="494" y="724">limits. Re-run the discipline when reality disproves assumptions.</text><line stroke="#9DDFFF" stroke-width="2.2" x1="560" x2="640" y1="320" y2="390" /><polygon fill="#9DDFFF" points="640,390 630.3623738587206,387.3323863921233 636.0766626884833,380.8017705866802" /><line stroke="#9DDFFF" stroke-width="2.2" x1="1040" x2="960" y1="320" y2="390" /><polygon fill="#9DDFFF" points="960,390 963.9233373115167,380.8017705866802 969.6376261412794,387.3323863921233" /><line stroke="#9DDFFF" stroke-width="2.2" x1="560" x2="640" y1="670" y2="500" /><polygon fill="#9DDFFF" points="640,500 640.0895624795613,509.9995989200695 632.237840044872,506.3046707155098" /><line stroke="#9DDFFF" stroke-width="2.2" x1="1040" x2="960" y1="670" y2="500" /><polygon fill="#9DDFFF" points="960,500 967.762159955128,506.3046707155098 959.9104375204387,509.9995989200695" /><line stroke="#9DDFFF" stroke-width="2.2" x1="800" x2="800" y1="540" y2="620" /><polygon fill="#9DDFFF" points="800,620 795.6611626088244,610.9903113209758 804.3388373911756,610.9903113209758" /><text fill="#9AA8B5" font-family="DejaVu Sans Mono" font-size="16" letter-spacing="1.5px" x="72" y="846">CRISISCORE-SYSTEMS / PROTECTIVE COMPUTING</text><text fill="#9AA8B5" font-family="DejaVu Sans Mono" font-size="16" letter-spacing="1.5px" text-anchor="end" x="1528" y="846">publishable systems plate</text></svg>