<svg baseProfile="full" height="900" version="1.1" viewBox="0,0,1600,900" width="1600" xmlns="http://www.w3.org/2000/svg" xmlns:ev="http://www.w3.org/2001/xml-events" xmlns:xlink="http://www.w3.org/1999/xlink"><defs /><rect fill="#05080C" height="900" width="1600" x="0" y="0" /><rect fill="none" height="836" stroke="#24303A" stroke-width="1.5" width="1536" x="32" y="32" /><line stroke="#1A242D" stroke-width="1" x1="32" x2="1568" y1="96" y2="96" /><line stroke="#1A242D" stroke-width="1" x1="32" x2="1568" y1="804" y2="804" /><text fill="#9AA8B5" font-family="DejaVu Sans Mono" font-size="18" letter-spacing="2px" x="72" y="70">BLACKPAPER RESEARCH</text><text fill="#9DDFFF" font-family="DejaVu Sans Mono" font-size="18" letter-spacing="2px" text-anchor="end" x="1528" y="70">DIAGRAM 01</text><text fill="#EEF2F5" font-family="DejaVu Sans" font-size="40" font-weight="700" x="72" y="150">Stability Assumption Collapse Model</text><text fill="#9AA8B5" font-family="DejaVu Sans" font-size="20" x="72" y="185">A cleaner structural view of how hidden defaults fracture under unstable conditions.</text><rect fill="#0A0F14" height="510" rx="14" ry="14" stroke="#24303A" stroke-width="1.6" width="360" x="72" y="240" /><line opacity="0.1" stroke="#1A242D" stroke-width="1" x1="80" x2="80" y1="248" y2="742" /><line opacity="0.1" stroke="#1A242D" stroke-width="1" x1="104" x2="104" y1="248" y2="742" /><line opacity="0.1" stroke="#1A242D" stroke-width="1" x1="128" x2="128" y1="248" y2="742" /><line opacity="0.1" stroke="#1A242D" stroke-width="1" x1="152" x2="152" y1="248" y2="742" /><line opacity="0.1" stroke="#1A242D" stroke-width="1" x1="176" x2="176" y1="248" y2="742" /><line opacity="0.1" stroke="#1A242D" stroke-width="1" x1="200" x2="200" y1="248" y2="742" /><line opacity="0.1" stroke="#1A242D" stroke-width="1" x1="224" x2="224" y1="248" y2="742" /><line opacity="0.1" stroke="#1A242D" stroke-width="1" x1="248" x2="248" y1="248" y2="742" /><line opacity="0.1" stroke="#1A242D" stroke-width="1" x1="272" x2="272" y1="248" y2="742" /><line opacity="0.1" stroke="#1A242D" stroke-width="1" x1="296" x2="296" y1="248" y2="742" /><line opacity="0.1" stroke="#1A242D" stroke-width="1" x1="320" x2="320" y1="248" y2="742" /><line opacity="0.1" stroke="#1A242D" stroke-width="1" x1="344" x2="344" y1="248" y2="742" /><line opacity="0.1" stroke="#1A242D" stroke-width="1" x1="368" x2="368" y1="248" y2="742" /><line opacity="0.1" stroke="#1A242D" stroke-width="1" x1="392" x2="392" y1="248" y2="742" /><line opacity="0.1" stroke="#1A242D" stroke-width="1" x1="416" x2="416" y1="248" y2="742" /><line opacity="0.1" stroke="#1A242D" stroke-width="1" x1="80" x2="424" y1="248" y2="248" /><line opacity="0.1" stroke="#1A242D" stroke-width="1" x1="80" x2="424" y1="272" y2="272" /><line opacity="0.1" stroke="#1A242D" stroke-width="1" x1="80" x2="424" y1="296" y2="296" /><line opacity="0.1" stroke="#1A242D" stroke-width="1" x1="80" x2="424" y1="320" y2="320" /><line opacity="0.1" stroke="#1A242D" stroke-width="1" x1="80" x2="424" y1="344" y2="344" /><line opacity="0.1" stroke="#1A242D" stroke-width="1" x1="80" x2="424" y1="368" y2="368" /><line opacity="0.1" stroke="#1A242D" stroke-width="1" x1="80" x2="424" y1="392" y2="392" /><line opacity="0.1" stroke="#1A242D" stroke-width="1" x1="80" x2="424" y1="416" y2="416" /><line opacity="0.1" stroke="#1A242D" stroke-width="1" x1="80" x2="424" y1="440" y2="440" /><line opacity="0.1" stroke="#1A242D" stroke-width="1" x1="80" x2="424" y1="464" y2="464" /><line opacity="0.1" stroke="#1A242D" stroke-width="1" x1="80" x2="424" y1="488" y2="488" /><line opacity="0.1" stroke="#1A242D" stroke-width="1" x1="80" x2="424" y1="512" y2="512" /><line opacity="0.1" stroke="#1A242D" stroke-width="1" x1="80" x2="424" y1="536" y2="536" /><line opacity="0.1" stroke="#1A242D" stroke-width="1" x1="80" x2="424" y1="560" y2="560" /><line opacity="0.1" stroke="#1A242D" stroke-width="1" x1="80" x2="424" y1="584" y2="584" /><line opacity="0.1" stroke="#1A242D" stroke-width="1" x1="80" x2="424" y1="608" y2="608" /><line opacity="0.1" stroke="#1A242D" stroke-width="1" x1="80" x2="424" y1="632" y2="632" /><line opacity="0.1" stroke="#1A242D" stroke-width="1" x1="80" x2="424" y1="656" y2="656" /><line opacity="0.1" stroke="#1A242D" stroke-width="1" x1="80" x2="424" y1="680" y2="680" /><line opacity="0.1" stroke="#1A242D" stroke-width="1" x1="80" x2="424" y1="704" y2="704" /><line opacity="0.1" stroke="#1A242D" stroke-width="1" x1="80" x2="424" y1="728" y2="728" /><rect fill="#0F161D" height="28" rx="14" ry="14" stroke="#24303A" stroke-width="1" width="176" x="90" y="252" /><text fill="#D2F1FF" font-family="DejaVu Sans Mono" font-size="15" letter-spacing="1.4px" x="103" y="271">LATENT DEFAULTS</text><text fill="#EEF2F5" font-family="DejaVu Sans" font-size="24" font-weight="700" x="90" y="302">Assumed Context</text><circle cx="104" cy="323" fill="#9DDFFF" r="3.5" /><text fill="#EEF2F5" font-family="DejaVu Sans" font-size="22" x="120" y="330">continuous signal</text><circle cx="104" cy="377" fill="#9DDFFF" r="3.5" /><text fill="#EEF2F5" font-family="DejaVu Sans" font-size="22" x="120" y="384">private device access</text><circle cx="104" cy="431" fill="#9DDFFF" r="3.5" /><text fill="#EEF2F5" font-family="DejaVu Sans" font-size="22" x="120" y="438">cognitive surplus</text><circle cx="104" cy="485" fill="#9DDFFF" r="3.5" /><text fill="#EEF2F5" font-family="DejaVu Sans" font-size="22" x="120" y="492">predictable power</text><circle cx="104" cy="539" fill="#9DDFFF" r="3.5" /><text fill="#EEF2F5" font-family="DejaVu Sans" font-size="22" x="120" y="546">institutional continuity</text><circle cx="104" cy="593" fill="#9DDFFF" r="3.5" /><text fill="#EEF2F5" font-family="DejaVu Sans" font-size="22" x="120" y="600">time to recover</text><rect fill="#0A0F14" height="510" rx="14" ry="14" stroke="#24303A" stroke-width="1.6" width="250" x="490" y="240" /><line opacity="0.1" stroke="#1A242D" stroke-width="1" x1="498" x2="498" y1="248" y2="742" /><line opacity="0.1" stroke="#1A242D" stroke-width="1" x1="522" x2="522" y1="248" y2="742" /><line opacity="0.1" stroke="#1A242D" stroke-width="1" x1="546" x2="546" y1="248" y2="742" /><line opacity="0.1" stroke="#1A242D" stroke-width="1" x1="570" x2="570" y1="248" y2="742" /><line opacity="0.1" stroke="#1A242D" stroke-width="1" x1="594" x2="594" y1="248" y2="742" /><line opacity="0.1" stroke="#1A242D" stroke-width="1" x1="618" x2="618" y1="248" y2="742" /><line opacity="0.1" stroke="#1A242D" stroke-width="1" x1="642" x2="642" y1="248" y2="742" /><line opacity="0.1" stroke="#1A242D" stroke-width="1" x1="666" x2="666" y1="248" y2="742" /><line opacity="0.1" stroke="#1A242D" stroke-width="1" x1="690" x2="690" y1="248" y2="742" /><line opacity="0.1" stroke="#1A242D" stroke-width="1" x1="714" x2="714" y1="248" y2="742" /><line opacity="0.1" stroke="#1A242D" stroke-width="1" x1="498" x2="732" y1="248" y2="248" /><line opacity="0.1" stroke="#1A242D" stroke-width="1" x1="498" x2="732" y1="272" y2="272" /><line opacity="0.1" stroke="#1A242D" stroke-width="1" x1="498" x2="732" y1="296" y2="296" /><line opacity="0.1" stroke="#1A242D" stroke-width="1" x1="498" x2="732" y1="320" y2="320" /><line opacity="0.1" stroke="#1A242D" stroke-width="1" x1="498" x2="732" y1="344" y2="344" /><line opacity="0.1" stroke="#1A242D" stroke-width="1" x1="498" x2="732" y1="368" y2="368" /><line opacity="0.1" stroke="#1A242D" stroke-width="1" x1="498" x2="732" y1="392" y2="392" /><line opacity="0.1" stroke="#1A242D" stroke-width="1" x1="498" x2="732" y1="416" y2="416" /><line opacity="0.1" stroke="#1A242D" stroke-width="1" x1="498" x2="732" y1="440" y2="440" /><line opacity="0.1" stroke="#1A242D" stroke-width="1" x1="498" x2="732" y1="464" y2="464" /><line opacity="0.1" stroke="#1A242D" stroke-width="1" x1="498" x2="732" y1="488" y2="488" /><line opacity="0.1" stroke="#1A242D" stroke-width="1" x1="498" x2="732" y1="512" y2="512" /><line opacity="0.1" stroke="#1A242D" stroke-width="1" x1="498" x2="732" y1="536" y2="536" /><line opacity="0.1" stroke="#1A242D" stroke-width="1" x1="498" x2="732" y1="560" y2="560" /><line opacity="0.1" stroke="#1A242D" stroke-width="1" x1="498" x2="732" y1="584" y2="584" /><line opacity="0.1" stroke="#1A242D" stroke-width="1" x1="498" x2="732" y1="608" y2="608" /><line opacity="0.1" stroke="#1A242D" stroke-width="1" x1="498" x2="732" y1="632" y2="632" /><line opacity="0.1" stroke="#1A242D" stroke-width="1" x1="498" x2="732" y1="656" y2="656" /><line opacity="0.1" stroke="#1A242D" stroke-width="1" x1="498" x2="732" y1="680" y2="680" /><line opacity="0.1" stroke="#1A242D" stroke-width="1" x1="498" x2="732" y1="704" y2="704" /><line opacity="0.1" stroke="#1A242D" stroke-width="1" x1="498" x2="732" y1="728" y2="728" /><rect fill="#0F161D" height="28" rx="14" ry="14" stroke="#24303A" stroke-width="1" width="146" x="508" y="252" /><text fill="#D2F1FF" font-family="DejaVu Sans Mono" font-size="15" letter-spacing="1.4px" x="521" y="271">STRESS INPUT</text><text fill="#EEF2F5" font-family="DejaVu Sans" font-size="24" font-weight="700" x="508" y="302">Breach Vectors</text><circle cx="520" cy="323" fill="#9DDFFF" r="3.5" /><text fill="#EEF2F5" font-family="DejaVu Sans" font-size="22" x="536" y="330">pain</text><circle cx="520" cy="377" fill="#9DDFFF" r="3.5" /><text fill="#EEF2F5" font-family="DejaVu Sans" font-size="22" x="536" y="384">panic</text><circle cx="520" cy="431" fill="#9DDFFF" r="3.5" /><text fill="#EEF2F5" font-family="DejaVu Sans" font-size="22" x="536" y="438">weak signal</text><circle cx="520" cy="485" fill="#9DDFFF" r="3.5" /><text fill="#EEF2F5" font-family="DejaVu Sans" font-size="22" x="536" y="492">low battery</text><circle cx="520" cy="539" fill="#9DDFFF" r="3.5" /><text fill="#EEF2F5" font-family="DejaVu Sans" font-size="22" x="536" y="546">device sharing</text><circle cx="520" cy="593" fill="#9DDFFF" r="3.5" /><text fill="#EEF2F5" font-family="DejaVu Sans" font-size="22" x="536" y="600">housing instability</text><rect fill="#0A0F14" height="238" rx="14" ry="14" stroke="#24303A" stroke-width="1.6" width="730" x="798" y="240" /><line opacity="0.1" stroke="#1A242D" stroke-width="1" x1="806" x2="806" y1="248" y2="470" /><line opacity="0.1" stroke="#1A242D" stroke-width="1" x1="830" x2="830" y1="248" y2="470" /><line opacity="0.1" stroke="#1A242D" stroke-width="1" x1="854" x2="854" y1="248" y2="470" /><line opacity="0.1" stroke="#1A242D" stroke-width="1" x1="878" x2="878" y1="248" y2="470" /><line opacity="0.1" stroke="#1A242D" stroke-width="1" x1="902" x2="902" y1="248" y2="470" /><line opacity="0.1" stroke="#1A242D" stroke-width="1" x1="926" x2="926" y1="248" y2="470" /><line opacity="0.1" stroke="#1A242D" stroke-width="1" x1="950" x2="950" y1="248" y2="470" /><line opacity="0.1" stroke="#1A242D" stroke-width="1" x1="974" x2="974" y1="248" y2="470" /><line opacity="0.1" stroke="#1A242D" stroke-width="1" x1="998" x2="998" y1="248" y2="470" /><line opacity="0.1" stroke="#1A242D" stroke-width="1" x1="1022" x2="1022" y1="248" y2="470" /><line opacity="0.1" stroke="#1A242D" stroke-width="1" x1="1046" x2="1046" y1="248" y2="470" /><line opacity="0.1" stroke="#1A242D" stroke-width="1" x1="1070" x2="1070" y1="248" y2="470" /><line opacity="0.1" stroke="#1A242D" stroke-width="1" x1="1094" x2="1094" y1="248" y2="470" /><line opacity="0.1" stroke="#1A242D" stroke-width="1" x1="1118" x2="1118" y1="248" y2="470" /><line opacity="0.1" stroke="#1A242D" stroke-width="1" x1="1142" x2="1142" y1="248" y2="470" /><line opacity="0.1" stroke="#1A242D" stroke-width="1" x1="1166" x2="1166" y1="248" y2="470" /><line opacity="0.1" stroke="#1A242D" stroke-width="1" x1="1190" x2="1190" y1="248" y2="470" /><line opacity="0.1" stroke="#1A242D" stroke-width="1" x1="1214" x2="1214" y1="248" y2="470" /><line opacity="0.1" stroke="#1A242D" stroke-width="1" x1="1238" x2="1238" y1="248" y2="470" /><line opacity="0.1" stroke="#1A242D" stroke-width="1" x1="1262" x2="1262" y1="248" y2="470" /><line opacity="0.1" stroke="#1A242D" stroke-width="1" x1="1286" x2="1286" y1="248" y2="470" /><line opacity="0.1" stroke="#1A242D" stroke-width="1" x1="1310" x2="1310" y1="248" y2="470" /><line opacity="0.1" stroke="#1A242D" stroke-width="1" x1="1334" x2="1334" y1="248" y2="470" /><line opacity="0.1" stroke="#1A242D" stroke-width="1" x1="1358" x2="1358" y1="248" y2="470" /><line opacity="0.1" stroke="#1A242D" stroke-width="1" x1="1382" x2="1382" y1="248" y2="470" /><line opacity="0.1" stroke="#1A242D" stroke-width="1" x1="1406" x2="1406" y1="248" y2="470" /><line opacity="0.1" stroke="#1A242D" stroke-width="1" x1="1430" x2="1430" y1="248" y2="470" /><line opacity="0.1" stroke="#1A242D" stroke-width="1" x1="1454" x2="1454" y1="248" y2="470" /><line opacity="0.1" stroke="#1A242D" stroke-width="1" x1="1478" x2="1478" y1="248" y2="470" /><line opacity="0.1" stroke="#1A242D" stroke-width="1" x1="1502" x2="1502" y1="248" y2="470" /><line opacity="0.1" stroke="#1A242D" stroke-width="1" x1="806" x2="1520" y1="248" y2="248" /><line opacity="0.1" stroke="#1A242D" stroke-width="1" x1="806" x2="1520" y1="272" y2="272" /><line opacity="0.1" stroke="#1A242D" stroke-width="1" x1="806" x2="1520" y1="296" y2="296" /><line opacity="0.1" stroke="#1A242D" stroke-width="1" x1="806" x2="1520" y1="320" y2="320" /><line opacity="0.1" stroke="#1A242D" stroke-width="1" x1="806" x2="1520" y1="344" y2="344" /><line opacity="0.1" stroke="#1A242D" stroke-width="1" x1="806" x2="1520" y1="368" y2="368" /><line opacity="0.1" stroke="#1A242D" stroke-width="1" x1="806" x2="1520" y1="392" y2="392" /><line opacity="0.1" stroke="#1A242D" stroke-width="1" x1="806" x2="1520" y1="416" y2="416" /><line opacity="0.1" stroke="#1A242D" stroke-width="1" x1="806" x2="1520" y1="440" y2="440" /><line opacity="0.1" stroke="#1A242D" stroke-width="1" x1="806" x2="1520" y1="464" y2="464" /><rect fill="#0F161D" height="28" rx="14" ry="14" stroke="#24303A" stroke-width="1" width="176" x="816" y="252" /><text fill="#D2F1FF" font-family="DejaVu Sans Mono" font-size="15" letter-spacing="1.4px" x="829" y="271">SYSTEM BEHAVIOR</text><text fill="#EEF2F5" font-family="DejaVu Sans" font-size="24" font-weight="700" x="816" y="302">Degradation State</text><circle cx="830" cy="323" fill="#9DDFFF" r="3.5" /><text fill="#EEF2F5" font-family="DejaVu Sans" font-size="24" x="846" y="330">attention narrows</text><circle cx="830" cy="368" fill="#9DDFFF" r="3.5" /><text fill="#EEF2F5" font-family="DejaVu Sans" font-size="24" x="846" y="375">latency accumulates</text><circle cx="830" cy="413" fill="#9DDFFF" r="3.5" /><text fill="#EEF2F5" font-family="DejaVu Sans" font-size="24" x="846" y="420">privacy margin thins</text><circle cx="830" cy="458" fill="#9DDFFF" r="3.5" /><text fill="#EEF2F5" font-family="DejaVu Sans" font-size="24" x="846" y="465">task confidence collapses</text><rect fill="#0A0F14" height="238" rx="14" ry="14" stroke="#24303A" stroke-width="1.6" width="730" x="798" y="512" /><line opacity="0.1" stroke="#1A242D" stroke-width="1" x1="806" x2="806" y1="520" y2="742" /><line opacity="0.1" stroke="#1A242D" stroke-width="1" x1="830" x2="830" y1="520" y2="742" /><line opacity="0.1" stroke="#1A242D" stroke-width="1" x1="854" x2="854" y1="520" y2="742" /><line opacity="0.1" stroke="#1A242D" stroke-width="1" x1="878" x2="878" y1="520" y2="742" /><line opacity="0.1" stroke="#1A242D" stroke-width="1" x1="902" x2="902" y1="520" y2="742" /><line opacity="0.1" stroke="#1A242D" stroke-width="1" x1="926" x2="926" y1="520" y2="742" /><line opacity="0.1" stroke="#1A242D" stroke-width="1" x1="950" x2="950" y1="520" y2="742" /><line opacity="0.1" stroke="#1A242D" stroke-width="1" x1="974" x2="974" y1="520" y2="742" /><line opacity="0.1" stroke="#1A242D" stroke-width="1" x1="998" x2="998" y1="520" y2="742" /><line opacity="0.1" stroke="#1A242D" stroke-width="1" x1="1022" x2="1022" y1="520" y2="742" /><line opacity="0.1" stroke="#1A242D" stroke-width="1" x1="1046" x2="1046" y1="520" y2="742" /><line opacity="0.1" stroke="#1A242D" stroke-width="1" x1="1070" x2="1070" y1="520" y2="742" /><line opacity="0.1" stroke="#1A242D" stroke-width="1" x1="1094" x2="1094" y1="520" y2="742" /><line opacity="0.1" stroke="#1A242D" stroke-width="1" x1="1118" x2="1118" y1="520" y2="742" /><line opacity="0.1" stroke="#1A242D" stroke-width="1" x1="1142" x2="1142" y1="520" y2="742" /><line opacity="0.1" stroke="#1A242D" stroke-width="1" x1="1166" x2="1166" y1="520" y2="742" /><line opacity="0.1" stroke="#1A242D" stroke-width="1" x1="1190" x2="1190" y1="520" y2="742" /><line opacity="0.1" stroke="#1A242D" stroke-width="1" x1="1214" x2="1214" y1="520" y2="742" /><line opacity="0.1" stroke="#1A242D" stroke-width="1" x1="1238" x2="1238" y1="520" y2="742" /><line opacity="0.1" stroke="#1A242D" stroke-width="1" x1="1262" x2="1262" y1="520" y2="742" /><line opacity="0.1" stroke="#1A242D" stroke-width="1" x1="1286" x2="1286" y1="520" y2="742" /><line opacity="0.1" stroke="#1A242D" stroke-width="1" x1="1310" x2="1310" y1="520" y2="742" /><line opacity="0.1" stroke="#1A242D" stroke-width="1" x1="1334" x2="1334" y1="520" y2="742" /><line opacity="0.1" stroke="#1A242D" stroke-width="1" x1="1358" x2="1358" y1="520" y2="742" /><line opacity="0.1" stroke="#1A242D" stroke-width="1" x1="1382" x2="1382" y1="520" y2="742" /><line opacity="0.1" stroke="#1A242D" stroke-width="1" x1="1406" x2="1406" y1="520" y2="742" /><line opacity="0.1" stroke="#1A242D" stroke-width="1" x1="1430" x2="1430" y1="520" y2="742" /><line opacity="0.1" stroke="#1A242D" stroke-width="1" x1="1454" x2="1454" y1="520" y2="742" /><line opacity="0.1" stroke="#1A242D" stroke-width="1" x1="1478" x2="1478" y1="520" y2="742" /><line opacity="0.1" stroke="#1A242D" stroke-width="1" x1="1502" x2="1502" y1="520" y2="742" /><line opacity="0.1" stroke="#1A242D" stroke-width="1" x1="806" x2="1520" y1="520" y2="520" /><line opacity="0.1" stroke="#1A242D" stroke-width="1" x1="806" x2="1520" y1="544" y2="544" /><line opacity="0.1" stroke="#1A242D" stroke-width="1" x1="806" x2="1520" y1="568" y2="568" /><line opacity="0.1" stroke="#1A242D" stroke-width="1" x1="806" x2="1520" y1="592" y2="592" /><line opacity="0.1" stroke="#1A242D" stroke-width="1" x1="806" x2="1520" y1="616" y2="616" /><line opacity="0.1" stroke="#1A242D" stroke-width="1" x1="806" x2="1520" y1="640" y2="640" /><line opacity="0.1" stroke="#1A242D" stroke-width="1" x1="806" x2="1520" y1="664" y2="664" /><line opacity="0.1" stroke="#1A242D" stroke-width="1" x1="806" x2="1520" y1="688" y2="688" /><line opacity="0.1" stroke="#1A242D" stroke-width="1" x1="806" x2="1520" y1="712" y2="712" /><line opacity="0.1" stroke="#1A242D" stroke-width="1" x1="806" x2="1520" y1="736" y2="736" /><rect fill="#0F161D" height="28" rx="14" ry="14" stroke="#24303A" stroke-width="1" width="296" x="816" y="524" /><text fill="#D2F1FF" font-family="DejaVu Sans Mono" font-size="15" letter-spacing="1.4px" x="829" y="543">WHAT THE USER ACTUALLY GETS</text><text fill="#EEF2F5" font-family="DejaVu Sans" font-size="24" font-weight="700" x="816" y="574">Observable Outcomes</text><circle cx="830" cy="595" fill="#9DDFFF" r="3.5" /><text fill="#EEF2F5" font-family="DejaVu Sans" font-size="24" x="846" y="602">forced exposure</text><circle cx="830" cy="635" fill="#9DDFFF" r="3.5" /><text fill="#EEF2F5" font-family="DejaVu Sans" font-size="24" x="846" y="642">abandonment</text><circle cx="830" cy="675" fill="#9DDFFF" r="3.5" /><text fill="#EEF2F5" font-family="DejaVu Sans" font-size="24" x="846" y="682">silent failure</text><circle cx="830" cy="715" fill="#9DDFFF" r="3.5" /><text fill="#EEF2F5" font-family="DejaVu Sans" font-size="24" x="846" y="722">error cascades</text><circle cx="830" cy="755" fill="#9DDFFF" r="3.5" /><text fill="#EEF2F5" font-family="DejaVu Sans" font-size="24" x="846" y="762">self-blame replacing diagnosis</text><line stroke="#9DDFFF" stroke-width="2.2" x1="432" x2="490" y1="495" y2="495" /><polygon fill="#9DDFFF" points="490,495 480.9903113209758,499.33883739117556 480.9903113209758,490.66116260882444" /><line stroke="#9DDFFF" stroke-width="2.2" x1="740" x2="798" y1="360" y2="360" /><polygon fill="#9DDFFF" points="798,360 788.9903113209758,364.33883739117556 788.9903113209758,355.66116260882444" /><line stroke="#9DDFFF" stroke-width="2.2" x1="740" x2="798" y1="620" y2="620" /><polygon fill="#9DDFFF" points="798,620 788.9903113209758,624.3388373911756 788.9903113209758,615.6611626088244" /><line stroke="#D2F1FF" stroke-dasharray="5,6" stroke-width="1.5" x1="490" x2="740" y1="495" y2="495" /><text fill="#9AA8B5" font-family="DejaVu Sans Mono" font-size="16" letter-spacing="1.5px" x="72" y="846">CRISISCORE-SYSTEMS / PROTECTIVE COMPUTING</text><text fill="#9AA8B5" font-family="DejaVu Sans Mono" font-size="16" letter-spacing="1.5px" text-anchor="end" x="1528" y="846">policy diagram / engineering schematic</text></svg>