<svg baseProfile="full" height="900" version="1.1" viewBox="0,0,1600,900" width="1600" xmlns="http://www.w3.org/2000/svg" xmlns:ev="http://www.w3.org/2001/xml-events" xmlns:xlink="http://www.w3.org/1999/xlink"><defs /><rect fill="#05080C" height="900" width="1600" x="0" y="0" /><rect fill="none" height="836" stroke="#24303A" stroke-width="1.5" width="1536" x="32" y="32" /><line stroke="#1A242D" stroke-width="1" x1="32" x2="1568" y1="96" y2="96" /><line stroke="#1A242D" stroke-width="1" x1="32" x2="1568" y1="804" y2="804" /><text fill="#9AA8B5" font-family="DejaVu Sans Mono" font-size="18" letter-spacing="2px" x="72" y="70">BLACKPAPER RESEARCH</text><text fill="#9DDFFF" font-family="DejaVu Sans Mono" font-size="18" letter-spacing="2px" text-anchor="end" x="1528" y="70">DIAGRAM 05</text><text fill="#EEF2F5" font-family="DejaVu Sans" font-size="40" font-weight="700" x="72" y="150">Failure Mode Taxonomy</text><text fill="#9AA8B5" font-family="DejaVu Sans" font-size="20" x="72" y="185">A matrix of how unstable conditions map to classes of user-harming breakdown.</text><rect fill="#0C1218" height="92" rx="14" ry="14" stroke="#24303A" stroke-width="1.6" width="220" x="130" y="250" /><rect fill="#0C1218" height="92" rx="14" ry="14" stroke="#24303A" stroke-width="1.6" width="220" x="350" y="250" /><text fill="#EEF2F5" font-family="DejaVu Sans Mono" font-size="18" text-anchor="middle" x="460.0" y="304">EXPOSURE</text><rect fill="#0C1218" height="92" rx="14" ry="14" stroke="#24303A" stroke-width="1.6" width="220" x="570" y="250" /><text fill="#EEF2F5" font-family="DejaVu Sans Mono" font-size="18" text-anchor="middle" x="680.0" y="304">ABANDONMENT</text><rect fill="#0C1218" height="92" rx="14" ry="14" stroke="#24303A" stroke-width="1.6" width="220" x="790" y="250" /><text fill="#EEF2F5" font-family="DejaVu Sans Mono" font-size="18" text-anchor="middle" x="900.0" y="304">DELAY</text><rect fill="#0C1218" height="92" rx="14" ry="14" stroke="#24303A" stroke-width="1.6" width="220" x="1010" y="250" /><text fill="#EEF2F5" font-family="DejaVu Sans Mono" font-size="18" text-anchor="middle" x="1120.0" y="304">MISREADING</text><rect fill="#0C1218" height="92" rx="14" ry="14" stroke="#24303A" stroke-width="1.6" width="220" x="1230" y="250" /><text fill="#EEF2F5" font-family="DejaVu Sans Mono" font-size="18" text-anchor="middle" x="1340.0" y="304">LOCKOUT</text><rect fill="#0C1218" height="92" rx="14" ry="14" stroke="#24303A" stroke-width="1.6" width="220" x="130" y="342" /><text fill="#EEF2F5" font-family="DejaVu Sans Mono" font-size="18" text-anchor="middle" x="240.0" y="396">LOW BATTERY</text><rect fill="#0A0F14" height="92" rx="14" ry="14" stroke="#24303A" stroke-width="1.6" width="220" x="350" y="342" /><text fill="#EBCB84" font-family="DejaVu Sans" font-size="28" font-weight="700" text-anchor="middle" x="460.0" y="396">MOD</text><rect fill="#0A0F14" height="92" rx="14" ry="14" stroke="#24303A" stroke-width="1.6" width="220" x="570" y="342" /><text fill="#F3A0A0" font-family="DejaVu Sans" font-size="28" font-weight="700" text-anchor="middle" x="680.0" y="396">HIGH</text><rect fill="#0A0F14" height="92" rx="14" ry="14" stroke="#24303A" stroke-width="1.6" width="220" x="790" y="342" /><text fill="#F3A0A0" font-family="DejaVu Sans" font-size="28" font-weight="700" text-anchor="middle" x="900.0" y="396">HIGH</text><rect fill="#0A0F14" height="92" rx="14" ry="14" stroke="#24303A" stroke-width="1.6" width="220" x="1010" y="342" /><text fill="#A9E5C4" font-family="DejaVu Sans" font-size="28" font-weight="700" text-anchor="middle" x="1120.0" y="396">LOW</text><rect fill="#0A0F14" height="92" rx="14" ry="14" stroke="#24303A" stroke-width="1.6" width="220" x="1230" y="342" /><text fill="#EBCB84" font-family="DejaVu Sans" font-size="28" font-weight="700" text-anchor="middle" x="1340.0" y="396">MOD</text><rect fill="#0C1218" height="92" rx="14" ry="14" stroke="#24303A" stroke-width="1.6" width="220" x="130" y="434" /><text fill="#EEF2F5" font-family="DejaVu Sans Mono" font-size="18" text-anchor="middle" x="240.0" y="488">WEAK SIGNAL</text><rect fill="#0A0F14" height="92" rx="14" ry="14" stroke="#24303A" stroke-width="1.6" width="220" x="350" y="434" /><text fill="#EBCB84" font-family="DejaVu Sans" font-size="28" font-weight="700" text-anchor="middle" x="460.0" y="488">MOD</text><rect fill="#0A0F14" height="92" rx="14" ry="14" stroke="#24303A" stroke-width="1.6" width="220" x="570" y="434" /><text fill="#F3A0A0" font-family="DejaVu Sans" font-size="28" font-weight="700" text-anchor="middle" x="680.0" y="488">HIGH</text><rect fill="#0A0F14" height="92" rx="14" ry="14" stroke="#24303A" stroke-width="1.6" width="220" x="790" y="434" /><text fill="#F3A0A0" font-family="DejaVu Sans" font-size="28" font-weight="700" text-anchor="middle" x="900.0" y="488">HIGH</text><rect fill="#0A0F14" height="92" rx="14" ry="14" stroke="#24303A" stroke-width="1.6" width="220" x="1010" y="434" /><text fill="#EBCB84" font-family="DejaVu Sans" font-size="28" font-weight="700" text-anchor="middle" x="1120.0" y="488">MOD</text><rect fill="#0A0F14" height="92" rx="14" ry="14" stroke="#24303A" stroke-width="1.6" width="220" x="1230" y="434" /><text fill="#EBCB84" font-family="DejaVu Sans" font-size="28" font-weight="700" text-anchor="middle" x="1340.0" y="488">MOD</text><rect fill="#0C1218" height="92" rx="14" ry="14" stroke="#24303A" stroke-width="1.6" width="220" x="130" y="526" /><text fill="#EEF2F5" font-family="DejaVu Sans Mono" font-size="18" text-anchor="middle" x="240.0" y="580">PAIN / PANIC</text><rect fill="#0A0F14" height="92" rx="14" ry="14" stroke="#24303A" stroke-width="1.6" width="220" x="350" y="526" /><text fill="#F3A0A0" font-family="DejaVu Sans" font-size="28" font-weight="700" text-anchor="middle" x="460.0" y="580">HIGH</text><rect fill="#0A0F14" height="92" rx="14" ry="14" stroke="#24303A" stroke-width="1.6" width="220" x="570" y="526" /><text fill="#F3A0A0" font-family="DejaVu Sans" font-size="28" font-weight="700" text-anchor="middle" x="680.0" y="580">HIGH</text><rect fill="#0A0F14" height="92" rx="14" ry="14" stroke="#24303A" stroke-width="1.6" width="220" x="790" y="526" /><text fill="#EBCB84" font-family="DejaVu Sans" font-size="28" font-weight="700" text-anchor="middle" x="900.0" y="580">MOD</text><rect fill="#0A0F14" height="92" rx="14" ry="14" stroke="#24303A" stroke-width="1.6" width="220" x="1010" y="526" /><text fill="#F3A0A0" font-family="DejaVu Sans" font-size="28" font-weight="700" text-anchor="middle" x="1120.0" y="580">HIGH</text><rect fill="#0A0F14" height="92" rx="14" ry="14" stroke="#24303A" stroke-width="1.6" width="220" x="1230" y="526" /><text fill="#EBCB84" font-family="DejaVu Sans" font-size="28" font-weight="700" text-anchor="middle" x="1340.0" y="580">MOD</text><rect fill="#0C1218" height="92" rx="14" ry="14" stroke="#24303A" stroke-width="1.6" width="220" x="130" y="618" /><text fill="#EEF2F5" font-family="DejaVu Sans Mono" font-size="18" text-anchor="middle" x="240.0" y="672">DEVICE SHARING</text><rect fill="#0A0F14" height="92" rx="14" ry="14" stroke="#24303A" stroke-width="1.6" width="220" x="350" y="618" /><text fill="#F3A0A0" font-family="DejaVu Sans" font-size="28" font-weight="700" text-anchor="middle" x="460.0" y="672">HIGH</text><rect fill="#0A0F14" height="92" rx="14" ry="14" stroke="#24303A" stroke-width="1.6" width="220" x="570" y="618" /><text fill="#EBCB84" font-family="DejaVu Sans" font-size="28" font-weight="700" text-anchor="middle" x="680.0" y="672">MOD</text><rect fill="#0A0F14" height="92" rx="14" ry="14" stroke="#24303A" stroke-width="1.6" width="220" x="790" y="618" /><text fill="#A9E5C4" font-family="DejaVu Sans" font-size="28" font-weight="700" text-anchor="middle" x="900.0" y="672">LOW</text><rect fill="#0A0F14" height="92" rx="14" ry="14" stroke="#24303A" stroke-width="1.6" width="220" x="1010" y="618" /><text fill="#EBCB84" font-family="DejaVu Sans" font-size="28" font-weight="700" text-anchor="middle" x="1120.0" y="672">MOD</text><rect fill="#0A0F14" height="92" rx="14" ry="14" stroke="#24303A" stroke-width="1.6" width="220" x="1230" y="618" /><text fill="#F3A0A0" font-family="DejaVu Sans" font-size="28" font-weight="700" text-anchor="middle" x="1340.0" y="672">HIGH</text><text fill="#9AA8B5" font-family="DejaVu Sans Mono" font-size="16" letter-spacing="1.5px" x="72" y="846">CRISISCORE-SYSTEMS / PROTECTIVE COMPUTING</text><text fill="#9AA8B5" font-family="DejaVu Sans Mono" font-size="16" letter-spacing="1.5px" text-anchor="end" x="1528" y="846">severity matrix</text></svg>