<svg baseProfile="full" height="300" version="1.1" viewBox="0,0,1200,300" width="1200" xmlns="http://www.w3.org/2000/svg" xmlns:ev="http://www.w3.org/2001/xml-events" xmlns:xlink="http://www.w3.org/1999/xlink"><defs /><rect fill="#05080C" height="300" width="1200" x="0" y="0" /><rect fill="none" height="236" stroke="#24303A" stroke-width="1.5" width="1136" x="32" y="32" /><line stroke="#1A242D" stroke-width="1" x1="32" x2="1168" y1="96" y2="96" /><line stroke="#1A242D" stroke-width="1" x1="32" x2="1168" y1="204" y2="204" /><text fill="#9AA8B5" font-family="DejaVu Sans Mono" font-size="16" letter-spacing="1.8px" x="72" y="78">CRISISCORE-SYSTEMS / EMAIL SIGNATURE</text><text fill="#EEF2F5" font-family="DejaVu Sans" font-size="42" font-weight="700" x="72" y="138">CrisisCore-Systems</text><text fill="#D2F1FF" font-family="DejaVu Sans" font-size="20" x="72" y="180">defensible trust architecture / protective computing</text><rect fill="#0A0F14" height="174" rx="14" ry="14" stroke="#24303A" stroke-width="1.6" width="336" x="792" y="60" /><line opacity="0.1" stroke="#1A242D" stroke-width="1" x1="800" x2="800" y1="68" y2="226" /><line opacity="0.1" stroke="#1A242D" stroke-width="1" x1="824" x2="824" y1="68" y2="226" /><line opacity="0.1" stroke="#1A242D" stroke-width="1" x1="848" x2="848" y1="68" y2="226" /><line opacity="0.1" stroke="#1A242D" stroke-width="1" x1="872" x2="872" y1="68" y2="226" /><line opacity="0.1" stroke="#1A242D" stroke-width="1" x1="896" x2="896" y1="68" y2="226" /><line opacity="0.1" stroke="#1A242D" stroke-width="1" x1="920" x2="920" y1="68" y2="226" /><line opacity="0.1" stroke="#1A242D" stroke-width="1" x1="944" x2="944" y1="68" y2="226" /><line opacity="0.1" stroke="#1A242D" stroke-width="1" x1="968" x2="968" y1="68" y2="226" /><line opacity="0.1" stroke="#1A242D" stroke-width="1" x1="992" x2="992" y1="68" y2="226" /><line opacity="0.1" stroke="#1A242D" stroke-width="1" x1="1016" x2="1016" y1="68" y2="226" /><line opacity="0.1" stroke="#1A242D" stroke-width="1" x1="1040" x2="1040" y1="68" y2="226" /><line opacity="0.1" stroke="#1A242D" stroke-width="1" x1="1064" x2="1064" y1="68" y2="226" /><line opacity="0.1" stroke="#1A242D" stroke-width="1" x1="1088" x2="1088" y1="68" y2="226" /><line opacity="0.1" stroke="#1A242D" stroke-width="1" x1="1112" x2="1112" y1="68" y2="226" /><line opacity="0.1" stroke="#1A242D" stroke-width="1" x1="800" x2="1120" y1="68" y2="68" /><line opacity="0.1" stroke="#1A242D" stroke-width="1" x1="800" x2="1120" y1="92" y2="92" /><line opacity="0.1" stroke="#1A242D" stroke-width="1" x1="800" x2="1120" y1="116" y2="116" /><line opacity="0.1" stroke="#1A242D" stroke-width="1" x1="800" x2="1120" y1="140" y2="140" /><line opacity="0.1" stroke="#1A242D" stroke-width="1" x1="800" x2="1120" y1="164" y2="164" /><line opacity="0.1" stroke="#1A242D" stroke-width="1" x1="800" x2="1120" y1="188" y2="188" /><line opacity="0.1" stroke="#1A242D" stroke-width="1" x1="800" x2="1120" y1="212" y2="212" /><rect fill="#0F161D" height="28" rx="14" ry="14" stroke="#24303A" stroke-width="1" width="166" x="810" y="72" /><text fill="#D2F1FF" font-family="DejaVu Sans Mono" font-size="15" letter-spacing="1.4px" x="823" y="91">IDENTITY PLATE</text><circle cx="960" cy="147" fill="none" r="27" stroke="#9DDFFF" stroke-width="2.4" /><circle cx="960" cy="147" fill="none" r="48" stroke="#24303A" stroke-width="1.6" /><line stroke="#24303A" stroke-width="1.6" x1="880" x2="1040" y1="147" y2="147" /><line stroke="#24303A" stroke-width="1.6" x1="960" x2="960" y1="113" y2="181" /><text fill="#9AA8B5" font-family="DejaVu Sans Mono" font-size="14" x="814" y="104">local authority</text><text fill="#9AA8B5" font-family="DejaVu Sans Mono" font-size="14" x="814" y="128">visible recovery</text><text fill="#9AA8B5" font-family="DejaVu Sans Mono" font-size="16" letter-spacing="1.5px" x="72" y="246">CRISISCORE-SYSTEMS / PROTECTIVE COMPUTING</text><text fill="#9AA8B5" font-family="DejaVu Sans Mono" font-size="16" letter-spacing="1.5px" text-anchor="end" x="1128" y="246">founder identity</text></svg>