<svg baseProfile="full" height="640" version="1.1" viewBox="0,0,1280,640" width="1280" xmlns="http://www.w3.org/2000/svg" xmlns:ev="http://www.w3.org/2001/xml-events" xmlns:xlink="http://www.w3.org/1999/xlink"><defs /><rect fill="#05080C" height="640" width="1280" x="0" y="0" /><rect fill="none" height="576" stroke="#24303A" stroke-width="1.5" width="1216" x="32" y="32" /><line stroke="#1A242D" stroke-width="1" x1="32" x2="1248" y1="96" y2="96" /><line stroke="#1A242D" stroke-width="1" x1="32" x2="1248" y1="544" y2="544" /><text fill="#9AA8B5" font-family="DejaVu Sans Mono" font-size="32" letter-spacing="1.8px" x="72" y="78">CRISISCORE-SYSTEMS / GITHUB SOCIAL</text><text fill="#EEF2F5" font-family="DejaVu Sans" font-size="89" font-weight="700" x="72" y="294">Kalyim / CrisisCore-Systems</text><text fill="#D2F1FF" font-family="DejaVu Sans" font-size="35" x="72" y="384">founder of a survivability-first software discipline</text><text fill="#9AA8B5" font-family="DejaVu Sans" font-size="28" x="72" y="460">protective computing / trust architecture / local authority</text><rect fill="#0A0F14" height="371" rx="14" ry="14" stroke="#24303A" stroke-width="1.6" width="358" x="850" y="128" /><line opacity="0.1" stroke="#1A242D" stroke-width="1" x1="858" x2="858" y1="136" y2="491" /><line opacity="0.1" stroke="#1A242D" stroke-width="1" x1="882" x2="882" y1="136" y2="491" /><line opacity="0.1" stroke="#1A242D" stroke-width="1" x1="906" x2="906" y1="136" y2="491" /><line opacity="0.1" stroke="#1A242D" stroke-width="1" x1="930" x2="930" y1="136" y2="491" /><line opacity="0.1" stroke="#1A242D" stroke-width="1" x1="954" x2="954" y1="136" y2="491" /><line opacity="0.1" stroke="#1A242D" stroke-width="1" x1="978" x2="978" y1="136" y2="491" /><line opacity="0.1" stroke="#1A242D" stroke-width="1" x1="1002" x2="1002" y1="136" y2="491" /><line opacity="0.1" stroke="#1A242D" stroke-width="1" x1="1026" x2="1026" y1="136" y2="491" /><line opacity="0.1" stroke="#1A242D" stroke-width="1" x1="1050" x2="1050" y1="136" y2="491" /><line opacity="0.1" stroke="#1A242D" stroke-width="1" x1="1074" x2="1074" y1="136" y2="491" /><line opacity="0.1" stroke="#1A242D" stroke-width="1" x1="1098" x2="1098" y1="136" y2="491" /><line opacity="0.1" stroke="#1A242D" stroke-width="1" x1="1122" x2="1122" y1="136" y2="491" /><line opacity="0.1" stroke="#1A242D" stroke-width="1" x1="1146" x2="1146" y1="136" y2="491" /><line opacity="0.1" stroke="#1A242D" stroke-width="1" x1="1170" x2="1170" y1="136" y2="491" /><line opacity="0.1" stroke="#1A242D" stroke-width="1" x1="1194" x2="1194" y1="136" y2="491" /><line opacity="0.1" stroke="#1A242D" stroke-width="1" x1="858" x2="1200" y1="136" y2="136" /><line opacity="0.1" stroke="#1A242D" stroke-width="1" x1="858" x2="1200" y1="160" y2="160" /><line opacity="0.1" stroke="#1A242D" stroke-width="1" x1="858" x2="1200" y1="184" y2="184" /><line opacity="0.1" stroke="#1A242D" stroke-width="1" x1="858" x2="1200" y1="208" y2="208" /><line opacity="0.1" stroke="#1A242D" stroke-width="1" x1="858" x2="1200" y1="232" y2="232" /><line opacity="0.1" stroke="#1A242D" stroke-width="1" x1="858" x2="1200" y1="256" y2="256" /><line opacity="0.1" stroke="#1A242D" stroke-width="1" x1="858" x2="1200" y1="280" y2="280" /><line opacity="0.1" stroke="#1A242D" stroke-width="1" x1="858" x2="1200" y1="304" y2="304" /><line opacity="0.1" stroke="#1A242D" stroke-width="1" x1="858" x2="1200" y1="328" y2="328" /><line opacity="0.1" stroke="#1A242D" stroke-width="1" x1="858" x2="1200" y1="352" y2="352" /><line opacity="0.1" stroke="#1A242D" stroke-width="1" x1="858" x2="1200" y1="376" y2="376" /><line opacity="0.1" stroke="#1A242D" stroke-width="1" x1="858" x2="1200" y1="400" y2="400" /><line opacity="0.1" stroke="#1A242D" stroke-width="1" x1="858" x2="1200" y1="424" y2="424" /><line opacity="0.1" stroke="#1A242D" stroke-width="1" x1="858" x2="1200" y1="448" y2="448" /><line opacity="0.1" stroke="#1A242D" stroke-width="1" x1="858" x2="1200" y1="472" y2="472" /><rect fill="#0F161D" height="28" rx="14" ry="14" stroke="#24303A" stroke-width="1" width="166" x="868" y="140" /><text fill="#D2F1FF" font-family="DejaVu Sans Mono" font-size="15" letter-spacing="1.4px" x="881" y="159">IDENTITY PLATE</text><circle cx="1029" cy="313" fill="none" r="57" stroke="#9DDFFF" stroke-width="2.4" /><circle cx="1029" cy="313" fill="none" r="100" stroke="#24303A" stroke-width="1.6" /><line stroke="#24303A" stroke-width="1.6" x1="944" x2="1114" y1="313" y2="313" /><line stroke="#24303A" stroke-width="1.6" x1="1029" x2="1029" y1="239" y2="387" /><text fill="#9AA8B5" font-family="DejaVu Sans Mono" font-size="19" x="872" y="172">local authority</text><text fill="#9AA8B5" font-family="DejaVu Sans Mono" font-size="19" x="872" y="196">visible recovery</text><text fill="#9AA8B5" font-family="DejaVu Sans Mono" font-size="16" letter-spacing="1.5px" x="72" y="586">CRISISCORE-SYSTEMS / PROTECTIVE COMPUTING</text><text fill="#9AA8B5" font-family="DejaVu Sans Mono" font-size="16" letter-spacing="1.5px" text-anchor="end" x="1208" y="586">founder identity</text></svg>