<svg baseProfile="full" height="900" version="1.1" viewBox="0,0,1600,900" width="1600" xmlns="http://www.w3.org/2000/svg" xmlns:ev="http://www.w3.org/2001/xml-events" xmlns:xlink="http://www.w3.org/1999/xlink"><defs /><rect fill="#05080C" height="900" width="1600" x="0" y="0" /><rect fill="none" height="836" stroke="#24303A" stroke-width="1.5" width="1536" x="32" y="32" /><line stroke="#1A242D" stroke-width="1" x1="32" x2="1568" y1="96" y2="96" /><line stroke="#1A242D" stroke-width="1" x1="32" x2="1568" y1="804" y2="804" /><text fill="#9AA8B5" font-family="DejaVu Sans Mono" font-size="18" letter-spacing="2px" x="72" y="70">BLACKPAPER RESEARCH</text><text fill="#9DDFFF" font-family="DejaVu Sans Mono" font-size="18" letter-spacing="2px" text-anchor="end" x="1528" y="70">DIAGRAM 06</text><text fill="#EEF2F5" font-family="DejaVu Sans" font-size="40" font-weight="700" x="72" y="150">Defensibility Packet Flow</text><text fill="#9AA8B5" font-family="DejaVu Sans" font-size="20" x="72" y="185">How architectural claims become reviewable, release-tied decision artifacts.</text><rect fill="#0A0F14" height="200" rx="14" ry="14" stroke="#24303A" stroke-width="1.6" width="282" x="72" y="340" /><line opacity="0.1" stroke="#1A242D" stroke-width="1" x1="80" x2="80" y1="348" y2="532" /><line opacity="0.1" stroke="#1A242D" stroke-width="1" x1="104" x2="104" y1="348" y2="532" /><line opacity="0.1" stroke="#1A242D" stroke-width="1" x1="128" x2="128" y1="348" y2="532" /><line opacity="0.1" stroke="#1A242D" stroke-width="1" x1="152" x2="152" y1="348" y2="532" /><line opacity="0.1" stroke="#1A242D" stroke-width="1" x1="176" x2="176" y1="348" y2="532" /><line opacity="0.1" stroke="#1A242D" stroke-width="1" x1="200" x2="200" y1="348" y2="532" /><line opacity="0.1" stroke="#1A242D" stroke-width="1" x1="224" x2="224" y1="348" y2="532" /><line opacity="0.1" stroke="#1A242D" stroke-width="1" x1="248" x2="248" y1="348" y2="532" /><line opacity="0.1" stroke="#1A242D" stroke-width="1" x1="272" x2="272" y1="348" y2="532" /><line opacity="0.1" stroke="#1A242D" stroke-width="1" x1="296" x2="296" y1="348" y2="532" /><line opacity="0.1" stroke="#1A242D" stroke-width="1" x1="320" x2="320" y1="348" y2="532" /><line opacity="0.1" stroke="#1A242D" stroke-width="1" x1="344" x2="344" y1="348" y2="532" /><line opacity="0.1" stroke="#1A242D" stroke-width="1" x1="80" x2="346" y1="348" y2="348" /><line opacity="0.1" stroke="#1A242D" stroke-width="1" x1="80" x2="346" y1="372" y2="372" /><line opacity="0.1" stroke="#1A242D" stroke-width="1" x1="80" x2="346" y1="396" y2="396" /><line opacity="0.1" stroke="#1A242D" stroke-width="1" x1="80" x2="346" y1="420" y2="420" /><line opacity="0.1" stroke="#1A242D" stroke-width="1" x1="80" x2="346" y1="444" y2="444" /><line opacity="0.1" stroke="#1A242D" stroke-width="1" x1="80" x2="346" y1="468" y2="468" /><line opacity="0.1" stroke="#1A242D" stroke-width="1" x1="80" x2="346" y1="492" y2="492" /><line opacity="0.1" stroke="#1A242D" stroke-width="1" x1="80" x2="346" y1="516" y2="516" /><rect fill="#0F161D" height="28" rx="14" ry="14" stroke="#24303A" stroke-width="1" width="100" x="90" y="352" /><text fill="#D2F1FF" font-family="DejaVu Sans Mono" font-size="15" letter-spacing="1.4px" x="103" y="371">NODE 01</text><text fill="#EEF2F5" font-family="DejaVu Sans" font-size="24" font-weight="700" x="90" y="402">Inputs</text><text fill="#9AA8B5" font-family="DejaVu Sans" font-size="20" font-weight="400" x="90" y="432">claims / code /</text><text fill="#9AA8B5" font-family="DejaVu Sans" font-size="20" font-weight="400" x="90" y="460">environment / product</text><text fill="#9AA8B5" font-family="DejaVu Sans" font-size="20" font-weight="400" x="90" y="488">flow</text><line stroke="#9DDFFF" stroke-width="2.2" x1="354" x2="410" y1="440" y2="440" /><polygon fill="#9DDFFF" points="410,440 400.9903113209758,444.33883739117556 400.9903113209758,435.66116260882444" /><rect fill="#0A0F14" height="200" rx="14" ry="14" stroke="#24303A" stroke-width="1.6" width="282" x="430" y="340" /><line opacity="0.1" stroke="#1A242D" stroke-width="1" x1="438" x2="438" y1="348" y2="532" /><line opacity="0.1" stroke="#1A242D" stroke-width="1" x1="462" x2="462" y1="348" y2="532" /><line opacity="0.1" stroke="#1A242D" stroke-width="1" x1="486" x2="486" y1="348" y2="532" /><line opacity="0.1" stroke="#1A242D" stroke-width="1" x1="510" x2="510" y1="348" y2="532" /><line opacity="0.1" stroke="#1A242D" stroke-width="1" x1="534" x2="534" y1="348" y2="532" /><line opacity="0.1" stroke="#1A242D" stroke-width="1" x1="558" x2="558" y1="348" y2="532" /><line opacity="0.1" stroke="#1A242D" stroke-width="1" x1="582" x2="582" y1="348" y2="532" /><line opacity="0.1" stroke="#1A242D" stroke-width="1" x1="606" x2="606" y1="348" y2="532" /><line opacity="0.1" stroke="#1A242D" stroke-width="1" x1="630" x2="630" y1="348" y2="532" /><line opacity="0.1" stroke="#1A242D" stroke-width="1" x1="654" x2="654" y1="348" y2="532" /><line opacity="0.1" stroke="#1A242D" stroke-width="1" x1="678" x2="678" y1="348" y2="532" /><line opacity="0.1" stroke="#1A242D" stroke-width="1" x1="702" x2="702" y1="348" y2="532" /><line opacity="0.1" stroke="#1A242D" stroke-width="1" x1="438" x2="704" y1="348" y2="348" /><line opacity="0.1" stroke="#1A242D" stroke-width="1" x1="438" x2="704" y1="372" y2="372" /><line opacity="0.1" stroke="#1A242D" stroke-width="1" x1="438" x2="704" y1="396" y2="396" /><line opacity="0.1" stroke="#1A242D" stroke-width="1" x1="438" x2="704" y1="420" y2="420" /><line opacity="0.1" stroke="#1A242D" stroke-width="1" x1="438" x2="704" y1="444" y2="444" /><line opacity="0.1" stroke="#1A242D" stroke-width="1" x1="438" x2="704" y1="468" y2="468" /><line opacity="0.1" stroke="#1A242D" stroke-width="1" x1="438" x2="704" y1="492" y2="492" /><line opacity="0.1" stroke="#1A242D" stroke-width="1" x1="438" x2="704" y1="516" y2="516" /><rect fill="#0F161D" height="28" rx="14" ry="14" stroke="#24303A" stroke-width="1" width="100" x="448" y="352" /><text fill="#D2F1FF" font-family="DejaVu Sans Mono" font-size="15" letter-spacing="1.4px" x="461" y="371">NODE 02</text><text fill="#EEF2F5" font-family="DejaVu Sans" font-size="24" font-weight="700" x="448" y="402">Fixed-Scope Review</text><text fill="#9AA8B5" font-family="DejaVu Sans" font-size="20" font-weight="400" x="448" y="432">threat boundaries /</text><text fill="#9AA8B5" font-family="DejaVu Sans" font-size="20" font-weight="400" x="448" y="460">abuse cases / failure</text><text fill="#9AA8B5" font-family="DejaVu Sans" font-size="20" font-weight="400" x="448" y="488">assumptions</text><line stroke="#9DDFFF" stroke-width="2.2" x1="712" x2="768" y1="440" y2="440" /><polygon fill="#9DDFFF" points="768,440 758.9903113209758,444.33883739117556 758.9903113209758,435.66116260882444" /><rect fill="#0A0F14" height="200" rx="14" ry="14" stroke="#24303A" stroke-width="1.6" width="282" x="788" y="340" /><line opacity="0.1" stroke="#1A242D" stroke-width="1" x1="796" x2="796" y1="348" y2="532" /><line opacity="0.1" stroke="#1A242D" stroke-width="1" x1="820" x2="820" y1="348" y2="532" /><line opacity="0.1" stroke="#1A242D" stroke-width="1" x1="844" x2="844" y1="348" y2="532" /><line opacity="0.1" stroke="#1A242D" stroke-width="1" x1="868" x2="868" y1="348" y2="532" /><line opacity="0.1" stroke="#1A242D" stroke-width="1" x1="892" x2="892" y1="348" y2="532" /><line opacity="0.1" stroke="#1A242D" stroke-width="1" x1="916" x2="916" y1="348" y2="532" /><line opacity="0.1" stroke="#1A242D" stroke-width="1" x1="940" x2="940" y1="348" y2="532" /><line opacity="0.1" stroke="#1A242D" stroke-width="1" x1="964" x2="964" y1="348" y2="532" /><line opacity="0.1" stroke="#1A242D" stroke-width="1" x1="988" x2="988" y1="348" y2="532" /><line opacity="0.1" stroke="#1A242D" stroke-width="1" x1="1012" x2="1012" y1="348" y2="532" /><line opacity="0.1" stroke="#1A242D" stroke-width="1" x1="1036" x2="1036" y1="348" y2="532" /><line opacity="0.1" stroke="#1A242D" stroke-width="1" x1="1060" x2="1060" y1="348" y2="532" /><line opacity="0.1" stroke="#1A242D" stroke-width="1" x1="796" x2="1062" y1="348" y2="348" /><line opacity="0.1" stroke="#1A242D" stroke-width="1" x1="796" x2="1062" y1="372" y2="372" /><line opacity="0.1" stroke="#1A242D" stroke-width="1" x1="796" x2="1062" y1="396" y2="396" /><line opacity="0.1" stroke="#1A242D" stroke-width="1" x1="796" x2="1062" y1="420" y2="420" /><line opacity="0.1" stroke="#1A242D" stroke-width="1" x1="796" x2="1062" y1="444" y2="444" /><line opacity="0.1" stroke="#1A242D" stroke-width="1" x1="796" x2="1062" y1="468" y2="468" /><line opacity="0.1" stroke="#1A242D" stroke-width="1" x1="796" x2="1062" y1="492" y2="492" /><line opacity="0.1" stroke="#1A242D" stroke-width="1" x1="796" x2="1062" y1="516" y2="516" /><rect fill="#0F161D" height="28" rx="14" ry="14" stroke="#24303A" stroke-width="1" width="100" x="806" y="352" /><text fill="#D2F1FF" font-family="DejaVu Sans Mono" font-size="15" letter-spacing="1.4px" x="819" y="371">NODE 03</text><text fill="#EEF2F5" font-family="DejaVu Sans" font-size="24" font-weight="700" x="806" y="402">Artifact Generation</text><text fill="#9AA8B5" font-family="DejaVu Sans" font-size="20" font-weight="400" x="806" y="432">specimens / matrices /</text><text fill="#9AA8B5" font-family="DejaVu Sans" font-size="20" font-weight="400" x="806" y="460">severity panels /</text><text fill="#9AA8B5" font-family="DejaVu Sans" font-size="20" font-weight="400" x="806" y="488">notes</text><line stroke="#9DDFFF" stroke-width="2.2" x1="1070" x2="1126" y1="440" y2="440" /><polygon fill="#9DDFFF" points="1126,440 1116.9903113209757,444.33883739117556 1116.9903113209757,435.66116260882444" /><rect fill="#0A0F14" height="200" rx="14" ry="14" stroke="#24303A" stroke-width="1.6" width="282" x="1146" y="340" /><line opacity="0.1" stroke="#1A242D" stroke-width="1" x1="1154" x2="1154" y1="348" y2="532" /><line opacity="0.1" stroke="#1A242D" stroke-width="1" x1="1178" x2="1178" y1="348" y2="532" /><line opacity="0.1" stroke="#1A242D" stroke-width="1" x1="1202" x2="1202" y1="348" y2="532" /><line opacity="0.1" stroke="#1A242D" stroke-width="1" x1="1226" x2="1226" y1="348" y2="532" /><line opacity="0.1" stroke="#1A242D" stroke-width="1" x1="1250" x2="1250" y1="348" y2="532" /><line opacity="0.1" stroke="#1A242D" stroke-width="1" x1="1274" x2="1274" y1="348" y2="532" /><line opacity="0.1" stroke="#1A242D" stroke-width="1" x1="1298" x2="1298" y1="348" y2="532" /><line opacity="0.1" stroke="#1A242D" stroke-width="1" x1="1322" x2="1322" y1="348" y2="532" /><line opacity="0.1" stroke="#1A242D" stroke-width="1" x1="1346" x2="1346" y1="348" y2="532" /><line opacity="0.1" stroke="#1A242D" stroke-width="1" x1="1370" x2="1370" y1="348" y2="532" /><line opacity="0.1" stroke="#1A242D" stroke-width="1" x1="1394" x2="1394" y1="348" y2="532" /><line opacity="0.1" stroke="#1A242D" stroke-width="1" x1="1418" x2="1418" y1="348" y2="532" /><line opacity="0.1" stroke="#1A242D" stroke-width="1" x1="1154" x2="1420" y1="348" y2="348" /><line opacity="0.1" stroke="#1A242D" stroke-width="1" x1="1154" x2="1420" y1="372" y2="372" /><line opacity="0.1" stroke="#1A242D" stroke-width="1" x1="1154" x2="1420" y1="396" y2="396" /><line opacity="0.1" stroke="#1A242D" stroke-width="1" x1="1154" x2="1420" y1="420" y2="420" /><line opacity="0.1" stroke="#1A242D" stroke-width="1" x1="1154" x2="1420" y1="444" y2="444" /><line opacity="0.1" stroke="#1A242D" stroke-width="1" x1="1154" x2="1420" y1="468" y2="468" /><line opacity="0.1" stroke="#1A242D" stroke-width="1" x1="1154" x2="1420" y1="492" y2="492" /><line opacity="0.1" stroke="#1A242D" stroke-width="1" x1="1154" x2="1420" y1="516" y2="516" /><rect fill="#0F161D" height="28" rx="14" ry="14" stroke="#24303A" stroke-width="1" width="100" x="1164" y="352" /><text fill="#D2F1FF" font-family="DejaVu Sans Mono" font-size="15" letter-spacing="1.4px" x="1177" y="371">NODE 04</text><text fill="#EEF2F5" font-family="DejaVu Sans" font-size="24" font-weight="700" x="1164" y="402">Decision Output</text><text fill="#9AA8B5" font-family="DejaVu Sans" font-size="20" font-weight="400" x="1164" y="432">now / next / later +</text><text fill="#9AA8B5" font-family="DejaVu Sans" font-size="20" font-weight="400" x="1164" y="460">packet handoff</text><rect fill="#0A0F14" height="130" rx="14" ry="14" stroke="#24303A" stroke-width="1.6" width="1356" x="72" y="610" /><rect fill="#0F161D" height="28" rx="14" ry="14" stroke="#24303A" stroke-width="1" width="186" x="90" y="622" /><text fill="#D2F1FF" font-family="DejaVu Sans Mono" font-size="15" letter-spacing="1.4px" x="103" y="641">VISIBLE EVIDENCE</text><text fill="#EEF2F5" font-family="DejaVu Sans" font-size="24" font-weight="700" x="90" y="672">Packet Contents</text><rect fill="#0F161D" height="28" rx="14" ry="14" stroke="#24303A" stroke-width="1" width="236" x="102" y="678" /><text fill="#D2F1FF" font-family="DejaVu Sans Mono" font-size="14" letter-spacing="1.4px" x="115" y="697">THREAT MODEL SNAPSHOT</text><rect fill="#0F161D" height="28" rx="14" ry="14" stroke="#24303A" stroke-width="1" width="136" x="354" y="678" /><text fill="#D2F1FF" font-family="DejaVu Sans Mono" font-size="14" letter-spacing="1.4px" x="367" y="697">ABUSE CASES</text><rect fill="#0F161D" height="28" rx="14" ry="14" stroke="#24303A" stroke-width="1" width="186" x="506" y="678" /><text fill="#D2F1FF" font-family="DejaVu Sans Mono" font-size="14" letter-spacing="1.4px" x="519" y="697">TRUST BOUNDARIES</text><rect fill="#0F161D" height="28" rx="14" ry="14" stroke="#24303A" stroke-width="1" width="126" x="708" y="678" /><text fill="#D2F1FF" font-family="DejaVu Sans Mono" font-size="14" letter-spacing="1.4px" x="721" y="697">QUICK WINS</text><rect fill="#0F161D" height="28" rx="14" ry="14" stroke="#24303A" stroke-width="1" width="100" x="850" y="678" /><text fill="#D2F1FF" font-family="DejaVu Sans Mono" font-size="14" letter-spacing="1.4px" x="863" y="697">ROADMAP</text><rect fill="#0F161D" height="28" rx="14" ry="14" stroke="#24303A" stroke-width="1" width="226" x="966" y="678" /><text fill="#D2F1FF" font-family="DejaVu Sans Mono" font-size="14" letter-spacing="1.4px" x="979" y="697">DISCLOSURE FRAGMENTS</text><text fill="#9AA8B5" font-family="DejaVu Sans Mono" font-size="16" letter-spacing="1.5px" x="72" y="846">CRISISCORE-SYSTEMS / PROTECTIVE COMPUTING</text><text fill="#9AA8B5" font-family="DejaVu Sans Mono" font-size="16" letter-spacing="1.5px" text-anchor="end" x="1528" y="846">review artifact flow</text></svg>