<svg baseProfile="full" height="900" version="1.1" viewBox="0,0,1600,900" width="1600" xmlns="http://www.w3.org/2000/svg" xmlns:ev="http://www.w3.org/2001/xml-events" xmlns:xlink="http://www.w3.org/1999/xlink"><defs /><rect fill="#05080C" height="900" width="1600" x="0" y="0" /><rect fill="none" height="836" stroke="#24303A" stroke-width="1.5" width="1536" x="32" y="32" /><line stroke="#1A242D" stroke-width="1" x1="32" x2="1568" y1="96" y2="96" /><line stroke="#1A242D" stroke-width="1" x1="32" x2="1568" y1="804" y2="804" /><text fill="#9AA8B5" font-family="DejaVu Sans Mono" font-size="18" letter-spacing="2px" x="72" y="70">BLACKPAPER RESEARCH</text><text fill="#9DDFFF" font-family="DejaVu Sans Mono" font-size="18" letter-spacing="2px" text-anchor="end" x="1528" y="70">DIAGRAM 03</text><text fill="#EEF2F5" font-family="DejaVu Sans" font-size="40" font-weight="700" x="72" y="150">Threat Boundary Map</text><text fill="#9AA8B5" font-family="DejaVu Sans" font-size="20" x="72" y="185">The crossing itself is the event. Protective systems reduce silent crossings.</text><rect fill="none" height="560" rx="24" ry="24" stroke="#24303A" stroke-width="1.8" width="1360" x="120" y="220" /><text fill="#9AA8B5" font-family="DejaVu Sans Mono" font-size="18" letter-spacing="1.2px" x="142" y="254">EXTERNAL SYSTEMS / INSTITUTIONS</text><rect fill="none" height="400" rx="24" ry="24" stroke="#24303A" stroke-width="1.8" width="1120" x="240" y="300" /><text fill="#9AA8B5" font-family="DejaVu Sans Mono" font-size="18" letter-spacing="1.2px" x="262" y="334">NETWORK / OPTIONAL CLOUD / THIRD PARTIES</text><rect fill="none" height="260" rx="24" ry="24" stroke="#24303A" stroke-width="1.8" width="760" x="420" y="370" /><text fill="#9AA8B5" font-family="DejaVu Sans Mono" font-size="18" letter-spacing="1.2px" x="442" y="404">USER DEVICE</text><rect fill="none" height="130" rx="24" ry="24" stroke="#24303A" stroke-width="1.8" width="400" x="600" y="435" /><text fill="#D2F1FF" font-family="DejaVu Sans Mono" font-size="18" letter-spacing="1.2px" x="622" y="469">LOCAL AUTHORITY CORE</text><circle cx="520" cy="500" fill="#0C1218" r="26" stroke="#24303A" stroke-width="1.5" /><circle cx="520" cy="500" fill="#EEF2F5" r="8" /><text fill="#9AA8B5" font-family="DejaVu Sans Mono" font-size="16" text-anchor="middle" x="520" y="552">INPUT</text><circle cx="800" cy="500" fill="#0C1218" r="26" stroke="#24303A" stroke-width="1.5" /><circle cx="800" cy="500" fill="#9DDFFF" r="8" /><text fill="#9AA8B5" font-family="DejaVu Sans Mono" font-size="16" text-anchor="middle" x="800" y="552">STORAGE</text><circle cx="1080" cy="500" fill="#0C1218" r="26" stroke="#24303A" stroke-width="1.5" /><circle cx="1080" cy="500" fill="#EEF2F5" r="8" /><text fill="#9AA8B5" font-family="DejaVu Sans Mono" font-size="16" text-anchor="middle" x="1080" y="552">EXPORT</text><circle cx="480" cy="670" fill="#0C1218" r="26" stroke="#24303A" stroke-width="1.5" /><circle cx="480" cy="670" fill="#EEF2F5" r="8" /><text fill="#9AA8B5" font-family="DejaVu Sans Mono" font-size="16" text-anchor="middle" x="480" y="722">SUPPORT</text><circle cx="850" cy="670" fill="#0C1218" r="26" stroke="#24303A" stroke-width="1.5" /><circle cx="850" cy="670" fill="#EEF2F5" r="8" /><text fill="#9AA8B5" font-family="DejaVu Sans Mono" font-size="16" text-anchor="middle" x="850" y="722">API</text><circle cx="1230" cy="670" fill="#0C1218" r="26" stroke="#24303A" stroke-width="1.5" /><circle cx="1230" cy="670" fill="#EEF2F5" r="8" /><text fill="#9AA8B5" font-family="DejaVu Sans Mono" font-size="16" text-anchor="middle" x="1230" y="722">CLINIC</text><line stroke="#9DDFFF" stroke-width="2.2" x1="546" x2="774" y1="500" y2="500" /><polygon fill="#9DDFFF" points="774,500 764.9903113209758,504.33883739117556 764.9903113209758,495.66116260882444" /><line stroke="#9DDFFF" stroke-width="2.2" x1="826" x2="1054" y1="500" y2="500" /><polygon fill="#9DDFFF" points="1054,500 1044.9903113209757,504.33883739117556 1044.9903113209757,495.66116260882444" /><line stroke="#D2F1FF" stroke-width="2.2" x1="1100" x2="1210" y1="520" y2="650" /><polygon fill="#D2F1FF" points="1210,650 1200.8680525408886,645.9247655768007 1207.4924704586288,640.3194888771743" /><line stroke="#D2F1FF" stroke-width="2.2" x1="1080" x2="860" y1="526" y2="650" /><polygon fill="#D2F1FF" points="860,650 865.7183843580673,641.7963373830092 869.9792360358729,649.3559129404063" /><line stroke="#D2F1FF" stroke-width="2.2" x1="506" x2="490" y1="520" y2="644" /><polygon fill="#D2F1FF" points="490,644 486.8498190203943,634.509143358172 495.45614480337844,635.6196370075893" /><rect fill="#0A0F14" height="70" rx="14" ry="14" stroke="#24303A" stroke-width="1.6" width="1360" x="120" y="760" /><text fill="#9AA8B5" font-family="DejaVu Sans" font-size="22" font-weight="400" x="146" y="806">A trust boundary is not abstract. It is any moment data, control, interpretation, or visibility crosses into</text><text fill="#9AA8B5" font-family="DejaVu Sans" font-size="22" font-weight="400" x="146" y="836">another actor’s domain.</text><text fill="#9AA8B5" font-family="DejaVu Sans Mono" font-size="16" letter-spacing="1.5px" x="72" y="846">CRISISCORE-SYSTEMS / PROTECTIVE COMPUTING</text><text fill="#9AA8B5" font-family="DejaVu Sans Mono" font-size="16" letter-spacing="1.5px" text-anchor="end" x="1528" y="846">boundary-first framing</text></svg>