<svg baseProfile="full" height="900" version="1.1" viewBox="0,0,1600,900" width="1600" xmlns="http://www.w3.org/2000/svg" xmlns:ev="http://www.w3.org/2001/xml-events" xmlns:xlink="http://www.w3.org/1999/xlink"><defs /><rect fill="#05080C" height="900" width="1600" x="0" y="0" /><rect fill="none" height="836" stroke="#24303A" stroke-width="1.5" width="1536" x="32" y="32" /><line stroke="#1A242D" stroke-width="1" x1="32" x2="1568" y1="96" y2="96" /><line stroke="#1A242D" stroke-width="1" x1="32" x2="1568" y1="804" y2="804" /><text fill="#9AA8B5" font-family="DejaVu Sans Mono" font-size="18" letter-spacing="2px" x="72" y="70">BLACKPAPER RESEARCH</text><text fill="#9DDFFF" font-family="DejaVu Sans Mono" font-size="18" letter-spacing="2px" text-anchor="end" x="1528" y="70">OFFER PANEL</text><text fill="#EEF2F5" font-family="DejaVu Sans" font-size="40" font-weight="700" x="72" y="150">Crisis-Resilient UX Review</text><text fill="#9AA8B5" font-family="DejaVu Sans" font-size="20" x="72" y="185">Mission dossier / service panel</text><rect fill="#0A0F14" height="560" rx="14" ry="14" stroke="#24303A" stroke-width="1.6" width="620" x="72" y="230" /><line opacity="0.1" stroke="#1A242D" stroke-width="1" x1="80" x2="80" y1="238" y2="782" /><line opacity="0.1" stroke="#1A242D" stroke-width="1" x1="104" x2="104" y1="238" y2="782" /><line opacity="0.1" stroke="#1A242D" stroke-width="1" x1="128" x2="128" y1="238" y2="782" /><line opacity="0.1" stroke="#1A242D" stroke-width="1" x1="152" x2="152" y1="238" y2="782" /><line opacity="0.1" stroke="#1A242D" stroke-width="1" x1="176" x2="176" y1="238" y2="782" /><line opacity="0.1" stroke="#1A242D" stroke-width="1" x1="200" x2="200" y1="238" y2="782" /><line opacity="0.1" stroke="#1A242D" stroke-width="1" x1="224" x2="224" y1="238" y2="782" /><line opacity="0.1" stroke="#1A242D" stroke-width="1" x1="248" x2="248" y1="238" y2="782" /><line opacity="0.1" stroke="#1A242D" stroke-width="1" x1="272" x2="272" y1="238" y2="782" /><line opacity="0.1" stroke="#1A242D" stroke-width="1" x1="296" x2="296" y1="238" y2="782" /><line opacity="0.1" stroke="#1A242D" stroke-width="1" x1="320" x2="320" y1="238" y2="782" /><line opacity="0.1" stroke="#1A242D" stroke-width="1" x1="344" x2="344" y1="238" y2="782" /><line opacity="0.1" stroke="#1A242D" stroke-width="1" x1="368" x2="368" y1="238" y2="782" /><line opacity="0.1" stroke="#1A242D" stroke-width="1" x1="392" x2="392" y1="238" y2="782" /><line opacity="0.1" stroke="#1A242D" stroke-width="1" x1="416" x2="416" y1="238" y2="782" /><line opacity="0.1" stroke="#1A242D" stroke-width="1" x1="440" x2="440" y1="238" y2="782" /><line opacity="0.1" stroke="#1A242D" stroke-width="1" x1="464" x2="464" y1="238" y2="782" /><line opacity="0.1" stroke="#1A242D" stroke-width="1" x1="488" x2="488" y1="238" y2="782" /><line opacity="0.1" stroke="#1A242D" stroke-width="1" x1="512" x2="512" y1="238" y2="782" /><line opacity="0.1" stroke="#1A242D" stroke-width="1" x1="536" x2="536" y1="238" y2="782" /><line opacity="0.1" stroke="#1A242D" stroke-width="1" x1="560" x2="560" y1="238" y2="782" /><line opacity="0.1" stroke="#1A242D" stroke-width="1" x1="584" x2="584" y1="238" y2="782" /><line opacity="0.1" stroke="#1A242D" stroke-width="1" x1="608" x2="608" y1="238" y2="782" /><line opacity="0.1" stroke="#1A242D" stroke-width="1" x1="632" x2="632" y1="238" y2="782" /><line opacity="0.1" stroke="#1A242D" stroke-width="1" x1="656" x2="656" y1="238" y2="782" /><line opacity="0.1" stroke="#1A242D" stroke-width="1" x1="680" x2="680" y1="238" y2="782" /><line opacity="0.1" stroke="#1A242D" stroke-width="1" x1="80" x2="684" y1="238" y2="238" /><line opacity="0.1" stroke="#1A242D" stroke-width="1" x1="80" x2="684" y1="262" y2="262" /><line opacity="0.1" stroke="#1A242D" stroke-width="1" x1="80" x2="684" y1="286" y2="286" /><line opacity="0.1" stroke="#1A242D" stroke-width="1" x1="80" x2="684" y1="310" y2="310" /><line opacity="0.1" stroke="#1A242D" stroke-width="1" x1="80" x2="684" y1="334" y2="334" /><line opacity="0.1" stroke="#1A242D" stroke-width="1" x1="80" x2="684" y1="358" y2="358" /><line opacity="0.1" stroke="#1A242D" stroke-width="1" x1="80" x2="684" y1="382" y2="382" /><line opacity="0.1" stroke="#1A242D" stroke-width="1" x1="80" x2="684" y1="406" y2="406" /><line opacity="0.1" stroke="#1A242D" stroke-width="1" x1="80" x2="684" y1="430" y2="430" /><line opacity="0.1" stroke="#1A242D" stroke-width="1" x1="80" x2="684" y1="454" y2="454" /><line opacity="0.1" stroke="#1A242D" stroke-width="1" x1="80" x2="684" y1="478" y2="478" /><line opacity="0.1" stroke="#1A242D" stroke-width="1" x1="80" x2="684" y1="502" y2="502" /><line opacity="0.1" stroke="#1A242D" stroke-width="1" x1="80" x2="684" y1="526" y2="526" /><line opacity="0.1" stroke="#1A242D" stroke-width="1" x1="80" x2="684" y1="550" y2="550" /><line opacity="0.1" stroke="#1A242D" stroke-width="1" x1="80" x2="684" y1="574" y2="574" /><line opacity="0.1" stroke="#1A242D" stroke-width="1" x1="80" x2="684" y1="598" y2="598" /><line opacity="0.1" stroke="#1A242D" stroke-width="1" x1="80" x2="684" y1="622" y2="622" /><line opacity="0.1" stroke="#1A242D" stroke-width="1" x1="80" x2="684" y1="646" y2="646" /><line opacity="0.1" stroke="#1A242D" stroke-width="1" x1="80" x2="684" y1="670" y2="670" /><line opacity="0.1" stroke="#1A242D" stroke-width="1" x1="80" x2="684" y1="694" y2="694" /><line opacity="0.1" stroke="#1A242D" stroke-width="1" x1="80" x2="684" y1="718" y2="718" /><line opacity="0.1" stroke="#1A242D" stroke-width="1" x1="80" x2="684" y1="742" y2="742" /><line opacity="0.1" stroke="#1A242D" stroke-width="1" x1="80" x2="684" y1="766" y2="766" /><rect fill="#0F161D" height="28" rx="14" ry="14" stroke="#24303A" stroke-width="1" width="206" x="90" y="242" /><text fill="#D2F1FF" font-family="DejaVu Sans Mono" font-size="15" letter-spacing="1.4px" x="103" y="261">WHAT GETS EXAMINED</text><text fill="#EEF2F5" font-family="DejaVu Sans" font-size="38" font-weight="700" x="96" y="310">Crisis-Resilient UX Review</text><text fill="#9AA8B5" font-family="DejaVu Sans" font-size="22" font-weight="400" x="96" y="360">UX hardening for pain, panic,</text><text fill="#9AA8B5" font-family="DejaVu Sans" font-size="22" font-weight="400" x="96" y="390">interruption, and unstable</text><text fill="#9AA8B5" font-family="DejaVu Sans" font-size="22" font-weight="400" x="96" y="420">environments</text><circle cx="96" cy="463" fill="#9DDFFF" r="3.5" /><text fill="#EEF2F5" font-family="DejaVu Sans" font-size="26" x="112" y="470">low-attention flows</text><circle cx="96" cy="533" fill="#9DDFFF" r="3.5" /><text fill="#EEF2F5" font-family="DejaVu Sans" font-size="26" x="112" y="540">interrupt tolerance</text><circle cx="96" cy="603" fill="#9DDFFF" r="3.5" /><text fill="#EEF2F5" font-family="DejaVu Sans" font-size="26" x="112" y="610">error recovery</text><circle cx="96" cy="673" fill="#9DDFFF" r="3.5" /><text fill="#EEF2F5" font-family="DejaVu Sans" font-size="26" x="112" y="680">shared-device risk</text><rect fill="#0A0F14" height="330" rx="14" ry="14" stroke="#24303A" stroke-width="1.6" width="788" x="740" y="230" /><line opacity="0.1" stroke="#1A242D" stroke-width="1" x1="748" x2="748" y1="238" y2="552" /><line opacity="0.1" stroke="#1A242D" stroke-width="1" x1="772" x2="772" y1="238" y2="552" /><line opacity="0.1" stroke="#1A242D" stroke-width="1" x1="796" x2="796" y1="238" y2="552" /><line opacity="0.1" stroke="#1A242D" stroke-width="1" x1="820" x2="820" y1="238" y2="552" /><line opacity="0.1" stroke="#1A242D" stroke-width="1" x1="844" x2="844" y1="238" y2="552" /><line opacity="0.1" stroke="#1A242D" stroke-width="1" x1="868" x2="868" y1="238" y2="552" /><line opacity="0.1" stroke="#1A242D" stroke-width="1" x1="892" x2="892" y1="238" y2="552" /><line opacity="0.1" stroke="#1A242D" stroke-width="1" x1="916" x2="916" y1="238" y2="552" /><line opacity="0.1" stroke="#1A242D" stroke-width="1" x1="940" x2="940" y1="238" y2="552" /><line opacity="0.1" stroke="#1A242D" stroke-width="1" x1="964" x2="964" y1="238" y2="552" /><line opacity="0.1" stroke="#1A242D" stroke-width="1" x1="988" x2="988" y1="238" y2="552" /><line opacity="0.1" stroke="#1A242D" stroke-width="1" x1="1012" x2="1012" y1="238" y2="552" /><line opacity="0.1" stroke="#1A242D" stroke-width="1" x1="1036" x2="1036" y1="238" y2="552" /><line opacity="0.1" stroke="#1A242D" stroke-width="1" x1="1060" x2="1060" y1="238" y2="552" /><line opacity="0.1" stroke="#1A242D" stroke-width="1" x1="1084" x2="1084" y1="238" y2="552" /><line opacity="0.1" stroke="#1A242D" stroke-width="1" x1="1108" x2="1108" y1="238" y2="552" /><line opacity="0.1" stroke="#1A242D" stroke-width="1" x1="1132" x2="1132" y1="238" y2="552" /><line opacity="0.1" stroke="#1A242D" stroke-width="1" x1="1156" x2="1156" y1="238" y2="552" /><line opacity="0.1" stroke="#1A242D" stroke-width="1" x1="1180" x2="1180" y1="238" y2="552" /><line opacity="0.1" stroke="#1A242D" stroke-width="1" x1="1204" x2="1204" y1="238" y2="552" /><line opacity="0.1" stroke="#1A242D" stroke-width="1" x1="1228" x2="1228" y1="238" y2="552" /><line opacity="0.1" stroke="#1A242D" stroke-width="1" x1="1252" x2="1252" y1="238" y2="552" /><line opacity="0.1" stroke="#1A242D" stroke-width="1" x1="1276" x2="1276" y1="238" y2="552" /><line opacity="0.1" stroke="#1A242D" stroke-width="1" x1="1300" x2="1300" y1="238" y2="552" /><line opacity="0.1" stroke="#1A242D" stroke-width="1" x1="1324" x2="1324" y1="238" y2="552" /><line opacity="0.1" stroke="#1A242D" stroke-width="1" x1="1348" x2="1348" y1="238" y2="552" /><line opacity="0.1" stroke="#1A242D" stroke-width="1" x1="1372" x2="1372" y1="238" y2="552" /><line opacity="0.1" stroke="#1A242D" stroke-width="1" x1="1396" x2="1396" y1="238" y2="552" /><line opacity="0.1" stroke="#1A242D" stroke-width="1" x1="1420" x2="1420" y1="238" y2="552" /><line opacity="0.1" stroke="#1A242D" stroke-width="1" x1="1444" x2="1444" y1="238" y2="552" /><line opacity="0.1" stroke="#1A242D" stroke-width="1" x1="1468" x2="1468" y1="238" y2="552" /><line opacity="0.1" stroke="#1A242D" stroke-width="1" x1="1492" x2="1492" y1="238" y2="552" /><line opacity="0.1" stroke="#1A242D" stroke-width="1" x1="1516" x2="1516" y1="238" y2="552" /><line opacity="0.1" stroke="#1A242D" stroke-width="1" x1="748" x2="1520" y1="238" y2="238" /><line opacity="0.1" stroke="#1A242D" stroke-width="1" x1="748" x2="1520" y1="262" y2="262" /><line opacity="0.1" stroke="#1A242D" stroke-width="1" x1="748" x2="1520" y1="286" y2="286" /><line opacity="0.1" stroke="#1A242D" stroke-width="1" x1="748" x2="1520" y1="310" y2="310" /><line opacity="0.1" stroke="#1A242D" stroke-width="1" x1="748" x2="1520" y1="334" y2="334" /><line opacity="0.1" stroke="#1A242D" stroke-width="1" x1="748" x2="1520" y1="358" y2="358" /><line opacity="0.1" stroke="#1A242D" stroke-width="1" x1="748" x2="1520" y1="382" y2="382" /><line opacity="0.1" stroke="#1A242D" stroke-width="1" x1="748" x2="1520" y1="406" y2="406" /><line opacity="0.1" stroke="#1A242D" stroke-width="1" x1="748" x2="1520" y1="430" y2="430" /><line opacity="0.1" stroke="#1A242D" stroke-width="1" x1="748" x2="1520" y1="454" y2="454" /><line opacity="0.1" stroke="#1A242D" stroke-width="1" x1="748" x2="1520" y1="478" y2="478" /><line opacity="0.1" stroke="#1A242D" stroke-width="1" x1="748" x2="1520" y1="502" y2="502" /><line opacity="0.1" stroke="#1A242D" stroke-width="1" x1="748" x2="1520" y1="526" y2="526" /><line opacity="0.1" stroke="#1A242D" stroke-width="1" x1="748" x2="1520" y1="550" y2="550" /><rect fill="#0F161D" height="28" rx="14" ry="14" stroke="#24303A" stroke-width="1" width="296" x="758" y="242" /><text fill="#D2F1FF" font-family="DejaVu Sans Mono" font-size="15" letter-spacing="1.4px" x="771" y="261">WHAT THE CLIENT LEAVES WITH</text><rect fill="#0F161D" height="28" rx="14" ry="14" stroke="#24303A" stroke-width="1" width="156" x="768" y="284" /><text fill="#D2F1FF" font-family="DejaVu Sans Mono" font-size="14" letter-spacing="1.4px" x="781" y="303">FLOW CRITIQUE</text><rect fill="#0F161D" height="28" rx="14" ry="14" stroke="#24303A" stroke-width="1" width="176" x="936" y="284" /><text fill="#D2F1FF" font-family="DejaVu Sans Mono" font-size="14" letter-spacing="1.4px" x="949" y="303">INTERFACE FIXES</text><rect fill="#0F161D" height="28" rx="14" ry="14" stroke="#24303A" stroke-width="1" width="256" x="1124" y="284" /><text fill="#D2F1FF" font-family="DejaVu Sans Mono" font-size="14" letter-spacing="1.4px" x="1137" y="303">STRESS-STATE PRIORITIES</text><rect fill="#0A0F14" height="200" rx="14" ry="14" stroke="#24303A" stroke-width="1.6" width="788" x="740" y="590" /><line opacity="0.1" stroke="#1A242D" stroke-width="1" x1="748" x2="748" y1="598" y2="782" /><line opacity="0.1" stroke="#1A242D" stroke-width="1" x1="772" x2="772" y1="598" y2="782" /><line opacity="0.1" stroke="#1A242D" stroke-width="1" x1="796" x2="796" y1="598" y2="782" /><line opacity="0.1" stroke="#1A242D" stroke-width="1" x1="820" x2="820" y1="598" y2="782" /><line opacity="0.1" stroke="#1A242D" stroke-width="1" x1="844" x2="844" y1="598" y2="782" /><line opacity="0.1" stroke="#1A242D" stroke-width="1" x1="868" x2="868" y1="598" y2="782" /><line opacity="0.1" stroke="#1A242D" stroke-width="1" x1="892" x2="892" y1="598" y2="782" /><line opacity="0.1" stroke="#1A242D" stroke-width="1" x1="916" x2="916" y1="598" y2="782" /><line opacity="0.1" stroke="#1A242D" stroke-width="1" x1="940" x2="940" y1="598" y2="782" /><line opacity="0.1" stroke="#1A242D" stroke-width="1" x1="964" x2="964" y1="598" y2="782" /><line opacity="0.1" stroke="#1A242D" stroke-width="1" x1="988" x2="988" y1="598" y2="782" /><line opacity="0.1" stroke="#1A242D" stroke-width="1" x1="1012" x2="1012" y1="598" y2="782" /><line opacity="0.1" stroke="#1A242D" stroke-width="1" x1="1036" x2="1036" y1="598" y2="782" /><line opacity="0.1" stroke="#1A242D" stroke-width="1" x1="1060" x2="1060" y1="598" y2="782" /><line opacity="0.1" stroke="#1A242D" stroke-width="1" x1="1084" x2="1084" y1="598" y2="782" /><line opacity="0.1" stroke="#1A242D" stroke-width="1" x1="1108" x2="1108" y1="598" y2="782" /><line opacity="0.1" stroke="#1A242D" stroke-width="1" x1="1132" x2="1132" y1="598" y2="782" /><line opacity="0.1" stroke="#1A242D" stroke-width="1" x1="1156" x2="1156" y1="598" y2="782" /><line opacity="0.1" stroke="#1A242D" stroke-width="1" x1="1180" x2="1180" y1="598" y2="782" /><line opacity="0.1" stroke="#1A242D" stroke-width="1" x1="1204" x2="1204" y1="598" y2="782" /><line opacity="0.1" stroke="#1A242D" stroke-width="1" x1="1228" x2="1228" y1="598" y2="782" /><line opacity="0.1" stroke="#1A242D" stroke-width="1" x1="1252" x2="1252" y1="598" y2="782" /><line opacity="0.1" stroke="#1A242D" stroke-width="1" x1="1276" x2="1276" y1="598" y2="782" /><line opacity="0.1" stroke="#1A242D" stroke-width="1" x1="1300" x2="1300" y1="598" y2="782" /><line opacity="0.1" stroke="#1A242D" stroke-width="1" x1="1324" x2="1324" y1="598" y2="782" /><line opacity="0.1" stroke="#1A242D" stroke-width="1" x1="1348" x2="1348" y1="598" y2="782" /><line opacity="0.1" stroke="#1A242D" stroke-width="1" x1="1372" x2="1372" y1="598" y2="782" /><line opacity="0.1" stroke="#1A242D" stroke-width="1" x1="1396" x2="1396" y1="598" y2="782" /><line opacity="0.1" stroke="#1A242D" stroke-width="1" x1="1420" x2="1420" y1="598" y2="782" /><line opacity="0.1" stroke="#1A242D" stroke-width="1" x1="1444" x2="1444" y1="598" y2="782" /><line opacity="0.1" stroke="#1A242D" stroke-width="1" x1="1468" x2="1468" y1="598" y2="782" /><line opacity="0.1" stroke="#1A242D" stroke-width="1" x1="1492" x2="1492" y1="598" y2="782" /><line opacity="0.1" stroke="#1A242D" stroke-width="1" x1="1516" x2="1516" y1="598" y2="782" /><line opacity="0.1" stroke="#1A242D" stroke-width="1" x1="748" x2="1520" y1="598" y2="598" /><line opacity="0.1" stroke="#1A242D" stroke-width="1" x1="748" x2="1520" y1="622" y2="622" /><line opacity="0.1" stroke="#1A242D" stroke-width="1" x1="748" x2="1520" y1="646" y2="646" /><line opacity="0.1" stroke="#1A242D" stroke-width="1" x1="748" x2="1520" y1="670" y2="670" /><line opacity="0.1" stroke="#1A242D" stroke-width="1" x1="748" x2="1520" y1="694" y2="694" /><line opacity="0.1" stroke="#1A242D" stroke-width="1" x1="748" x2="1520" y1="718" y2="718" /><line opacity="0.1" stroke="#1A242D" stroke-width="1" x1="748" x2="1520" y1="742" y2="742" /><line opacity="0.1" stroke="#1A242D" stroke-width="1" x1="748" x2="1520" y1="766" y2="766" /><rect fill="#0F161D" height="28" rx="14" ry="14" stroke="#24303A" stroke-width="1" width="186" x="758" y="602" /><text fill="#D2F1FF" font-family="DejaVu Sans Mono" font-size="15" letter-spacing="1.4px" x="771" y="621">DIAGNOSTIC MOTIF</text><rect fill="#0C1218" height="80" rx="10" ry="10" stroke="#24303A" stroke-width="1.2" width="220" x="784" y="648" /><rect fill="none" height="116" rx="12" ry="12" stroke="#9DDFFF" stroke-width="2" width="140" x="1080" y="630" /><circle cx="1320" cy="686" fill="none" r="46" stroke="#D2F1FF" stroke-width="2" /><line stroke="#9DDFFF" stroke-width="2" x1="1004" x2="1080" y1="688" y2="688" /><line stroke="#D2F1FF" stroke-width="2" x1="1220" x2="1274" y1="688" y2="688" /><line stroke="#9DDFFF" stroke-width="2.2" x1="1366" x2="1438" y1="688" y2="688" /><polygon fill="#9DDFFF" points="1438,688 1428.9903113209757,692.3388373911756 1428.9903113209757,683.6611626088244" /><text fill="#9AA8B5" font-family="DejaVu Sans Mono" font-size="18" x="784" y="618">evidence over claims</text><text fill="#9AA8B5" font-family="DejaVu Sans Mono" font-size="16" letter-spacing="1.5px" x="72" y="846">CRISISCORE-SYSTEMS / PROTECTIVE COMPUTING</text><text fill="#9AA8B5" font-family="DejaVu Sans Mono" font-size="16" letter-spacing="1.5px" text-anchor="end" x="1528" y="846">field brief, not agency tile</text></svg>