<svg baseProfile="full" height="900" version="1.1" viewBox="0,0,1600,900" width="1600" xmlns="http://www.w3.org/2000/svg" xmlns:ev="http://www.w3.org/2001/xml-events" xmlns:xlink="http://www.w3.org/1999/xlink"><defs /><rect fill="#05080C" height="900" width="1600" x="0" y="0" /><rect fill="none" height="836" stroke="#24303A" stroke-width="1.5" width="1536" x="32" y="32" /><line stroke="#1A242D" stroke-width="1" x1="32" x2="1568" y1="96" y2="96" /><line stroke="#1A242D" stroke-width="1" x1="32" x2="1568" y1="804" y2="804" /><text fill="#9AA8B5" font-family="DejaVu Sans Mono" font-size="18" letter-spacing="2px" x="72" y="70">BLACKPAPER RESEARCH</text><text fill="#9DDFFF" font-family="DejaVu Sans Mono" font-size="18" letter-spacing="2px" text-anchor="end" x="1528" y="70">PROOF ARTIFACT</text><text fill="#EEF2F5" font-family="DejaVu Sans" font-size="40" font-weight="700" x="72" y="150">Conformance Matrix Snapshot</text><text fill="#9AA8B5" font-family="DejaVu Sans" font-size="20" x="72" y="185">Proof artifact / fast credibility specimen</text><rect fill="#0A0F14" height="550" rx="14" ry="14" stroke="#24303A" stroke-width="1.6" width="1456" x="72" y="230" /><line opacity="0.1" stroke="#1A242D" stroke-width="1" x1="80" x2="80" y1="238" y2="772" /><line opacity="0.1" stroke="#1A242D" stroke-width="1" x1="104" x2="104" y1="238" y2="772" /><line opacity="0.1" stroke="#1A242D" stroke-width="1" x1="128" x2="128" y1="238" y2="772" /><line opacity="0.1" stroke="#1A242D" stroke-width="1" x1="152" x2="152" y1="238" y2="772" /><line opacity="0.1" stroke="#1A242D" stroke-width="1" x1="176" x2="176" y1="238" y2="772" /><line opacity="0.1" stroke="#1A242D" stroke-width="1" x1="200" x2="200" y1="238" y2="772" /><line opacity="0.1" stroke="#1A242D" stroke-width="1" x1="224" x2="224" y1="238" y2="772" /><line opacity="0.1" stroke="#1A242D" stroke-width="1" x1="248" x2="248" y1="238" y2="772" /><line opacity="0.1" stroke="#1A242D" stroke-width="1" x1="272" x2="272" y1="238" y2="772" /><line opacity="0.1" stroke="#1A242D" stroke-width="1" x1="296" x2="296" y1="238" y2="772" /><line opacity="0.1" stroke="#1A242D" stroke-width="1" x1="320" x2="320" y1="238" y2="772" /><line opacity="0.1" stroke="#1A242D" stroke-width="1" x1="344" x2="344" y1="238" y2="772" /><line opacity="0.1" stroke="#1A242D" stroke-width="1" x1="368" x2="368" y1="238" y2="772" /><line opacity="0.1" stroke="#1A242D" stroke-width="1" x1="392" x2="392" y1="238" y2="772" /><line opacity="0.1" stroke="#1A242D" stroke-width="1" x1="416" x2="416" y1="238" y2="772" /><line opacity="0.1" stroke="#1A242D" stroke-width="1" x1="440" x2="440" y1="238" y2="772" /><line opacity="0.1" stroke="#1A242D" stroke-width="1" x1="464" x2="464" y1="238" y2="772" /><line opacity="0.1" stroke="#1A242D" stroke-width="1" x1="488" x2="488" y1="238" y2="772" /><line opacity="0.1" stroke="#1A242D" stroke-width="1" x1="512" x2="512" y1="238" y2="772" /><line opacity="0.1" stroke="#1A242D" stroke-width="1" x1="536" x2="536" y1="238" y2="772" /><line opacity="0.1" stroke="#1A242D" stroke-width="1" x1="560" x2="560" y1="238" y2="772" /><line opacity="0.1" stroke="#1A242D" stroke-width="1" x1="584" x2="584" y1="238" y2="772" /><line opacity="0.1" stroke="#1A242D" stroke-width="1" x1="608" x2="608" y1="238" y2="772" /><line opacity="0.1" stroke="#1A242D" stroke-width="1" x1="632" x2="632" y1="238" y2="772" /><line opacity="0.1" stroke="#1A242D" stroke-width="1" x1="656" x2="656" y1="238" y2="772" /><line opacity="0.1" stroke="#1A242D" stroke-width="1" x1="680" x2="680" y1="238" y2="772" /><line opacity="0.1" stroke="#1A242D" stroke-width="1" x1="704" x2="704" y1="238" y2="772" /><line opacity="0.1" stroke="#1A242D" stroke-width="1" x1="728" x2="728" y1="238" y2="772" /><line opacity="0.1" stroke="#1A242D" stroke-width="1" x1="752" x2="752" y1="238" y2="772" /><line opacity="0.1" stroke="#1A242D" stroke-width="1" x1="776" x2="776" y1="238" y2="772" /><line opacity="0.1" stroke="#1A242D" stroke-width="1" x1="800" x2="800" y1="238" y2="772" /><line opacity="0.1" stroke="#1A242D" stroke-width="1" x1="824" x2="824" y1="238" y2="772" /><line opacity="0.1" stroke="#1A242D" stroke-width="1" x1="848" x2="848" y1="238" y2="772" /><line opacity="0.1" stroke="#1A242D" stroke-width="1" x1="872" x2="872" y1="238" y2="772" /><line opacity="0.1" stroke="#1A242D" stroke-width="1" x1="896" x2="896" y1="238" y2="772" /><line opacity="0.1" stroke="#1A242D" stroke-width="1" x1="920" x2="920" y1="238" y2="772" /><line opacity="0.1" stroke="#1A242D" stroke-width="1" x1="944" x2="944" y1="238" y2="772" /><line opacity="0.1" stroke="#1A242D" stroke-width="1" x1="968" x2="968" y1="238" y2="772" /><line opacity="0.1" stroke="#1A242D" stroke-width="1" x1="992" x2="992" y1="238" y2="772" /><line opacity="0.1" stroke="#1A242D" stroke-width="1" x1="1016" x2="1016" y1="238" y2="772" /><line opacity="0.1" stroke="#1A242D" stroke-width="1" x1="1040" x2="1040" y1="238" y2="772" /><line opacity="0.1" stroke="#1A242D" stroke-width="1" x1="1064" x2="1064" y1="238" y2="772" /><line opacity="0.1" stroke="#1A242D" stroke-width="1" x1="1088" x2="1088" y1="238" y2="772" /><line opacity="0.1" stroke="#1A242D" stroke-width="1" x1="1112" x2="1112" y1="238" y2="772" /><line opacity="0.1" stroke="#1A242D" stroke-width="1" x1="1136" x2="1136" y1="238" y2="772" /><line opacity="0.1" stroke="#1A242D" stroke-width="1" x1="1160" x2="1160" y1="238" y2="772" /><line opacity="0.1" stroke="#1A242D" stroke-width="1" x1="1184" x2="1184" y1="238" y2="772" /><line opacity="0.1" stroke="#1A242D" stroke-width="1" x1="1208" x2="1208" y1="238" y2="772" /><line opacity="0.1" stroke="#1A242D" stroke-width="1" x1="1232" x2="1232" y1="238" y2="772" /><line opacity="0.1" stroke="#1A242D" stroke-width="1" x1="1256" x2="1256" y1="238" y2="772" /><line opacity="0.1" stroke="#1A242D" stroke-width="1" x1="1280" x2="1280" y1="238" y2="772" /><line opacity="0.1" stroke="#1A242D" stroke-width="1" x1="1304" x2="1304" y1="238" y2="772" /><line opacity="0.1" stroke="#1A242D" stroke-width="1" x1="1328" x2="1328" y1="238" y2="772" /><line opacity="0.1" stroke="#1A242D" stroke-width="1" x1="1352" x2="1352" y1="238" y2="772" /><line opacity="0.1" stroke="#1A242D" stroke-width="1" x1="1376" x2="1376" y1="238" y2="772" /><line opacity="0.1" stroke="#1A242D" stroke-width="1" x1="1400" x2="1400" y1="238" y2="772" /><line opacity="0.1" stroke="#1A242D" stroke-width="1" x1="1424" x2="1424" y1="238" y2="772" /><line opacity="0.1" stroke="#1A242D" stroke-width="1" x1="1448" x2="1448" y1="238" y2="772" /><line opacity="0.1" stroke="#1A242D" stroke-width="1" x1="1472" x2="1472" y1="238" y2="772" /><line opacity="0.1" stroke="#1A242D" stroke-width="1" x1="1496" x2="1496" y1="238" y2="772" /><line opacity="0.1" stroke="#1A242D" stroke-width="1" x1="80" x2="1520" y1="238" y2="238" /><line opacity="0.1" stroke="#1A242D" stroke-width="1" x1="80" x2="1520" y1="262" y2="262" /><line opacity="0.1" stroke="#1A242D" stroke-width="1" x1="80" x2="1520" y1="286" y2="286" /><line opacity="0.1" stroke="#1A242D" stroke-width="1" x1="80" x2="1520" y1="310" y2="310" /><line opacity="0.1" stroke="#1A242D" stroke-width="1" x1="80" x2="1520" y1="334" y2="334" /><line opacity="0.1" stroke="#1A242D" stroke-width="1" x1="80" x2="1520" y1="358" y2="358" /><line opacity="0.1" stroke="#1A242D" stroke-width="1" x1="80" x2="1520" y1="382" y2="382" /><line opacity="0.1" stroke="#1A242D" stroke-width="1" x1="80" x2="1520" y1="406" y2="406" /><line opacity="0.1" stroke="#1A242D" stroke-width="1" x1="80" x2="1520" y1="430" y2="430" /><line opacity="0.1" stroke="#1A242D" stroke-width="1" x1="80" x2="1520" y1="454" y2="454" /><line opacity="0.1" stroke="#1A242D" stroke-width="1" x1="80" x2="1520" y1="478" y2="478" /><line opacity="0.1" stroke="#1A242D" stroke-width="1" x1="80" x2="1520" y1="502" y2="502" /><line opacity="0.1" stroke="#1A242D" stroke-width="1" x1="80" x2="1520" y1="526" y2="526" /><line opacity="0.1" stroke="#1A242D" stroke-width="1" x1="80" x2="1520" y1="550" y2="550" /><line opacity="0.1" stroke="#1A242D" stroke-width="1" x1="80" x2="1520" y1="574" y2="574" /><line opacity="0.1" stroke="#1A242D" stroke-width="1" x1="80" x2="1520" y1="598" y2="598" /><line opacity="0.1" stroke="#1A242D" stroke-width="1" x1="80" x2="1520" y1="622" y2="622" /><line opacity="0.1" stroke="#1A242D" stroke-width="1" x1="80" x2="1520" y1="646" y2="646" /><line opacity="0.1" stroke="#1A242D" stroke-width="1" x1="80" x2="1520" y1="670" y2="670" /><line opacity="0.1" stroke="#1A242D" stroke-width="1" x1="80" x2="1520" y1="694" y2="694" /><line opacity="0.1" stroke="#1A242D" stroke-width="1" x1="80" x2="1520" y1="718" y2="718" /><line opacity="0.1" stroke="#1A242D" stroke-width="1" x1="80" x2="1520" y1="742" y2="742" /><line opacity="0.1" stroke="#1A242D" stroke-width="1" x1="80" x2="1520" y1="766" y2="766" /><rect fill="#0F161D" height="28" rx="14" ry="14" stroke="#24303A" stroke-width="1" width="186" x="90" y="242" /><text fill="#D2F1FF" font-family="DejaVu Sans Mono" font-size="15" letter-spacing="1.4px" x="103" y="261">VISIBLE CONTROLS</text><rect fill="#0C1218" height="410" rx="14" ry="14" stroke="#24303A" stroke-width="1.6" width="300" x="96" y="300" /><text fill="#D2F1FF" font-family="DejaVu Sans Mono" font-size="18" letter-spacing="1.5px" x="120" y="350">SPECIMEN</text><circle cx="122" cy="413" fill="#9DDFFF" r="3.5" /><text fill="#EEF2F5" font-family="DejaVu Sans" font-size="20" x="138" y="420">evidence legible</text><circle cx="122" cy="471" fill="#9DDFFF" r="3.5" /><text fill="#EEF2F5" font-family="DejaVu Sans" font-size="20" x="138" y="478">boundary visible</text><circle cx="122" cy="529" fill="#9DDFFF" r="3.5" /><text fill="#EEF2F5" font-family="DejaVu Sans" font-size="20" x="138" y="536">release-tied</text><circle cx="122" cy="587" fill="#9DDFFF" r="3.5" /><text fill="#EEF2F5" font-family="DejaVu Sans" font-size="20" x="138" y="594">tradeoffs named</text><rect fill="#0C1218" height="78" rx="10" ry="10" stroke="#24303A" stroke-width="1.2" width="1072" x="432" y="300" /><text fill="#9AA8B5" font-family="DejaVu Sans Mono" font-size="16" x="456" y="332">LOCAL AUTHORITY BY DEFAULT</text><text fill="#A9E5C4" font-family="DejaVu Sans" font-size="28" font-weight="700" x="456" y="366">PASS</text><rect fill="#0A0F14" height="78" rx="10" ry="10" stroke="#24303A" stroke-width="1.2" width="1072" x="432" y="388" /><text fill="#9AA8B5" font-family="DejaVu Sans Mono" font-size="16" x="456" y="420">EXPLICIT EXPORT BOUNDARY</text><text fill="#A9E5C4" font-family="DejaVu Sans" font-size="28" font-weight="700" x="456" y="454">PASS</text><rect fill="#0C1218" height="78" rx="10" ry="10" stroke="#24303A" stroke-width="1.2" width="1072" x="432" y="476" /><text fill="#9AA8B5" font-family="DejaVu Sans Mono" font-size="16" x="456" y="508">OFFLINE ESSENTIAL PATH</text><text fill="#A9E5C4" font-family="DejaVu Sans" font-size="28" font-weight="700" x="456" y="542">PASS</text><rect fill="#0A0F14" height="78" rx="10" ry="10" stroke="#24303A" stroke-width="1.2" width="1072" x="432" y="564" /><text fill="#9AA8B5" font-family="DejaVu Sans Mono" font-size="16" x="456" y="596">SILENT UPLOAD</text><text fill="#F3A0A0" font-family="DejaVu Sans" font-size="28" font-weight="700" x="456" y="630">FAIL</text><rect fill="#0C1218" height="78" rx="10" ry="10" stroke="#24303A" stroke-width="1.2" width="1072" x="432" y="652" /><text fill="#9AA8B5" font-family="DejaVu Sans Mono" font-size="16" x="456" y="684">DEGRADED-MODE DISCLOSURE</text><text fill="#EBCB84" font-family="DejaVu Sans" font-size="28" font-weight="700" x="456" y="718">PARTIAL</text><rect fill="#0C1218" height="90" rx="14" ry="14" stroke="#24303A" stroke-width="1.6" width="1408" x="96" y="670" /><text fill="#9AA8B5" font-family="DejaVu Sans" font-size="22" font-weight="400" x="122" y="726">Shows evidence, not vibes. The point is instant legibility under review</text><text fill="#9AA8B5" font-family="DejaVu Sans" font-size="22" font-weight="400" x="122" y="756">pressure.</text><text fill="#9AA8B5" font-family="DejaVu Sans Mono" font-size="16" letter-spacing="1.5px" x="72" y="846">CRISISCORE-SYSTEMS / PROTECTIVE COMPUTING</text><text fill="#9AA8B5" font-family="DejaVu Sans Mono" font-size="16" letter-spacing="1.5px" text-anchor="end" x="1528" y="846">16:9</text></svg>