<svg baseProfile="full" height="500" version="1.1" viewBox="0,0,1500,500" width="1500" xmlns="http://www.w3.org/2000/svg" xmlns:ev="http://www.w3.org/2001/xml-events" xmlns:xlink="http://www.w3.org/1999/xlink"><defs /><rect fill="#05080C" height="500" width="1500" x="0" y="0" /><rect fill="none" height="436" stroke="#24303A" stroke-width="1.5" width="1436" x="32" y="32" /><line stroke="#1A242D" stroke-width="1" x1="32" x2="1468" y1="96" y2="96" /><line stroke="#1A242D" stroke-width="1" x1="32" x2="1468" y1="404" y2="404" /><text fill="#9AA8B5" font-family="DejaVu Sans Mono" font-size="25" letter-spacing="1.8px" x="72" y="78">CRISISCORE-SYSTEMS / DEV HEADER</text><text fill="#EEF2F5" font-family="DejaVu Sans" font-size="70" font-weight="700" x="72" y="230">Who was the software built to survive?</text><text fill="#D2F1FF" font-family="DejaVu Sans" font-size="27" x="72" y="300">designing for instability, not ideal conditions</text><rect fill="#0A0F14" height="290" rx="14" ry="14" stroke="#24303A" stroke-width="1.6" width="420" x="1008" y="100" /><line opacity="0.1" stroke="#1A242D" stroke-width="1" x1="1016" x2="1016" y1="108" y2="382" /><line opacity="0.1" stroke="#1A242D" stroke-width="1" x1="1040" x2="1040" y1="108" y2="382" /><line opacity="0.1" stroke="#1A242D" stroke-width="1" x1="1064" x2="1064" y1="108" y2="382" /><line opacity="0.1" stroke="#1A242D" stroke-width="1" x1="1088" x2="1088" y1="108" y2="382" /><line opacity="0.1" stroke="#1A242D" stroke-width="1" x1="1112" x2="1112" y1="108" y2="382" /><line opacity="0.1" stroke="#1A242D" stroke-width="1" x1="1136" x2="1136" y1="108" y2="382" /><line opacity="0.1" stroke="#1A242D" stroke-width="1" x1="1160" x2="1160" y1="108" y2="382" /><line opacity="0.1" stroke="#1A242D" stroke-width="1" x1="1184" x2="1184" y1="108" y2="382" /><line opacity="0.1" stroke="#1A242D" stroke-width="1" x1="1208" x2="1208" y1="108" y2="382" /><line opacity="0.1" stroke="#1A242D" stroke-width="1" x1="1232" x2="1232" y1="108" y2="382" /><line opacity="0.1" stroke="#1A242D" stroke-width="1" x1="1256" x2="1256" y1="108" y2="382" /><line opacity="0.1" stroke="#1A242D" stroke-width="1" x1="1280" x2="1280" y1="108" y2="382" /><line opacity="0.1" stroke="#1A242D" stroke-width="1" x1="1304" x2="1304" y1="108" y2="382" /><line opacity="0.1" stroke="#1A242D" stroke-width="1" x1="1328" x2="1328" y1="108" y2="382" /><line opacity="0.1" stroke="#1A242D" stroke-width="1" x1="1352" x2="1352" y1="108" y2="382" /><line opacity="0.1" stroke="#1A242D" stroke-width="1" x1="1376" x2="1376" y1="108" y2="382" /><line opacity="0.1" stroke="#1A242D" stroke-width="1" x1="1400" x2="1400" y1="108" y2="382" /><line opacity="0.1" stroke="#1A242D" stroke-width="1" x1="1016" x2="1420" y1="108" y2="108" /><line opacity="0.1" stroke="#1A242D" stroke-width="1" x1="1016" x2="1420" y1="132" y2="132" /><line opacity="0.1" stroke="#1A242D" stroke-width="1" x1="1016" x2="1420" y1="156" y2="156" /><line opacity="0.1" stroke="#1A242D" stroke-width="1" x1="1016" x2="1420" y1="180" y2="180" /><line opacity="0.1" stroke="#1A242D" stroke-width="1" x1="1016" x2="1420" y1="204" y2="204" /><line opacity="0.1" stroke="#1A242D" stroke-width="1" x1="1016" x2="1420" y1="228" y2="228" /><line opacity="0.1" stroke="#1A242D" stroke-width="1" x1="1016" x2="1420" y1="252" y2="252" /><line opacity="0.1" stroke="#1A242D" stroke-width="1" x1="1016" x2="1420" y1="276" y2="276" /><line opacity="0.1" stroke="#1A242D" stroke-width="1" x1="1016" x2="1420" y1="300" y2="300" /><line opacity="0.1" stroke="#1A242D" stroke-width="1" x1="1016" x2="1420" y1="324" y2="324" /><line opacity="0.1" stroke="#1A242D" stroke-width="1" x1="1016" x2="1420" y1="348" y2="348" /><line opacity="0.1" stroke="#1A242D" stroke-width="1" x1="1016" x2="1420" y1="372" y2="372" /><rect fill="#0F161D" height="28" rx="14" ry="14" stroke="#24303A" stroke-width="1" width="166" x="1026" y="112" /><text fill="#D2F1FF" font-family="DejaVu Sans Mono" font-size="15" letter-spacing="1.4px" x="1039" y="131">IDENTITY PLATE</text><circle cx="1218" cy="245" fill="none" r="46" stroke="#9DDFFF" stroke-width="2.4" /><circle cx="1218" cy="245" fill="none" r="81" stroke="#24303A" stroke-width="1.6" /><line stroke="#24303A" stroke-width="1.6" x1="1118" x2="1318" y1="245" y2="245" /><line stroke="#24303A" stroke-width="1.6" x1="1218" x2="1218" y1="187" y2="303" /><text fill="#9AA8B5" font-family="DejaVu Sans Mono" font-size="15" x="1030" y="144">local authority</text><text fill="#9AA8B5" font-family="DejaVu Sans Mono" font-size="15" x="1030" y="168">visible recovery</text><text fill="#9AA8B5" font-family="DejaVu Sans Mono" font-size="16" letter-spacing="1.5px" x="72" y="446">CRISISCORE-SYSTEMS / PROTECTIVE COMPUTING</text><text fill="#9AA8B5" font-family="DejaVu Sans Mono" font-size="16" letter-spacing="1.5px" text-anchor="end" x="1428" y="446">founder identity</text></svg>