<svg baseProfile="full" height="900" version="1.1" viewBox="0,0,1800,900" width="1800" xmlns="http://www.w3.org/2000/svg" xmlns:ev="http://www.w3.org/2001/xml-events" xmlns:xlink="http://www.w3.org/1999/xlink"><defs /><rect fill="#05080C" height="900" width="1800" x="0" y="0" /><rect fill="none" height="836" stroke="#24303A" stroke-width="1.5" width="1736" x="32" y="32" /><line stroke="#1A242D" stroke-width="1" x1="32" x2="1768" y1="96" y2="96" /><line stroke="#1A242D" stroke-width="1" x1="32" x2="1768" y1="804" y2="804" /><text fill="#9AA8B5" font-family="DejaVu Sans Mono" font-size="45" letter-spacing="1.8px" x="72" y="78">CRISISCORE-SYSTEMS / SITE HERO</text><text fill="#EEF2F5" font-family="DejaVu Sans" font-size="126" font-weight="700" x="72" y="414">Protective Computing</text><text fill="#D2F1FF" font-family="DejaVu Sans" font-size="49" x="72" y="540">systems engineer under unstable conditions</text><text fill="#9AA8B5" font-family="DejaVu Sans" font-size="40" x="72" y="648">builder of tools for real-world fragility</text><rect fill="#0A0F14" height="522" rx="14" ry="14" stroke="#24303A" stroke-width="1.6" width="504" x="1224" y="180" /><line opacity="0.1" stroke="#1A242D" stroke-width="1" x1="1232" x2="1232" y1="188" y2="694" /><line opacity="0.1" stroke="#1A242D" stroke-width="1" x1="1256" x2="1256" y1="188" y2="694" /><line opacity="0.1" stroke="#1A242D" stroke-width="1" x1="1280" x2="1280" y1="188" y2="694" /><line opacity="0.1" stroke="#1A242D" stroke-width="1" x1="1304" x2="1304" y1="188" y2="694" /><line opacity="0.1" stroke="#1A242D" stroke-width="1" x1="1328" x2="1328" y1="188" y2="694" /><line opacity="0.1" stroke="#1A242D" stroke-width="1" x1="1352" x2="1352" y1="188" y2="694" /><line opacity="0.1" stroke="#1A242D" stroke-width="1" x1="1376" x2="1376" y1="188" y2="694" /><line opacity="0.1" stroke="#1A242D" stroke-width="1" x1="1400" x2="1400" y1="188" y2="694" /><line opacity="0.1" stroke="#1A242D" stroke-width="1" x1="1424" x2="1424" y1="188" y2="694" /><line opacity="0.1" stroke="#1A242D" stroke-width="1" x1="1448" x2="1448" y1="188" y2="694" /><line opacity="0.1" stroke="#1A242D" stroke-width="1" x1="1472" x2="1472" y1="188" y2="694" /><line opacity="0.1" stroke="#1A242D" stroke-width="1" x1="1496" x2="1496" y1="188" y2="694" /><line opacity="0.1" stroke="#1A242D" stroke-width="1" x1="1520" x2="1520" y1="188" y2="694" /><line opacity="0.1" stroke="#1A242D" stroke-width="1" x1="1544" x2="1544" y1="188" y2="694" /><line opacity="0.1" stroke="#1A242D" stroke-width="1" x1="1568" x2="1568" y1="188" y2="694" /><line opacity="0.1" stroke="#1A242D" stroke-width="1" x1="1592" x2="1592" y1="188" y2="694" /><line opacity="0.1" stroke="#1A242D" stroke-width="1" x1="1616" x2="1616" y1="188" y2="694" /><line opacity="0.1" stroke="#1A242D" stroke-width="1" x1="1640" x2="1640" y1="188" y2="694" /><line opacity="0.1" stroke="#1A242D" stroke-width="1" x1="1664" x2="1664" y1="188" y2="694" /><line opacity="0.1" stroke="#1A242D" stroke-width="1" x1="1688" x2="1688" y1="188" y2="694" /><line opacity="0.1" stroke="#1A242D" stroke-width="1" x1="1712" x2="1712" y1="188" y2="694" /><line opacity="0.1" stroke="#1A242D" stroke-width="1" x1="1232" x2="1720" y1="188" y2="188" /><line opacity="0.1" stroke="#1A242D" stroke-width="1" x1="1232" x2="1720" y1="212" y2="212" /><line opacity="0.1" stroke="#1A242D" stroke-width="1" x1="1232" x2="1720" y1="236" y2="236" /><line opacity="0.1" stroke="#1A242D" stroke-width="1" x1="1232" x2="1720" y1="260" y2="260" /><line opacity="0.1" stroke="#1A242D" stroke-width="1" x1="1232" x2="1720" y1="284" y2="284" /><line opacity="0.1" stroke="#1A242D" stroke-width="1" x1="1232" x2="1720" y1="308" y2="308" /><line opacity="0.1" stroke="#1A242D" stroke-width="1" x1="1232" x2="1720" y1="332" y2="332" /><line opacity="0.1" stroke="#1A242D" stroke-width="1" x1="1232" x2="1720" y1="356" y2="356" /><line opacity="0.1" stroke="#1A242D" stroke-width="1" x1="1232" x2="1720" y1="380" y2="380" /><line opacity="0.1" stroke="#1A242D" stroke-width="1" x1="1232" x2="1720" y1="404" y2="404" /><line opacity="0.1" stroke="#1A242D" stroke-width="1" x1="1232" x2="1720" y1="428" y2="428" /><line opacity="0.1" stroke="#1A242D" stroke-width="1" x1="1232" x2="1720" y1="452" y2="452" /><line opacity="0.1" stroke="#1A242D" stroke-width="1" x1="1232" x2="1720" y1="476" y2="476" /><line opacity="0.1" stroke="#1A242D" stroke-width="1" x1="1232" x2="1720" y1="500" y2="500" /><line opacity="0.1" stroke="#1A242D" stroke-width="1" x1="1232" x2="1720" y1="524" y2="524" /><line opacity="0.1" stroke="#1A242D" stroke-width="1" x1="1232" x2="1720" y1="548" y2="548" /><line opacity="0.1" stroke="#1A242D" stroke-width="1" x1="1232" x2="1720" y1="572" y2="572" /><line opacity="0.1" stroke="#1A242D" stroke-width="1" x1="1232" x2="1720" y1="596" y2="596" /><line opacity="0.1" stroke="#1A242D" stroke-width="1" x1="1232" x2="1720" y1="620" y2="620" /><line opacity="0.1" stroke="#1A242D" stroke-width="1" x1="1232" x2="1720" y1="644" y2="644" /><line opacity="0.1" stroke="#1A242D" stroke-width="1" x1="1232" x2="1720" y1="668" y2="668" /><line opacity="0.1" stroke="#1A242D" stroke-width="1" x1="1232" x2="1720" y1="692" y2="692" /><rect fill="#0F161D" height="28" rx="14" ry="14" stroke="#24303A" stroke-width="1" width="166" x="1242" y="192" /><text fill="#D2F1FF" font-family="DejaVu Sans Mono" font-size="15" letter-spacing="1.4px" x="1255" y="211">IDENTITY PLATE</text><circle cx="1476" cy="441" fill="none" r="80" stroke="#9DDFFF" stroke-width="2.4" /><circle cx="1476" cy="441" fill="none" r="141" stroke="#24303A" stroke-width="1.6" /><line stroke="#24303A" stroke-width="1.6" x1="1356" x2="1596" y1="441" y2="441" /><line stroke="#24303A" stroke-width="1.6" x1="1476" x2="1476" y1="337" y2="545" /><text fill="#9AA8B5" font-family="DejaVu Sans Mono" font-size="27" x="1246" y="224">local authority</text><text fill="#9AA8B5" font-family="DejaVu Sans Mono" font-size="27" x="1246" y="248">visible recovery</text><text fill="#9AA8B5" font-family="DejaVu Sans Mono" font-size="16" letter-spacing="1.5px" x="72" y="846">CRISISCORE-SYSTEMS / PROTECTIVE COMPUTING</text><text fill="#9AA8B5" font-family="DejaVu Sans Mono" font-size="16" letter-spacing="1.5px" text-anchor="end" x="1728" y="846">founder identity</text></svg>