<svg baseProfile="full" height="900" version="1.1" viewBox="0,0,1800,900" width="1800" xmlns="http://www.w3.org/2000/svg" xmlns:ev="http://www.w3.org/2001/xml-events" xmlns:xlink="http://www.w3.org/1999/xlink"><defs /><rect fill="#05080C" height="900" width="1800" x="0" y="0" /><rect fill="none" height="836" stroke="#24303A" stroke-width="1.5" width="1736" x="32" y="32" /><line stroke="#1A242D" stroke-width="1" x1="32" x2="1768" y1="96" y2="96" /><line stroke="#1A242D" stroke-width="1" x1="32" x2="1768" y1="804" y2="804" /><text fill="#9AA8B5" font-family="DejaVu Sans Mono" font-size="45" font-weight="400" letter-spacing="1.8px" x="72" y="78">CRISISCORE-SYSTEMS / SITE HERO</text><text fill="#EEF2F5" font-family="DejaVu Sans" font-size="126" font-weight="700" x="72" y="414" textLength="1100" lengthAdjust="spacingAndGlyphs">Protective Computing</text><text fill="#D2F1FF" font-family="DejaVu Sans" font-size="49" x="72" y="540">systems engineer under unstable conditions</text><text fill="#9AA8B5" font-family="DejaVu Sans" font-size="40" x="72" y="648">builder of tools for real-world fragility</text><rect fill="#0A0F14" height="522" rx="14" ry="14" stroke="#24303A" stroke-width="1.6" width="504" x="1224" y="180" /><line opacity="0.1" stroke="#1A242D" stroke-width="1" x1="1232" x2="1232" y1="188" y2="694" /><line opacity="0.1" stroke="#1A242D" stroke-width="1" x1="1256" x2="1256" y1="188" y2="694" /><line opacity="0.1" stroke="#1A242D" stroke-width="1" x1="1280" x2="1280" y1="188" y2="694" /><line opacity="0.1" stroke="#1A242D" stroke-width="1" x1="1304" x2="1304" y1="188" y2="694" /><line opacity="0.1" stroke="#1A242D" stroke-width="1" x1="1328" x2="1328" y1="188" y2="694" /><line opacity="0.1" stroke="#1A242D" stroke-width="1" x1="1352" x2="1352" y1="188" y2="694" /><line opacity="0.1" stroke="#1A242D" stroke-width="1" x1="1376" x2="1376" y1="188" y2="694" /><line opacity="0.1" stroke="#1A242D" stroke-width="1" x1="1400" x2="1400" y1="188" y2="694" /><line opacity="0.1" stroke="#1A242D" stroke-width="1" x1="1424" x2="1424" y1="188" y2="694" /><line opacity="0.1" stroke="#1A242D" stroke-width="1" x1="1448" x2="1448" y1="188" y2="694" /><line opacity="0.1" stroke="#1A242D" stroke-width="1" x1="1472" x2="1472" y1="188" y2="694" /><line opacity="0.1" stroke="#1A242D" stroke-width="1" x1="1496" x2="1496" y1="188" y2="694" /><line opacity="0.1" stroke="#1A242D" stroke-width="1" x1="1520" x2="1520" y1="188" y2="694" /><line opacity="0.1" stroke="#1A242D" stroke-width="1" x1="1544" x2="1544" y1="188" y2="694" /><line opacity="0.1" stroke="#1A242D" stroke-width="1" x1="1568" x2="1568" y1="188" y2="694" /><line opacity="0.1" stroke="#1A242D" stroke-width="1" x1="1592" x2="1592" y1="188" y2="694" /><line opacity="0.1" stroke="#1A242D" stroke-width="1" x1="1616" x2="1616" y1="188" y2="694" /><line opacity="0.1" stroke="#1A242D" stroke-width="1" x1="1640" x2="1640" y1="188" y2="694" /><line opacity="0.1" stroke="#1A242D" stroke-width="1" x1="1664" x2="1664" y1="188" y2="694" /><line opacity="0.1" stroke="#1A242D" stroke-width="1" x1="1688" x2="1688" y1="188" y2="694" /><line opacity="0.1" stroke="#1A242D" stroke-width="1" x1="1712" x2="1712" y1="188" y2="694" /><line opacity="0.1" stroke="#1A242D" stroke-width="1" x1="1224" x2="1728" y1="196" y2="196" /><line opacity="0.1" stroke="#1A242D" stroke-width="1" x1="1224" x2="1728" y1="220" y2="220" /><line opacity="0.1" stroke="#1A242D" stroke-width="1" x1="1224" x2="1728" y1="244" y2="244" /><line opacity="0.1" stroke="#1A242D" stroke-width="1" x1="1224" x2="1728" y1="268" y2="268" /><line opacity="0.1" stroke="#1A242D" stroke-width="1" x1="1224" x2="1728" y1="292" y2="292" /><line opacity="0.1" stroke="#1A242D" stroke-width="1" x1="1224" x2="1728" y1="316" y2="316" /><line opacity="0.1" stroke="#1A242D" stroke-width="1" x1="1224" x2="1728" y1="340" y2="340" /><line opacity="0.1" stroke="#1A242D" stroke-width="1" x1="1224" x2="1728" y1="364" y2="364" /><line opacity="0.1" stroke="#1A242D" stroke-width="1" x1="1224" x2="1728" y1="388" y2="388" /><line opacity="0.1" stroke="#1A242D" stroke-width="1" x1="1224" x2="1728" y1="412" y2="412" /><line opacity="0.1" stroke="#1A242D" stroke-width="1" x1="1224" x2="1728" y1="436" y2="436" /><line opacity="0.1" stroke="#1A242D" stroke-width="1" x1="1224" x2="1728" y1="460" y2="460" /><line opacity="0.1" stroke="#1A242D" stroke-width="1" x1="1224" x2="1728" y1="484" y2="484" /><line opacity="0.1" stroke="#1A242D" stroke-width="1" x1="1224" x2="1728" y1="508" y2="508" /><line opacity="0.1" stroke="#1A242D" stroke-width="1" x1="1224" x2="1728" y1="532" y2="532" /><line opacity="0.1" stroke="#1A242D" stroke-width="1" x1="1224" x2="1728" y1="556" y2="556" /><line opacity="0.1" stroke="#1A242D" stroke-width="1" x1="1224" x2="1728" y1="580" y2="580" /><line opacity="0.1" stroke="#1A242D" stroke-width="1" x1="1224" x2="1728" y1="604" y2="604" /><line opacity="0.1" stroke="#1A242D" stroke-width="1" x1="1224" x2="1728" y1="628" y2="628" /><line opacity="0.1" stroke="#1A242D" stroke-width="1" x1="1224" x2="1728" y1="652" y2="652" /><line opacity="0.1" stroke="#1A242D" stroke-width="1" x1="1224" x2="1728" y1="676" y2="676" /><rect fill="#0F161D" height="26" rx="13" ry="13" stroke="#24303A" stroke-width="1" width="162" x="1242" y="192" /><text fill="#D2F1FF" font-family="DejaVu Sans Mono" font-size="14" letter-spacing="1.4px" x="1254" y="210">SYSTEM MAP</text><rect fill="#0C1218" height="84" rx="8" ry="8" stroke="#9DDFFF" stroke-width="1.6" width="460" x="1246" y="238" /><text fill="#EEF2F5" font-family="DejaVu Sans Mono" font-size="17" font-weight="700" letter-spacing="1.4px" text-anchor="middle" x="1476" y="266">USER UNDER STRESS</text><text fill="#9AA8B5" font-family="DejaVu Sans Mono" font-size="12" font-weight="400" letter-spacing="0.6px" text-anchor="middle" x="1476" y="288">low battery  ·  offline  ·  coercion  ·  overload</text><text fill="#9DDFFF" font-family="DejaVu Sans Mono" font-size="10" font-weight="400" letter-spacing="1px" x="1254" y="312">STRESS CONDITIONS</text><line stroke="#9DDFFF" stroke-width="1.6" x1="1476" x2="1476" y1="322" y2="346" /><polygon fill="#9DDFFF" points="1476,360 1468,348 1484,348" /><rect fill="#0F161D" height="66" rx="8" ry="8" stroke="#24303A" stroke-width="1.6" width="460" x="1246" y="362" /><text fill="#EEF2F5" font-family="DejaVu Sans Mono" font-size="17" font-weight="700" letter-spacing="1.4px" text-anchor="middle" x="1476" y="400">DEVICE / LOCAL SYSTEM</text><line stroke="#9DDFFF" stroke-width="1.6" x1="1476" x2="1476" y1="428" y2="452" /><polygon fill="#9DDFFF" points="1476,466 1468,454 1484,454" /><rect fill="#0C1218" height="84" rx="8" ry="8" stroke="#D2F1FF" stroke-width="1.6" width="460" x="1246" y="468" /><text fill="#EEF2F5" font-family="DejaVu Sans Mono" font-size="17" font-weight="700" letter-spacing="1.4px" text-anchor="middle" x="1476" y="496">PROTECTIVE LAYER</text><text fill="#9AA8B5" font-family="DejaVu Sans Mono" font-size="12" font-weight="400" letter-spacing="0.6px" text-anchor="middle" x="1476" y="518">local  ·  no default sync  ·  opt-cloud</text><text fill="#D2F1FF" font-family="DejaVu Sans Mono" font-size="10" font-weight="400" letter-spacing="1px" x="1254" y="542">TRUST BOUNDARY</text><line stroke="#9DDFFF" stroke-width="1.6" x1="1476" x2="1476" y1="552" y2="576" /><polygon fill="#9DDFFF" points="1476,590 1468,578 1484,578" /><rect fill="#0F161D" height="66" rx="8" ry="8" stroke="#9DDFFF" stroke-width="1.6" width="460" x="1246" y="592" /><text fill="#EEF2F5" font-family="DejaVu Sans Mono" font-size="17" font-weight="700" letter-spacing="1.4px" text-anchor="middle" x="1476" y="618">OUTPUT / SURVIVAL FUNCTION</text><text fill="#9AA8B5" font-family="DejaVu Sans Mono" font-size="11" font-weight="400" letter-spacing="0.5px" text-anchor="middle" x="1476" y="640">data preserved  ·  access retained  ·  integrity verified</text><text fill="#9AA8B5" font-family="DejaVu Sans Mono" font-size="16" font-weight="400" letter-spacing="1.5px" x="72" y="846">CRISISCORE-SYSTEMS / PROTECTIVE COMPUTING</text><text fill="#9AA8B5" font-family="DejaVu Sans Mono" font-size="16" font-weight="400" letter-spacing="1.5px" text-anchor="end" x="1728" y="846">system boundary map</text></svg>